<svg height="512pt" viewBox="0 0 512 512" width="512pt" xmlns="http://www.w3.org/2000/svg" fill="#003c71"><path d="m336 36c-4.425781 0-8-3.574219-8-8 0-15.441406 12.558594-28 28-28 13.222656 0 24.769531 9.40625 27.433594 22.359375.886718 4.328125-1.898438 8.550781-6.226563 9.449219-4.328125.878906-8.550781-1.886719-9.445312-6.222656-1.144531-5.554688-6.089844-9.585938-11.761719-9.585938-6.617188 0-12 5.382812-12 12 0 4.425781-3.574219 8-8 8zm0 0"/><path d="m415.992188 192c-3.578126 0-6.832032-2.414062-7.753907-6.039062l-40.40625-160.03125c-1.078125-4.289063 1.511719-8.632813 5.800781-9.722657 4.277344-1.0625 8.640626 1.511719 9.71875 5.800781l40.410157 160.03125c1.078125 4.289063-1.515625 8.632813-5.800781 9.722657-.65625.160156-1.320313.238281-1.96875.238281zm0 0"/><path d="m424 200c-8.824219 0-16-7.175781-16-16 0-4.425781 3.574219-8 8-8s8 3.574219 8 8v.015625c4.425781 0 8 3.570313 8 7.992187 0 4.417969-3.574219 7.992188-8 7.992188zm0 0"/><path d="m336 240c-4.425781 0-8-3.574219-8-8v-204c0-4.425781 3.574219-8 8-8s8 3.574219 8 8v204c0 4.425781-3.574219 8-8 8zm0 0"/><path d="m384 288c-30.871094 0-56-25.128906-56-56 0-4.425781 3.574219-8 8-8s8 3.574219 8 8c0 22.054688 17.945312 40 40 40 4.425781 0 8 3.574219 8 8s-3.574219 8-8 8zm0 0"/><path d="m440 288h-56c-4.425781 0-8-3.574219-8-8s3.574219-8 8-8h56c4.425781 0 8 3.574219 8 8s-3.574219 8-8 8zm0 0"/><path d="m376 156c-4.425781 0-8-3.574219-8-8 0-6.617188-5.382812-12-12-12s-12 5.382812-12 12c0 4.425781-3.574219 8-8 8s-8-3.574219-8-8c0-15.441406 12.558594-28 28-28s28 12.558594 28 28c0 4.425781-3.574219 8-8 8zm0 0"/><path d="m228.007812 135.984375c-4.421874 0-8-3.578125-8-8 0-4.425781 3.578126-8 8-8 6.609376 0 11.992188-5.382813 11.992188-11.992187 0-6.609376-5.382812-11.992188-11.992188-11.992188-4.421874 0-8-3.574219-8-8s3.578126-8 8-8c15.441407 0 27.992188 12.550781 27.992188 27.992188 0 15.441406-12.550781 27.992187-27.992188 27.992187zm0 0"/><path d="m228.007812 175.984375c-4.421874 0-8-3.578125-8-8 0-4.425781 3.578126-8 8-8 6.609376 0 11.992188-5.382813 11.992188-11.992187 0-6.609376-5.382812-11.992188-11.992188-11.992188-4.421874 0-8-3.574219-8-8s3.578126-8 8-8c15.441407 0 27.992188 12.550781 27.992188 27.992188 0 15.441406-12.550781 27.992187-27.992188 27.992187zm0 0"/><path d="m228.007812 215.984375c-4.421874 0-8-3.578125-8-8 0-4.425781 3.578126-8 8-8 6.609376 0 11.992188-5.382813 11.992188-11.992187 0-6.609376-5.382812-11.992188-11.992188-11.992188-4.421874 0-8-3.574219-8-8s3.578126-8 8-8c15.441407 0 27.992188 12.550781 27.992188 27.992188 0 15.441406-12.550781 27.992187-27.992188 27.992187zm0 0"/><path d="m228.007812 255.984375c-4.421874 0-8-3.578125-8-8 0-4.425781 3.578126-8 8-8 6.609376 0 11.992188-5.382813 11.992188-11.992187 0-6.609376-5.382812-11.992188-11.992188-11.992188-4.421874 0-8-3.574219-8-8s3.578126-8 8-8c15.441407 0 27.992188 12.550781 27.992188 27.992188 0 15.441406-12.550781 27.992187-27.992188 27.992187zm0 0"/><path d="m376 208c-4.425781 0-8-3.574219-8-8v-52c0-4.425781 3.574219-8 8-8s8 3.574219 8 8v52c0 4.425781-3.574219 8-8 8zm0 0"/><path d="m440 200h-16c-4.425781 0-8-3.574219-8-8s3.574219-8 8-8h16c4.425781 0 8 3.574219 8 8s-3.574219 8-8 8zm0 0"/><path d="m440 296c-4.425781 0-8-3.574219-8-8v-104c0-4.425781 3.574219-8 8-8s8 3.574219 8 8v104c0 4.425781-3.574219 8-8 8zm0 0"/><path d="m464 296h-24c-4.425781 0-8-3.574219-8-8s3.574219-8 8-8h24c4.425781 0 8 3.574219 8 8s-3.574219 8-8 8zm0 0"/><path d="m464 192h-24c-4.425781 0-8-3.574219-8-8s3.574219-8 8-8h24c4.425781 0 8 3.574219 8 8s-3.574219 8-8 8zm0 0"/><path d="m464 312c-4.425781 0-8-3.574219-8-8v-136c0-4.425781 3.574219-8 8-8s8 3.574219 8 8v136c0 4.425781-3.574219 8-8 8zm0 0"/><path d="m504 312h-40c-4.425781 0-8-3.574219-8-8s3.574219-8 8-8h40c4.425781 0 8 3.574219 8 8s-3.574219 8-8 8zm0 0"/><path d="m504 176h-40c-4.425781 0-8-3.574219-8-8s3.574219-8 8-8h40c4.425781 0 8 3.574219 8 8s-3.574219 8-8 8zm0 0"/><path d="m72 240c-4.425781 0-8-3.574219-8-8v-104c0-4.425781 3.574219-8 8-8s8 3.574219 8 8v104c0 4.425781-3.574219 8-8 8zm0 0"/><path d="m72 240h-24c-4.425781 0-8-3.574219-8-8s3.574219-8 8-8h24c4.425781 0 8 3.574219 8 8s-3.574219 8-8 8zm0 0"/><path d="m72 136h-24c-4.425781 0-8-3.574219-8-8s3.574219-8 8-8h24c4.425781 0 8 3.574219 8 8s-3.574219 8-8 8zm0 0"/><path d="m48 256c-4.425781 0-8-3.574219-8-8v-136c0-4.425781 3.574219-8 8-8s8 3.574219 8 8v136c0 4.425781-3.574219 8-8 8zm0 0"/><path d="m48 256h-40c-4.425781 0-8-3.574219-8-8s3.574219-8 8-8h40c4.425781 0 8 3.574219 8 8s-3.574219 8-8 8zm0 0"/><path d="m48 120h-40c-4.425781 0-8-3.574219-8-8s3.574219-8 8-8h40c4.425781 0 8 3.574219 8 8s-3.574219 8-8 8zm0 0"/><path d="m88 144h-16c-4.425781 0-8-3.574219-8-8s3.574219-8 8-8h16c4.425781 0 8 3.574219 8 8s-3.574219 8-8 8zm0 0"/><path d="m88 232h-16c-4.425781 0-8-3.574219-8-8s3.574219-8 8-8h16c4.425781 0 8 3.574219 8 8s-3.574219 8-8 8zm0 0"/><path d="m88 144c-2.046875 0-4.097656-.785156-5.65625-2.34375-3.128906-3.128906-3.128906-8.183594 0-11.3125l48-48c3.128906-3.128906 8.183594-3.128906 11.3125 0s3.128906 8.183594 0 11.3125l-48 48c-1.558594 1.558594-3.609375 2.34375-5.65625 2.34375zm0 0"/><path d="m228.007812 96h-92.007812c-4.425781 0-8-3.574219-8-8s3.574219-8 8-8h92.007812c4.425782 0 8 3.574219 8 8s-3.574218 8-8 8zm0 0"/><path d="m228.007812 256h-100.007812c-4.425781 0-8-3.574219-8-8s3.574219-8 8-8h100.007812c4.425782 0 8 3.574219 8 8s-3.574218 8-8 8zm0 0"/><path d="m127.992188 256c-1.398438 0-2.824219-.367188-4.113282-1.144531l-40-24c-3.789062-2.269531-5.015625-7.183594-2.742187-10.976563 2.269531-3.78125 7.175781-5.015625 10.976562-2.742187l40 24c3.789063 2.269531 5.015625 7.183593 2.742188 10.976562-1.496094 2.503907-4.144531 3.886719-6.863281 3.886719zm0 0"/><path d="m160 96c-3.167969 0-6.175781-1.894531-7.433594-5.03125l-16-40c-1.636718-4.105469.363282-8.761719 4.464844-10.402344 4.074219-1.644531 8.761719.355469 10.402344 4.464844l16 40c1.636718 4.105469-.363282 8.761719-4.464844 10.402344-.96875.390625-1.976562.566406-2.96875.566406zm0 0"/><path d="m208 96c-.992188 0-2-.175781-2.96875-.566406-4.101562-1.640625-6.101562-6.296875-4.464844-10.402344l16-40c1.640625-4.121094 6.335938-6.109375 10.402344-4.464844 4.101562 1.640625 6.101562 6.296875 4.464844 10.402344l-16 40c-1.257813 3.136719-4.265625 5.03125-7.433594 5.03125zm0 0"/><path d="m201.511719 59.519531c-7.015625 0-14.511719-1.078125-21.097657-4.367187-10.695312-5.351563-28.09375-1.503906-33.886718.433594-4.230469 1.40625-8.71875-.867188-10.121094-5.058594-1.398438-4.191406.867188-8.726563 5.058594-10.121094 1.101562-.367188 27.351562-8.941406 46.109375.433594 10.699219 5.351562 28.097656 1.503906 33.890625-.433594 4.222656-1.40625 8.71875.867188 10.121094 5.058594 1.398437 4.191406-.867188 8.726562-5.058594 10.121094-.710938.246093-12.023438 3.933593-25.015625 3.933593zm0 0"/><path d="m184 512c-74.992188 0-136-61.007812-136-136 0-50.007812 27.65625-96.503906 79.976562-134.480469 3.566407-2.597656 8.566407-1.808593 11.167969 1.785157 2.589844 3.566406 1.800781 8.574218-1.785156 11.167968-48.671875 35.335938-73.359375 76.222656-73.359375 121.527344 0 66.167969 53.832031 120 120 120s120-53.832031 120-120c0-57.511719-39.894531-98.550781-73.367188-122.839844-3.570312-2.601562-4.367187-7.601562-1.777343-11.175781 2.59375-3.570313 7.585937-4.382813 11.175781-1.777344 52.320312 37.96875 79.96875 84.9375 79.96875 135.792969 0 74.992188-61.007812 136-136 136zm0 0"/><path d="m184 440c-35.289062 0-64-28.710938-64-64s28.710938-64 64-64 64 28.710938 64 64-28.710938 64-64 64zm0-112c-26.472656 0-48 21.527344-48 48s21.527344 48 48 48 48-21.527344 48-48-21.527344-48-48-48zm0 0"/><path d="m184 400c-4.425781 0-8-3.574219-8-8v-32c0-4.425781 3.574219-8 8-8s8 3.574219 8 8v32c0 4.425781-3.574219 8-8 8zm0 0"/></svg>