<svg xmlns="http://www.w3.org/2000/svg" data-name="Layer 1" viewBox="0 0 100 125" x="0px" y="0px" fill="#003c71"><path d="M68.25,78.75h-5V21.45L50,9.3,36.75,21.45v57.3h-5v12.5h36.5Zm-29-18.23L57.88,41.88l-1.76-1.76L39.25,57V47.52l5.63-5.64-1.76-1.76L39.25,44V22.55L50,12.7l10.75,9.85V48.48L39.25,70Zm0,13L60.75,52V62.48L44.48,78.75H39.25Zm26.5,15.23H34.25v-7.5H52v-2.5H48L60.75,66V78.75H57v2.5h8.75Z"/><path d="M50,25.75A5.25,5.25,0,1,0,55.25,31,5.25,5.25,0,0,0,50,25.75Zm0,8A2.75,2.75,0,1,1,52.75,31,2.75,2.75,0,0,1,50,33.75Z"/></svg>