<svg height="496pt" viewBox="0 0 496 496" width="496pt" xmlns="http://www.w3.org/2000/svg" fill="#003c71"><path d="m496 96v-48h-122.230469l-16-48h-123.539062l-16 48h-122.230469v48h16v56c-30.878906 0-56 25.128906-56 56v24c0 18.976562 9.511719 35.761719 24 45.886719v12.160156l-51.496094 15.449219c-17.046875 5.113281-28.503906 20.511718-28.503906 38.503906v88c0 8.824219 7.175781 16 16 16h8v48h176v-80h88v33.472656c-9.289062 3.3125-16 12.113282-16 22.527344 0 13.230469 10.769531 24 24 24s24-10.769531 24-24c0-10.414062-6.710938-19.214844-16-22.527344v-33.472656h192v-48h-16v-272zm-200 384c-4.40625 0-8-3.585938-8-8s3.59375-8 8-8 8 3.585938 8 8-3.59375 8-8 8zm-184-416h117.769531l16-48h100.46875l16 48h117.761719v16h-368zm-40 168v-24c0-22.054688 17.945312-40 40-40s40 17.945312 40 40v24c0 22.054688-17.945312 40-40 40s-40-17.945312-40-40zm40 56c5.558594 0 10.929688-.839844 16-2.359375v8.175781c-2.03125 3.113282-7.585938 10.183594-16 10.183594-8.519531 0-14.039062-7.167969-16-10.199219v-8.160156c5.070312 1.519531 10.441406 2.359375 16 2.359375zm-96 128h88c4.40625 0 8 3.585938 8 8s-3.59375 8-8 8h-88zm136 64h-80v-32h32c13.230469 0 24-10.769531 24-24s-10.769531-24-24-24h-32v-32h80zm-112-32h16v32h-16zm144 32h-16v-128h-112v48h-40v-56.183594c0-10.679687 6.871094-19.921875 17.105469-22.992187l51.511719-15.457031c4.65625 6.046874 13.664062 14.632812 27.382812 14.632812 14.800781 0 24.121094-9.984375 28.398438-16h83.601562v32h-40zm296-80h-280v-16h280zm-16-32h-264v-16h40v-8h72c13.230469 0 24-10.769531 24-24s-10.769531-24-24-24h-72v-8h-96v-10.113281c14.488281-10.132813 24-26.910157 24-45.886719v-24c0-2.71875-.265625-5.375-.640625-8h104.640625v-16h-16v-64h-16v64h-16v-48h-16v48h-16v-24h-16v24h-13.480469c-6.757812-14.167969-19.261719-25.078125-34.519531-29.640625v-58.359375h336zm-224-56h72c4.40625 0 8 3.585938 8 8s-3.59375 8-8 8h-72zm0 0"/><path d="m256 32h80v16h-80zm0 0"/><path d="m368 272c44.113281 0 80-35.886719 80-80s-35.886719-80-80-80-80 35.886719-80 80 35.886719 80 80 80zm-63.449219-72h32.585938c2.910156 11.191406 11.671875 19.953125 22.863281 22.863281v32.585938c-28.894531-3.632813-51.816406-26.554688-55.449219-55.449219zm63.449219-24c8.824219 0 16 7.175781 16 16s-7.175781 16-16 16-16-7.175781-16-16 7.175781-16 16-16zm8 79.449219v-32.585938c11.191406-2.910156 19.953125-11.671875 22.863281-22.863281h32.585938c-3.632813 28.894531-26.554688 51.816406-55.449219 55.449219zm55.449219-71.449219h-32.585938c-2.910156-11.191406-11.671875-19.953125-22.863281-22.863281v-32.585938c28.894531 3.632813 51.816406 26.554688 55.449219 55.449219zm-71.449219-55.449219v32.585938c-11.191406 2.910156-19.953125 11.671875-22.863281 22.863281h-32.585938c3.632813-28.894531 26.554688-51.816406 55.449219-55.449219zm0 0"/><path d="m184 256h16v16h-16zm0 0"/><path d="m216 256h16v16h-16zm0 0"/><path d="m248 256h16v16h-16zm0 0"/><path d="m184 224h80v16h-80zm0 0"/><path d="m360 336h16v16h-16zm0 0"/><path d="m392 336h16v16h-16zm0 0"/><path d="m424 336h16v16h-16zm0 0"/><path d="m352 304h96v16h-96zm0 0"/></svg>