<svg xmlns="http://www.w3.org/2000/svg" viewBox="0 0 91.28463 91.1661375" x="0px" y="0px" fill="#003c71"><g data-name="Livello 2"><g data-name="Livello 1"><path d="M83.47154,49.51636l-.33363-.19238V43.22412A1.36615,1.36615,0,0,0,82.63183,42.16L78.34226,38.678v-4.2679a8.1671,8.1671,0,0,0-8.158-8.158H61.424v-9.087a5.4636,5.4636,0,0,0-5.45772-5.45772,1.37093,1.37093,0,0,0,0,2.74186,2.719,2.719,0,0,1,2.71586,2.71586v9.087H47.71127L41.497,2.74186h1.68116a1.37093,1.37093,0,1,0,0-2.74186h-22.739a8.1671,8.1671,0,0,0-8.158,8.158V21.22773L7.47425,24.441A1.36974,1.36974,0,0,0,6.865,25.58056V33.528l-.3449.18978A28.40763,28.40763,0,0,0,.82585,37.8392a1.37093,1.37093,0,1,0,1.87181,2.00353,25.465,25.465,0,0,1,42.855,18.61586,1.37209,1.37209,0,0,0,1.37093,1.37006h13.5793l-.11872.76692a15.79623,15.79623,0,0,0-.18458,2.39523,15.54254,15.54254,0,1,0,23.272-13.47445ZM25.71315,2.74186H38.66071L44.875,26.25216H36.31055L31.8572,21.06742a1.36993,1.36993,0,0,0-1.0399-.47749H25.71315ZM15.023,8.158a5.42255,5.42255,0,0,1,5.41612-5.41612h2.533V20.58993H15.023ZM61.3625,57.08766H48.25982l-.04333-.61874a28.19108,28.19108,0,0,0-.56328-3.97847l-.17418-.80592h6.41616a1.37093,1.37093,0,0,0,0-2.74186H46.64191l-.16205-.42982A28.20058,28.20058,0,0,0,10.49774,31.91873l-.89171.32237V26.31282l4.462-2.981H30.18817l4.45335,5.18475a1.36993,1.36993,0,0,0,1.0399.47749H70.18428a5.42273,5.42273,0,0,1,5.417,5.41612v4.92044a1.36615,1.36615,0,0,0,.50608,1.06416l4.28957,3.48192V48.1359l-.82932-.21058A15.54339,15.54339,0,0,0,61.53841,56.6925Zm14.38,18.70425A12.80111,12.80111,0,1,1,88.54277,62.9908,12.81614,12.81614,0,0,1,75.74252,75.79192Z"/><path d="M75.74252,55.59368a7.39756,7.39756,0,1,0,7.39712,7.39712A7.406,7.406,0,0,0,75.74252,55.59368Zm0,12.05326a4.65613,4.65613,0,1,1,4.65613-4.65613A4.66179,4.66179,0,0,1,75.74252,67.64693Z"/><path d="M20.07518,38.38341A20.07475,20.07475,0,1,0,40.1495,58.45859,20.09767,20.09767,0,0,0,20.07518,38.38341Zm0,37.40851A17.33332,17.33332,0,1,1,37.40851,58.45859,17.3533,17.3533,0,0,1,20.07518,75.79192Z"/><path d="M20.07518,48.7217a9.73645,9.73645,0,1,0,9.736,9.73689A9.74742,9.74742,0,0,0,20.07518,48.7217Zm0,16.73192a6.995,6.995,0,1,1,6.995-6.995A7.0036,7.0036,0,0,1,20.07518,65.45362Z"/><path d="M51.90812,35.13547a1.37135,1.37135,0,0,0-1.37006,1.37006v4.86411a1.3705,1.3705,0,1,0,2.741,0V36.50553A1.37209,1.37209,0,0,0,51.90812,35.13547Z"/><path d="M60.0531,35.13547a1.37209,1.37209,0,0,0-1.37093,1.37006v4.86411a1.37093,1.37093,0,0,0,2.74186,0V36.50553A1.37209,1.37209,0,0,0,60.0531,35.13547Z"/><path d="M68.19808,42.74057a1.37209,1.37209,0,0,0,1.37006-1.37093V36.50553a1.3705,1.3705,0,0,0-2.741,0v4.86411A1.37284,1.37284,0,0,0,68.19808,42.74057Z"/></g></g></svg>