<svg id="Capa_1" enable-background="new 0 0 512 512" height="512" viewBox="0 0 512 512" width="512" xmlns="http://www.w3.org/2000/svg" fill="#003c71"><path d="m342.631 268.398c4.142 0 7.5-3.358 7.5-7.5v-16.844c0-4.142-3.358-7.5-7.5-7.5s-7.5 3.358-7.5 7.5v16.844c0 4.142 3.358 7.5 7.5 7.5z"/><path d="m354.102 278.157h-22.942c-4.142 0-7.5 3.357-7.5 7.5 0 4.142 3.358 7.5 7.5 7.5h22.942c4.142 0 7.5-3.358 7.5-7.5 0-4.143-3.358-7.5-7.5-7.5z"/><path d="m169.37 268.398c4.142 0 7.5-3.358 7.5-7.5v-16.844c0-4.142-3.358-7.5-7.5-7.5s-7.5 3.358-7.5 7.5v16.844c0 4.142 3.358 7.5 7.5 7.5z"/><path d="m180.84 278.157h-22.942c-4.142 0-7.5 3.357-7.5 7.5 0 4.142 3.358 7.5 7.5 7.5h22.942c4.142 0 7.5-3.358 7.5-7.5 0-4.143-3.358-7.5-7.5-7.5z"/><path d="m276.431 272.203c-3.119-2.726-7.856-2.408-10.583.711-2.384 2.727-5.973 4.292-9.848 4.292s-7.464-1.564-9.848-4.292c-2.726-3.119-7.464-3.437-10.583-.711s-3.437 7.464-.711 10.583c5.233 5.986 12.938 9.419 21.142 9.419s15.909-3.434 21.142-9.419c2.726-3.119 2.408-7.857-.711-10.583z"/><path d="m229.275 74.029-1.571 9.159c-.896 5.228 1.212 10.412 5.503 13.53 2.425 1.761 5.261 2.656 8.117 2.656 2.199 0 4.408-.53 6.45-1.604l8.226-4.324 8.226 4.325c4.696 2.468 10.278 2.064 14.568-1.053 4.291-3.118 6.399-8.302 5.502-13.529l-1.571-9.16 6.655-6.487c3.798-3.702 5.139-9.136 3.5-14.18s-5.918-8.651-11.167-9.414l-9.197-1.336-4.113-8.334c-2.348-4.756-7.101-7.71-12.405-7.71s-10.057 2.955-12.404 7.711l-4.113 8.333-9.197 1.336c-5.249.763-9.528 4.37-11.167 9.415-1.639 5.044-.298 10.478 3.5 14.18zm12.972-16.662c4.506-.654 8.399-3.483 10.416-7.567l3.337-6.763 3.338 6.763c2.015 4.084 5.909 6.913 10.415 7.567l7.464 1.084-5.4 5.264c-3.261 3.179-4.749 7.756-3.979 12.244l1.274 7.433-6.675-3.51c-4.031-2.119-8.844-2.119-12.874 0l-6.676 3.509 1.275-7.434c.77-4.488-.718-9.065-3.979-12.243l-5.4-5.264z"/><path d="m459.118 165.183h-43.685s16.54-126.788 16.555-126.898c2.608-19.994-13.479-38.285-33.612-38.285 0 0-284.524 0-284.753 0-20.168 0-36.216 18.309-33.611 38.285l16.555 126.898h-43.684c-10.027 0-18.185 8.158-18.185 18.185v20.15c0 10.027 8.158 18.185 18.185 18.185h26.506c-.202 1.041-.394 2.083-.578 3.127-20.132 2.357-35.808 19.51-35.808 40.264 0 22.146 17.849 40.192 39.916 40.535 11.818 41.62 38.419 77.995 76.004 102.12 7.131 4.578 13.774 8.955 20.05 13.212-15.521 11.67-44.061 39.161-44.061 83.54 0 4.142 3.358 7.5 7.5 7.5h227.175c4.142 0 7.5-3.358 7.5-7.5 0-44.404-28.579-71.902-44.097-83.561 6.407-4.38 12.693-8.52 18.895-12.432 14.003-8.834 26.749-19.584 37.882-31.952 2.771-3.079 2.522-7.821-.556-10.592s-7.82-2.522-10.592.556c-18.057 20.052-41.901 33.289-63.695 48.716-16.961 12.003-33.32 24.819-49.806 37.458-5.323 4.086-12.936 4.069-18.258-.016-26.09-20.026-52.147-39.753-79.834-57.552-57.166-36.694-86.496-106.948-72.347-173.423h17.827c-2.668 11.18-4.033 22.653-4.033 34.239 0 34.924 12.479 68.825 35.137 95.459 17.513 20.585 44.62 29.369 70.743 22.925 19.638-4.844 33.118-12.517 40.968-18.1.399-.284.958-.285 1.358 0 7.849 5.583 21.327 13.255 40.965 18.1 25.614 6.318 53.036-2.352 70.258-22.354 23.381-27.203 36.029-61.923 35.615-97.764-.127-10.981-1.49-21.874-4.041-32.506h17.874c.79 3.74 1.442 7.513 1.973 11.306.005.038.004.075.01.113 2.965 20.758 1.819 42.413-3.21 62.774-4.219 17.069-11.162 33.407-20.671 48.424-2.216 3.499-1.176 8.133 2.324 10.349s8.133 1.175 10.349-2.324c9.234-14.583 16.253-30.305 20.932-46.714 22.078-.329 39.94-18.38 39.94-40.535 0-20.748-15.666-37.896-35.788-40.262-.183-1.045-.368-2.089-.569-3.13h26.478c10.027 0 18.185-8.157 18.185-18.185v-20.15c-.001-10.027-8.158-18.185-18.185-18.185zm-401.115 99.911c0-11.733 7.951-21.645 18.747-24.631-.104 1.189-.193 2.38-.274 3.572-1.04 15.44-.112 31.048 2.793 46.25-12.055-2.045-21.266-12.562-21.266-25.191zm246.865 176.067c.646-.485 14.819-10.894 15.078-11.079 10.423 7.086 38.428 29.439 41.806 66.918h-20.769v-20.917c0-4.142-3.358-7.5-7.5-7.5s-7.5 3.358-7.5 7.5v20.917h-21.115zm-82.746 11.438 15.625 11.994c5.127 3.936 11.224 5.971 17.366 6.151 6.751.198 13.766-2.028 19.138-6.151l15.616-11.986v44.393h-67.746v-44.401zm-15.033-11.527c.011.008.022.017.033.025v55.903h-21.104v-20.917c0-4.142-3.358-7.5-7.5-7.5s-7.5 3.358-7.5 7.5v20.917h-20.767c3.396-37.34 31.438-59.812 41.835-66.925 5.291 3.76 10.246 7.391 15.003 10.997zm227.085-159.621c.005-.033.01-.066.014-.1 1.887-13.505 2.254-27.3 1.068-40.886 10.794 2.987 18.741 12.897 18.741 24.629 0 12.637-9.223 23.161-21.29 25.195.562-2.93 1.05-5.877 1.467-8.838zm-339.288-245.106c-1.456-11.16 7.511-21.345 18.738-21.345h284.752c11.244 0 20.19 10.212 18.738 21.345l-10.228 78.397h-220.735c-4.142 0-7.5 3.358-7.5 7.5 0 4.007 3.494 7.5 7.5 7.5h218.778l-4.623 35.441h-288.612l-4.623-35.441h49.08c4.027 0 7.5-3.48 7.5-7.5 0-4.142-3.358-7.5-7.5-7.5h-51.037s-10.214-78.289-10.228-78.397zm261.64 305.85c-13.65 15.882-34.837 22.613-55.289 17.568-18.259-4.504-30.307-11.807-35.863-15.76-2.804-1.994-6.088-2.991-9.374-2.991-3.284 0-6.57.997-9.373 2.991-5.557 3.953-17.606 11.256-35.866 15.76-20.569 5.074-41.92-1.854-55.726-18.082-20.353-23.924-31.562-54.374-31.562-85.74 0-11.617 1.508-23.108 4.488-34.239h256.048c2.866 10.645 4.381 21.612 4.509 32.679.372 32.192-10.99 63.378-31.992 87.814zm105.776-138.677c0 1.756-1.429 3.185-3.185 3.185h-406.234c-1.756 0-3.185-1.429-3.185-3.185v-20.15c0-1.756 1.429-3.185 3.185-3.185h406.235c1.756 0 3.185 1.429 3.185 3.185v20.15z"/></svg>