<svg xmlns="http://www.w3.org/2000/svg" data-name="Слой 1" viewBox="0 0 128 128" x="0px" y="0px" fill="#da1f3d"><path d="M82,128H46a2,2,0,0,1-2-2.25l10.22-80a2,2,0,0,1,2-1.75H71.78a2,2,0,0,1,2,1.75l10.22,80A2,2,0,0,1,82,128Zm-33.73-4H79.73L70,48H58Z"/><path d="M22.75,104.56a2,2,0,0,1-1.55-3.27L103.6.73a2,2,0,1,1,3.09,2.54L24.3,103.82A2,2,0,0,1,22.75,104.56Z"/><path d="M22.76,104.56a2,2,0,0,1-1.27-.45L12.21,96.5A2,2,0,0,1,12,93.61l28.8-32a2,2,0,0,1,2.75-.21l7.74,6.34a2,2,0,0,1,.28,2.81L24.3,103.82a2,2,0,0,1-1.35.72Zm-6.39-9.82,6.11,5L47.19,69.58l-4.71-3.86Z"/><path d="M85.63,43.6a2,2,0,0,1-1.27-.45l-7.73-6.34A2,2,0,0,1,76.35,34L103.6.73a2,2,0,0,1,2.81-.28l9.28,7.61a2,2,0,0,1,.22,2.88l-28.8,32A2,2,0,0,1,85.63,43.6ZM80.71,35l4.71,3.86,26.12-29-6.11-5Z"/><path d="M114.28,95.67a2,2,0,0,1-1.27-.45L12.45,12.83A2,2,0,0,1,15,9.74L115.55,92.13a2,2,0,0,1-1.27,3.55Z"/><path d="M47,40.53a2,2,0,0,1-1.27-.45L12.45,12.83A2,2,0,0,1,12.17,10L19.78.73A2,2,0,0,1,21.18,0a2,2,0,0,1,1.49.51l32,28.8a2,2,0,0,1,.21,2.75L48.53,39.8A2,2,0,0,1,47,40.53ZM16.54,11,46.7,35.72,50.56,31l-29-26.12Z"/><path d="M106.67,105a2,2,0,0,1-1.34-.51l-32-28.8a2,2,0,0,1-.21-2.75l6.34-7.74a2,2,0,0,1,2.81-.28l33.26,27.25a2,2,0,0,1,.28,2.81l-7.61,9.28a2,2,0,0,1-1.4.73Zm-29.24-31,29,26.12,5-6.11L81.3,69.24Z"/><path d="M98,128H30a2,2,0,0,1,0-4H98a2,2,0,0,1,0,4Z"/></svg>