<?xml version="1.0" encoding="UTF-8"?>
<svg xmlns="http://www.w3.org/2000/svg" xmlns:xlink="http://www.w3.org/1999/xlink" width="500pt" height="500pt" viewBox="0 0 500 500" version="1.1">
<g id="surface1">
<path style=" stroke:none;fill-rule:nonzero;fill:#da1f3d;fill-opacity:1;" d="M 248.015625 19.53125 C 243.054688 19.53125 238.054688 20.808594 233.640625 23.40625 C 233.5625 23.40625 233.523438 23.445313 233.445313 23.484375 C 233.445313 23.484375 181.246094 55.261719 128.96875 87.773438 C 102.847656 104.050781 76.730469 120.480469 56.964844 133.308594 C 47.121094 139.742188 38.867188 145.246094 32.941406 149.429688 C 29.957031 151.5625 27.554688 153.304688 25.652344 154.855469 C 24.722656 155.628906 23.910156 156.328125 23.019531 157.257813 C 22.554688 157.722656 22.089844 158.226563 21.46875 159.117188 C 20.886719 160.007813 19.726563 161.132813 19.53125 164.699219 C 19.183594 170.898438 21.003906 171.207031 21.933594 172.679688 C 22.824219 174.152344 23.871094 175.472656 25.074219 177.019531 C 27.515625 180.042969 30.691406 183.648438 34.488281 187.753906 C 35.847656 189.191406 37.859375 191.203125 39.371094 192.792969 C 39.371094 225.695313 39.449219 294.441406 39.488281 310.328125 C 33.480469 313.894531 29.761719 320.367188 29.761719 327.382813 C 29.761719 329.667969 30.1875 331.953125 30.964844 334.125 C 24.257813 339.550781 19.839844 347.648438 19.839844 356.832031 C 19.839844 368.535156 25.925781 378.496094 31.195313 387.253906 C 36.464844 396.050781 41.738281 402.871094 41.738281 402.871094 C 43.597656 405.3125 46.503906 406.746094 49.5625 406.746094 C 52.625 406.746094 55.53125 405.351563 57.429688 402.949219 C 57.429688 402.949219 62.703125 396.207031 68.011719 387.484375 C 73.320313 378.726563 79.363281 368.652344 79.363281 356.832031 C 79.363281 347.648438 74.949219 339.550781 68.242188 334.125 C 69.019531 331.953125 69.445313 329.667969 69.445313 327.382813 C 69.445313 320.484375 65.839844 314.089844 59.988281 310.484375 C 59.988281 297.617188 59.910156 251.96875 59.871094 213.953125 C 60.648438 214.726563 61.269531 215.425781 62.082031 216.199219 C 80.488281 234.644531 96.144531 249.683594 98.894531 252.355469 C 88.9375 257.625 79.363281 270.144531 79.363281 289.90625 C 79.363281 310.253906 91.960938 329.589844 111.644531 335.171875 C 124.316406 367.296875 140.4375 401.011719 161.792969 427.671875 C 183.726563 455.070313 211.9375 475.453125 246.347656 476.074219 C 246.890625 476.152344 247.394531 476.191406 247.9375 476.191406 C 247.9375 476.191406 247.976563 476.191406 247.976563 476.191406 C 248.015625 476.191406 248.015625 476.191406 248.054688 476.191406 C 248.09375 476.191406 248.132813 476.191406 248.171875 476.191406 C 248.558594 476.191406 248.984375 476.152344 249.410156 476.074219 C 283.9375 475.570313 312.230469 455.148438 334.238281 427.671875 C 355.59375 401.011719 371.714844 367.296875 384.386719 335.171875 C 404.070313 329.589844 416.667969 310.253906 416.667969 289.90625 C 416.667969 270.144531 407.09375 257.625 397.136719 252.355469 C 399.886719 249.683594 415.542969 234.644531 433.988281 216.199219 C 443.949219 206.203125 453.945313 195.972656 461.542969 187.753906 C 465.339844 183.648438 468.515625 180.042969 470.957031 177.019531 C 472.160156 175.472656 473.207031 174.152344 474.136719 172.679688 C 475.027344 171.207031 476.847656 170.898438 476.5 164.699219 C 476.308594 161.09375 475.144531 159.96875 474.523438 159.078125 C 473.941406 158.226563 473.476563 157.722656 473.011719 157.257813 C 472.121094 156.328125 471.308594 155.628906 470.339844 154.855469 C 468.480469 153.304688 466.074219 151.5625 463.09375 149.429688 C 457.164063 145.246094 448.910156 139.742188 439.027344 133.308594 C 419.300781 120.480469 393.183594 104.050781 367.0625 87.773438 C 314.785156 55.261719 262.585938 23.484375 262.585938 23.484375 C 262.507813 23.445313 262.46875 23.40625 262.394531 23.40625 C 257.976563 20.808594 252.976563 19.53125 248.015625 19.53125 Z M 248.015625 39.992188 C 249.410156 39.992188 250.804688 40.378906 252.085938 41.117188 C 252.277344 41.234375 304.167969 72.777344 356.210938 105.175781 C 382.292969 121.410156 408.375 137.84375 427.867188 150.515625 C 437.632813 156.871094 445.730469 162.296875 451.273438 166.171875 C 451.816406 166.558594 451.96875 166.714844 452.433594 167.0625 C 450.691406 169.117188 449.023438 171.09375 446.46875 173.84375 C 439.21875 181.710938 429.378906 191.785156 419.457031 201.707031 C 403.375 217.828125 392.71875 228.058594 387.214844 233.328125 L 387.214844 188.492188 C 387.214844 184.925781 385.394531 181.632813 382.332031 179.773438 C 382.332031 179.773438 330.753906 148.5 248.015625 148.5 C 165.28125 148.5 113.699219 179.773438 113.699219 179.773438 C 110.636719 181.632813 108.816406 184.925781 108.816406 188.492188 L 108.816406 233.328125 C 103.3125 228.058594 92.65625 217.828125 76.574219 201.707031 C 69.832031 195.003906 64.097656 188.957031 58.207031 182.796875 C 57.507813 181.671875 56.539063 180.703125 55.453125 179.964844 C 53.632813 178.027344 51.113281 175.585938 49.527344 173.882813 C 47.007813 171.09375 45.339844 169.078125 43.558594 167.0625 C 44.0625 166.675781 44.214844 166.558594 44.757813 166.171875 C 50.300781 162.257813 58.398438 156.832031 68.164063 150.515625 C 87.65625 137.804688 113.738281 121.410156 139.820313 105.175781 C 191.863281 72.777344 243.753906 41.234375 243.945313 41.117188 C 245.226563 40.378906 246.621094 39.992188 248.015625 39.992188 Z M 248.015625 168.960938 C 319.863281 168.960938 360.4375 191.476563 366.753906 195.117188 L 366.753906 234.53125 C 351.136719 229.335938 312.886719 217.945313 248.015625 217.945313 C 183.144531 217.945313 144.894531 229.335938 129.277344 234.53125 L 129.277344 195.117188 C 135.59375 191.476563 176.167969 168.960938 248.015625 168.960938 Z M 248.015625 238.40625 C 311.414063 238.40625 353.539063 250.84375 367.0625 255.457031 L 367.0625 268.980469 L 378.070313 267.820313 C 378.070313 267.820313 382.953125 267.429688 387.523438 269.679688 C 392.136719 271.886719 396.824219 275.105469 396.824219 289.90625 C 396.824219 303.820313 387.835938 316.296875 375.976563 317.5 L 369.890625 318.117188 L 367.722656 323.816406 C 355.242188 356.136719 338.890625 390.082031 318.738281 415.273438 C 298.585938 440.421875 275.492188 456.347656 248.054688 456.347656 C 248.015625 456.347656 248.015625 456.347656 247.976563 456.347656 C 220.539063 456.347656 197.445313 440.421875 177.292969 415.273438 C 157.140625 390.082031 140.789063 356.136719 128.308594 323.816406 L 126.140625 318.117188 L 120.054688 317.5 C 108.195313 316.296875 99.207031 303.820313 99.207031 289.90625 C 99.207031 275.105469 103.894531 271.886719 108.507813 269.679688 C 113.078125 267.429688 117.960938 267.820313 117.960938 267.820313 L 128.96875 268.980469 L 128.96875 255.457031 C 142.492188 250.84375 184.617188 238.40625 248.015625 238.40625 Z M 49.601563 347.222656 C 55.300781 347.222656 59.523438 351.523438 59.523438 356.832031 C 59.523438 359.660156 55.648438 369.542969 51.035156 377.140625 C 50.339844 378.300781 50.339844 378.148438 49.640625 379.191406 C 48.945313 378.070313 48.90625 378.222656 48.167969 377.023438 C 43.519531 369.351563 39.683594 359.273438 39.683594 356.832031 C 39.683594 351.523438 43.90625 347.222656 49.601563 347.222656 Z "/>
</g>
</svg>
