<svg xmlns="http://www.w3.org/2000/svg" xmlns:xlink="http://www.w3.org/1999/xlink" width="817" height="924" viewBox="0 0 817 924"><defs><style>.a,.f,.g{fill:none;}.b{fill:#fff;stroke:#003c71;}.b,.g{stroke-width:5px;}.c{fill:#da1f3d;font-size:600px;font-family:OpenSans-Bold, Open Sans;font-weight:700;letter-spacing:-0.087em;}.d{clip-path:url(#a);}.e{fill:#003c71;}.f,.g{stroke:#da1f3d;}.f{stroke-width:8px;}.h{stroke:none;}</style><clipPath id="a"><rect class="a" width="50.776" height="11.218"/></clipPath></defs><g transform="translate(83 -164)"><g class="b" transform="translate(207 483)"><rect class="h" width="277" height="215"/><rect class="a" x="2.5" y="2.5" width="272" height="210"/></g><text class="c" transform="translate(558 626) rotate(-90)"><tspan x="-461.521" y="0">404</tspan></text><g transform="translate(35 -71)"><g class="b" transform="translate(172 483)"><rect class="h" width="277" height="214.869"/><rect class="a" x="2.5" y="2.5" width="272" height="209.869"/></g><g class="b" transform="translate(172 483)"><rect class="h" width="277" height="31.065"/><rect class="a" x="2.5" y="2.5" width="272" height="26.065"/></g><g class="d" transform="translate(383.417 493.355)"><g transform="translate(-413 -494)"><circle class="e" cx="5" cy="5" r="5" transform="translate(413 494)"/></g><g transform="translate(-393 -494)"><circle class="e" cx="5" cy="5" r="5" transform="translate(413 494)"/></g><g transform="translate(-373 -494)"><circle class="e" cx="5" cy="5" r="5" transform="translate(413 494)"/></g></g><g transform="translate(265.628 562.861)"><g transform="translate(5.178 0)"><line class="f" x2="18.121" y2="18.121"/><line class="f" x1="18.121" y2="18.121"/><g transform="translate(61.699)"><line class="f" x2="18.121" y2="18.121"/><line class="f" x1="18.121" y2="18.121"/></g></g><path class="g" d="M0-2.119s11.527-13.34,45.3-13.34S89.745-2.119,89.745-2.119" transform="translate(0 77.194)"/></g></g></g></svg>