<svg xmlns="http://www.w3.org/2000/svg" xmlns:xlink="http://www.w3.org/1999/xlink" width="264" height="59" viewBox="0 0 264 59"><defs><style>.a{fill:#fff;stroke:#fff;}.b{clip-path:url(#a);}.c,.d{fill:#fff;}.c{fill-rule:evenodd;}.e{fill:#fff;}</style><clipPath id="a"><rect class="a" width="264" height="59" transform="translate(68 248)"/></clipPath></defs><g class="b" transform="translate(-68 -248)"><g transform="translate(64.297 247.985)"><path class="c" d="M164.312,3.673V56.358h1.209V3.673Z"/><path class="d" d="M125.516,3.673c-14.312,0-22.081,7.572-24.348,15.506l-4.655,17.4-.076.257c-1.315,4.73-1.36,8.887,0,12.151,1.935,4.61,6.725,7.39,14.8,7.406,13.965,0,22.141-4.987,25.406-16.413l1.345-4.7H124.217l-1.1,4.292a7.319,7.319,0,0,1-6.892,5.275c-5.335,0-6.015-3.461-4.927-7.254l5.033-18.015c1.632-4.685,4.7-5.668,7.224-5.668,3.884,0,5.834,2.872,5.078,5.547l-1.028,3.96h13.617L142.7,17.94c2.267-7.874-5.093-14.267-17.184-14.267"/><path class="d" d="M32.176,38.3h-4.02l4.02-7.209,2.645-4.746L36.2,38.3Zm0-33.234H29.924L3.7,55.33H18.71L22.474,48.7H36.907l.7,6.635H51.793L48,5.063Z"/><path class="d" d="M79.95,39.537a7.333,7.333,0,0,1-6.892,5.275c-5.335,0-6.015-3.461-4.927-7.254l5.033-18.015c1.632-4.685,4.7-5.668,7.224-5.668,3.884,0,5.834,2.872,5.078,5.547l-1.028,3.96H98.071l.877-3.234.6-2.237a9.148,9.148,0,0,0-.6-6.877c-2.282-4.4-8.343-7.39-16.594-7.39-14.312,0-22.081,7.572-24.348,15.506l-4.67,17.4c-3.31,11.562.846,19.8,14.72,19.8,13.965,0,22.141-4.987,25.406-16.413l1.345-4.7H81.038L79.95,39.537Z"/><path class="e" d="M188.841,14.343h.982l2.358,5.411h-1.345l-.469-1.149h-2.1l-.453,1.149H186.5l2.343-5.411Zm.453,1.572-.65,1.678h1.33l-.68-1.678Z"/><path class="e" d="M192.6,14.343h1.814l1.239,3.537h.015l1.254-3.537h1.8v5.411h-1.194V15.6h-.015L196.1,19.753h-.907L193.814,15.6H193.8v4.156H192.6Z"/><path class="e" d="M199.753,14.343h3.688v1.1h-2.494v1.013H203.3v1.088h-2.358v1.1h2.63v1.1h-3.824Z"/><path class="e" d="M204.408,14.343h2.1a4.469,4.469,0,0,1,.786.076,1.794,1.794,0,0,1,.65.272,1.281,1.281,0,0,1,.438.5,1.729,1.729,0,0,1,.166.786,1.648,1.648,0,0,1-.3.982,1.327,1.327,0,0,1-.877.514l1.375,2.282H207.31l-1.134-2.161h-.589v2.161h-1.194V14.343Zm1.194,2.237h.7a2.793,2.793,0,0,0,.348-.015.7.7,0,0,0,.317-.076.728.728,0,0,0,.242-.181.562.562,0,0,0,.091-.348.575.575,0,0,0-.091-.332.488.488,0,0,0-.212-.181.887.887,0,0,0-.3-.091,2.449,2.449,0,0,0-.332-.015h-.786v1.239Z"/><path class="e" d="M209.244,14.343h1.194v5.411h-1.194Z"/><path class="e" d="M214.942,15.748a1.061,1.061,0,0,0-.438-.332,1.413,1.413,0,0,0-.589-.121,1.382,1.382,0,0,0-.62.136,1.516,1.516,0,0,0-.5.363,1.717,1.717,0,0,0-.332.559,2.1,2.1,0,0,0-.121.7,2.032,2.032,0,0,0,.121.7,1.556,1.556,0,0,0,.8.907,1.363,1.363,0,0,0,.6.136,1.291,1.291,0,0,0,.65-.151,1.265,1.265,0,0,0,.469-.423l1,.741a2.016,2.016,0,0,1-.877.71,2.7,2.7,0,0,1-1.088.227,3.189,3.189,0,0,1-1.164-.2,2.509,2.509,0,0,1-.922-.574,2.391,2.391,0,0,1-.6-.907,3.272,3.272,0,0,1-.212-1.179,3.213,3.213,0,0,1,.212-1.179,2.575,2.575,0,0,1,1.526-1.481,3.245,3.245,0,0,1,1.164-.2,2.746,2.746,0,0,1,.484.045,2.541,2.541,0,0,1,.484.136,2.748,2.748,0,0,1,.469.242,1.857,1.857,0,0,1,.393.378l-.907.771Z"/><path class="e" d="M218.312,14.343h.982l2.358,5.411h-1.345l-.469-1.149h-2.1l-.453,1.149H215.97l2.343-5.411Zm.453,1.572-.665,1.678h1.33l-.665-1.678Z"/><path class="e" d="M222.076,14.343h1.632l2.3,3.763h.015V14.343h1.194v5.411h-1.557L223.285,15.9h-.015v3.854h-1.194Z"/><path class="d" d="M233.894,15.748a1.061,1.061,0,0,0-.438-.332,1.412,1.412,0,0,0-.589-.121,1.382,1.382,0,0,0-.62.136,1.516,1.516,0,0,0-.5.363,2.03,2.03,0,0,0-.332.559,2.1,2.1,0,0,0-.121.7,2.032,2.032,0,0,0,.121.7,1.556,1.556,0,0,0,.8.907,1.363,1.363,0,0,0,.6.136,1.291,1.291,0,0,0,.65-.151,1.265,1.265,0,0,0,.469-.423l1,.741a2.016,2.016,0,0,1-.877.71,2.7,2.7,0,0,1-1.088.227,3.329,3.329,0,0,1-1.179-.2,2.509,2.509,0,0,1-.922-.574,2.391,2.391,0,0,1-.6-.907,2.928,2.928,0,0,1-.212-1.179,3.213,3.213,0,0,1,.212-1.179,2.575,2.575,0,0,1,1.526-1.481,3.329,3.329,0,0,1,1.179-.2,2.745,2.745,0,0,1,.484.045,2.541,2.541,0,0,1,.484.136,2.748,2.748,0,0,1,.469.242,1.856,1.856,0,0,1,.393.378l-.907.771Z"/><path class="d" d="M235.466,14.343h1.194v2.025h2.327V14.343h1.179v5.411h-1.179V17.411H236.66v2.343h-1.194Z"/><path class="d" d="M242.947,14.343h.982l2.358,5.411h-1.345l-.469-1.149h-2.1l-.453,1.149H240.6l2.343-5.411Zm.453,1.572-.65,1.678h1.33l-.68-1.678Z"/><path class="d" d="M246.71,14.343h1.8l1.254,3.537h.015l1.254-3.537h1.8v5.411h-1.194V15.6h-.015L250.2,19.753h-.907L247.919,15.6H247.9v4.156H246.71Z"/><path class="d" d="M253.814,14.343h2.025a5.787,5.787,0,0,1,.71.045,1.648,1.648,0,0,1,.635.2,1.116,1.116,0,0,1,.453.423,1.237,1.237,0,0,1,.181.71,1.143,1.143,0,0,1-.257.756,1.44,1.44,0,0,1-.68.438v.015a1.514,1.514,0,0,1,.484.151,1.193,1.193,0,0,1,.378.287,1.218,1.218,0,0,1,.242.408,1.309,1.309,0,0,1,.091.484,1.27,1.27,0,0,1-.181.71,1.389,1.389,0,0,1-.469.469,2.247,2.247,0,0,1-.65.257,3.941,3.941,0,0,1-.725.076h-2.222V14.343Zm1.194,2.161h.861a1.666,1.666,0,0,0,.272-.03.7.7,0,0,0,.242-.106.384.384,0,0,0,.166-.181.517.517,0,0,0,.06-.272.483.483,0,0,0-.076-.272.385.385,0,0,0-.181-.166.744.744,0,0,0-.257-.091,1.852,1.852,0,0,0-.287-.03h-.816V16.5Zm0,2.237h1.073a1.665,1.665,0,0,0,.272-.03.77.77,0,0,0,.257-.106.566.566,0,0,0,.181-.2.6.6,0,0,0,.076-.3.48.48,0,0,0-.091-.3.6.6,0,0,0-.242-.181.7.7,0,0,0-.317-.076,2.255,2.255,0,0,0-.317-.03h-.907v1.224Z"/><path class="d" d="M258.7,14.343h3.688v1.1h-2.494v1.013h2.358v1.088h-2.358v1.1h2.63v1.1H258.7Z"/><path class="d" d="M263.365,14.343h2.1a4.469,4.469,0,0,1,.786.076,1.794,1.794,0,0,1,.65.272,1.281,1.281,0,0,1,.438.5,1.729,1.729,0,0,1,.166.786,1.648,1.648,0,0,1-.3.982,1.327,1.327,0,0,1-.877.514l1.375,2.282h-1.436l-1.133-2.161h-.589v2.161H263.35V14.343Zm1.179,2.237h.71a2.793,2.793,0,0,0,.348-.015.7.7,0,0,0,.317-.076.727.727,0,0,0,.242-.181.561.561,0,0,0,.091-.348.575.575,0,0,0-.091-.332.488.488,0,0,0-.212-.181.887.887,0,0,0-.3-.091,2.449,2.449,0,0,0-.332-.015h-.786v1.239Z"/><path class="d" d="M186.771,29.743A2.929,2.929,0,0,1,187,28.564a2.575,2.575,0,0,1,1.526-1.481,3.245,3.245,0,0,1,1.164-.2,3.189,3.189,0,0,1,1.164.2,2.509,2.509,0,0,1,.922.574,2.392,2.392,0,0,1,.6.907,2.928,2.928,0,0,1,.212,1.179,3.213,3.213,0,0,1-.212,1.179,2.575,2.575,0,0,1-1.526,1.481,3.245,3.245,0,0,1-1.164.2,3.189,3.189,0,0,1-1.164-.2,2.509,2.509,0,0,1-.922-.574,2.392,2.392,0,0,1-.6-.907,2.694,2.694,0,0,1-.227-1.179Zm1.239,0a2.032,2.032,0,0,0,.121.7,1.462,1.462,0,0,0,.348.544,1.647,1.647,0,0,0,.529.363,1.845,1.845,0,0,0,1.39,0,1.647,1.647,0,0,0,.529-.363,1.429,1.429,0,0,0,.332-.544,2.059,2.059,0,0,0,0-1.39,1.891,1.891,0,0,0-.332-.559,1.831,1.831,0,0,0-.529-.363,1.845,1.845,0,0,0-1.39,0,1.647,1.647,0,0,0-.529.363,1.6,1.6,0,0,0-.348.559,1.773,1.773,0,0,0-.121.7Z"/><path class="d" d="M193.345,27.038h3.642v1.1h-2.448v1.1h2.267v1.1h-2.267v2.1h-1.194Z"/><path class="d" d="M203.411,28.443a1.061,1.061,0,0,0-.438-.332,1.413,1.413,0,0,0-.589-.121,1.382,1.382,0,0,0-.62.136,1.516,1.516,0,0,0-.5.363,1.572,1.572,0,0,0-.332.559,2.1,2.1,0,0,0-.121.7,2.032,2.032,0,0,0,.121.7,1.429,1.429,0,0,0,.332.544,1.626,1.626,0,0,0,.484.363,1.363,1.363,0,0,0,.6.136,1.291,1.291,0,0,0,.65-.151,1.265,1.265,0,0,0,.469-.423l1,.741a2.016,2.016,0,0,1-.877.71,2.7,2.7,0,0,1-1.088.227,3.189,3.189,0,0,1-1.164-.2,2.509,2.509,0,0,1-.922-.574,2.392,2.392,0,0,1-.6-.907,2.928,2.928,0,0,1-.212-1.179,3.213,3.213,0,0,1,.212-1.179,2.575,2.575,0,0,1,1.526-1.481,3.246,3.246,0,0,1,1.164-.2,2.745,2.745,0,0,1,.484.045,2.541,2.541,0,0,1,.484.136,2.748,2.748,0,0,1,.469.242,1.856,1.856,0,0,1,.393.378l-.922.771Z"/><path class="d" d="M204.71,29.743a3.213,3.213,0,0,1,.212-1.179,2.575,2.575,0,0,1,1.526-1.481,3.245,3.245,0,0,1,1.164-.2,3.189,3.189,0,0,1,1.164.2,2.509,2.509,0,0,1,.922.574,2.391,2.391,0,0,1,.6.907,2.928,2.928,0,0,1,.212,1.179,3.213,3.213,0,0,1-.212,1.179,2.652,2.652,0,0,1-.6.907,2.88,2.88,0,0,1-.922.574,3.245,3.245,0,0,1-1.164.2,3.189,3.189,0,0,1-1.164-.2,2.509,2.509,0,0,1-.922-.574,2.392,2.392,0,0,1-.6-.907,3.213,3.213,0,0,1-.212-1.179Zm1.239,0a2.032,2.032,0,0,0,.121.7,1.646,1.646,0,0,0,.332.544,1.831,1.831,0,0,0,.529.363,1.845,1.845,0,0,0,1.39,0,1.647,1.647,0,0,0,.529-.363,1.679,1.679,0,0,0,.348-.544,2.059,2.059,0,0,0,0-1.39,1.583,1.583,0,0,0-.877-.922,1.845,1.845,0,0,0-1.39,0,1.647,1.647,0,0,0-.529.363,1.38,1.38,0,0,0-.332.559,1.773,1.773,0,0,0-.121.7Z"/><path class="d" d="M211.239,27.038h1.814l1.239,3.537h.015l1.254-3.537h1.8v5.411h-1.194V28.292h-.015l-1.421,4.156h-.907l-1.375-4.156h-.015v4.156h-1.194Z"/><path class="d" d="M218.343,27.038h1.814l1.239,3.537h.015l1.254-3.537h1.8v5.411H223.27V28.292h-.015l-1.421,4.156h-.907l-1.375-4.156h-.015v4.156h-1.194Z"/><path class="d" d="M225.491,27.038h3.688v1.1h-2.494v1.013h2.358v1.088h-2.358v1.1h2.63v1.1h-3.824Z"/><path class="d" d="M230.161,27.038h2.1a4.333,4.333,0,0,1,.786.076,1.794,1.794,0,0,1,.65.272,1.281,1.281,0,0,1,.438.5,1.729,1.729,0,0,1,.166.786,1.648,1.648,0,0,1-.3.982,1.327,1.327,0,0,1-.877.514l1.375,2.282h-1.436l-1.133-2.161h-.589v2.161h-1.194V27.038Zm1.194,2.237h.7a2.793,2.793,0,0,0,.348-.015.7.7,0,0,0,.317-.076.727.727,0,0,0,.242-.181.561.561,0,0,0,.091-.348.72.72,0,0,0-.076-.332.592.592,0,0,0-.212-.181.887.887,0,0,0-.3-.091,2.449,2.449,0,0,0-.333-.015h-.786v1.239Z"/><path class="d" d="M238.534,28.443a1.061,1.061,0,0,0-.438-.332,1.412,1.412,0,0,0-.589-.121,1.382,1.382,0,0,0-.62.136,1.516,1.516,0,0,0-.5.363,1.829,1.829,0,0,0-.333.559,2.1,2.1,0,0,0-.121.7,2.032,2.032,0,0,0,.121.7,1.556,1.556,0,0,0,.8.907,1.363,1.363,0,0,0,.6.136,1.291,1.291,0,0,0,.65-.151,1.394,1.394,0,0,0,.469-.423l1,.741a2.016,2.016,0,0,1-.877.71,2.7,2.7,0,0,1-1.088.227,3.189,3.189,0,0,1-1.164-.2,2.509,2.509,0,0,1-.922-.574,2.391,2.391,0,0,1-.6-.907,2.928,2.928,0,0,1-.212-1.179,3.213,3.213,0,0,1,.212-1.179,2.575,2.575,0,0,1,1.526-1.481,3.245,3.245,0,0,1,1.164-.2,2.745,2.745,0,0,1,.484.045,2.541,2.541,0,0,1,.484.136,2.748,2.748,0,0,1,.469.242,1.557,1.557,0,0,1,.393.378l-.907.771Z"/><path class="d" d="M240.166,27.038h3.673v1.1H241.36v1.013H243.7v1.088H241.36v1.1h2.615v1.1h-3.809Z"/><path class="d" d="M191.622,43.058a2.457,2.457,0,0,1-.151.892,1.759,1.759,0,0,1-.438.7,2.155,2.155,0,0,1-.71.469,3.03,3.03,0,0,1-1.98,0,1.825,1.825,0,0,1-.71-.469,2.087,2.087,0,0,1-.438-.7,2.828,2.828,0,0,1-.151-.892V39.733h1.194v3.28a1.521,1.521,0,0,0,.076.469,1.567,1.567,0,0,0,.227.378,1.107,1.107,0,0,0,.348.242,1.1,1.1,0,0,0,.877,0,1.107,1.107,0,0,0,.348-.242,1.321,1.321,0,0,0,.227-.378,1.521,1.521,0,0,0,.076-.469v-3.28h1.194v3.325Z"/><path class="d" d="M192.65,39.733h1.194v2.252l2.1-2.252h1.572L195.1,42.242l2.615,2.9H196.05l-2.207-2.569v2.569H192.65Z"/><path class="d" d="M198.015,39.733h2.1a4.47,4.47,0,0,1,.786.076,1.794,1.794,0,0,1,.65.272,1.281,1.281,0,0,1,.438.5,1.729,1.729,0,0,1,.166.786,1.57,1.57,0,0,1-.3.967,1.327,1.327,0,0,1-.877.514l1.375,2.282h-1.436l-1.133-2.161h-.589v2.161H198v-5.4Zm1.194,2.237h.71a2.449,2.449,0,0,0,.333-.015.7.7,0,0,0,.317-.076.57.57,0,0,0,.242-.181.562.562,0,0,0,.091-.348.575.575,0,0,0-.091-.332.406.406,0,0,0-.212-.181.887.887,0,0,0-.3-.091,2.471,2.471,0,0,0-.333-.03h-.786V41.97Z"/><path class="d" d="M204.635,39.733h.982l2.358,5.411H206.63l-.469-1.149h-2.1l-.453,1.149h-1.315l2.343-5.411ZM205.1,41.3l-.65,1.678h1.315L205.1,41.3Z"/><path class="d" d="M208.4,39.733h1.194v5.411H208.4Z"/><path class="d" d="M210.559,39.733h1.617l2.3,3.763h.015V39.733h1.194v5.411h-1.557l-2.358-3.854h-.015v3.854h-1.194Z"/><path class="d" d="M216.725,39.733H220.4v1.1h-2.479v1.013h2.343v1.088h-2.343v1.1h2.615v1.1h-3.809Z"/></g></g></svg>