<?xml version="1.0" encoding="UTF-8" standalone="no"?>
<!DOCTYPE svg PUBLIC "-//W3C//DTD SVG 1.1//EN" "http://www.w3.org/Graphics/SVG/1.1/DTD/svg11.dtd">
<svg width="100%" height="100%" viewBox="0 0 1277 739" version="1.1" xmlns="http://www.w3.org/2000/svg" xmlns:xlink="http://www.w3.org/1999/xlink" xml:space="preserve" xmlns:serif="http://www.serif.com/" style="fill-rule:evenodd;clip-rule:evenodd;stroke-linejoin:round;stroke-miterlimit:2;">
    <g transform="matrix(1,0,0,1,0,-119.401)">
        <g transform="matrix(1,0,0,1,-28.686,0)">
            <path d="M1236.55,0L1110.06,0L28.686,858.7L155.992,858.374L1236.55,0Z" style="fill:rgb(218,31,61);fill-rule:nonzero;"/>
        </g>
        <g transform="matrix(1,0,0,1,403.013,0)">
            <path d="M73.121,0L775.505,858.7L733.94,858.7L41.01,0L73.121,0Z" style="fill:rgb(0,52,98);fill-rule:nonzero;"/>
        </g>
        <g transform="matrix(1,0,0,1,927.656,337.51)">
            <path d="M348.5,317.44L348.5,244.414L0,521.2L89.489,521.2L348.5,317.44Z" style="fill:rgb(218,31,61);fill-rule:nonzero;"/>
        </g>
        <g transform="matrix(1,0,0,1,194.953,0)">
            <path d="M1081.2,437.177L1081.2,0L0,858.7L553.561,858.374L1081.2,437.177Z" style="fill:rgb(218,31,61);fill-rule:nonzero;"/>
        </g>
        <g transform="matrix(1,0,0,1,946.727,0)">
            <path d="M54.443,0L329.431,336.114L329.431,415.008L0,0L54.443,0Z" style="fill:rgb(0,52,98);fill-rule:nonzero;"/>
        </g>
        <g transform="matrix(1,0,0,1,506.9,0)">
            <path d="M58.072,0L760.619,858.7L696.4,858.7L3.629,0L58.072,0Z" style="fill:rgb(0,52,98);fill-rule:nonzero;"/>
        </g>
        <g transform="matrix(1,0,0,1,811.271,284)">
            <path d="M464.887,242.177L464.887,205.664L0,574.705L46.456,574.542L464.887,242.177Z" style="fill:rgb(218,31,61);fill-rule:nonzero;"/>
        </g>
        <g transform="matrix(1,0,0,1,617.296,0)">
            <path d="M294.059,0L658.859,440.274L658.859,830.016L0,0L294.059,0Z" style="fill:rgb(0,52,98);fill-rule:nonzero;"/>
        </g>
        <g transform="matrix(0.792212,0,0,0.792212,725.296,46.6517)">
            <path d="M58.072,0L760.619,858.7L696.4,858.7L3.629,0L58.072,0Z" style="fill:rgb(218,31,61);fill-rule:nonzero;"/>
        </g>
    </g>
</svg>
