<svg xmlns="http://www.w3.org/2000/svg" xmlns:xlink="http://www.w3.org/1999/xlink" width="1276.158" height="738.512" viewBox="0 0 1276.158 738.512"><defs><style>.a{fill:#fff;stroke:#707070;}.b{clip-path:url(#a);}.c{fill:#da1f3d;}.d{fill:#003462;}.e{fill:#f6fbfe;}</style><clipPath id="a"><rect class="a" width="1276.158" height="738.512" transform="translate(0 70)"/></clipPath></defs><g class="b" transform="translate(0 -70)"><g transform="translate(0 -49.401)"><path class="c" d="M1236.546,0H1110.055L28.686,858.7l127.306-.326Z" transform="translate(-28.686)"/><path class="d" d="M73.121,0,775.505,858.7H733.94L41.01,0Z" transform="translate(403.013)"/><g transform="translate(927.656 581.924)"><path class="c" d="M348.5,317.44V244.414L0,521.2H89.489Z" transform="translate(0 -244.414)"/></g><g transform="translate(194.953)"><path class="c" d="M1081.205,437.177V0L0,858.7l553.561-.326Z"/></g><path class="d" d="M54.443,0,329.431,336.114v78.894L0,0Z" transform="translate(946.727)"/><path class="d" d="M58.072,0,760.619,858.7H696.4L3.629,0Z" transform="translate(506.9)"/><g transform="translate(811.271 489.664)"><path class="c" d="M464.887,242.177V205.664L0,574.705l46.456-.163Z" transform="translate(0 -205.664)"/></g><path class="d" d="M294.059,0l364.8,440.274V830.016L0,0Z" transform="translate(617.296)"/><path class="e" d="M123.708,244.028,86.217,231.8V192.519L63.07,224.3,25.742,212.08l23.147,31.786L25.742,275.651,63.07,263.589l23.147,31.786V256.091Z" transform="translate(1091.161 265.848)"/><path class="e" d="M187.884,158.86l-37.491-12.225V107.351l-23.147,31.786L89.919,126.911,112.9,158.86,89.756,190.646l37.491-12.225,23.147,31.949V170.922Z" transform="translate(874.576 148.24)"/><path class="e" d="M251.8,73.691,214.475,61.466V22.182L191.328,53.968,154,41.743l22.983,31.949-23.146,31.786,37.491-12.062L214.475,125.2V85.917Z" transform="translate(658.086 30.631)"/></g></g></svg>