<svg xmlns="http://www.w3.org/2000/svg" xmlns:xlink="http://www.w3.org/1999/xlink" width="324.654" height="326.491" viewBox="0 0 324.654 326.491"><defs><style>.a{fill:#fff;stroke:#707070;}.b{clip-path:url(#a);}.c{fill:#003462;}.d{fill:#f6fbfe;}</style><clipPath id="a"><rect class="a" width="122.549" height="206.62" transform="translate(248.342 -88.595) rotate(39)"/></clipPath></defs><g class="b" transform="translate(360.845 41.417) rotate(141)"><g transform="translate(119.91 -7.694)"><path class="c" d="M174.73,0,0,213.618H10.34L182.719,0Z" transform="translate(24.29 0)"/><path class="c" d="M68.408,0,0,83.614v19.626L81.952,0Z" transform="translate(0 0)"/><path class="c" d="M174.771,0,0,213.618H15.977L188.315,0Z" transform="translate(2.149 0)"/><path class="c" d="M90.751,0,0,109.526v96.955L163.9,0Z" transform="translate(0 0)"/><path class="d" d="M0,12.814,9.327,9.773V0l5.758,7.907,9.286-3.041-5.758,7.907,5.758,7.907-9.286-3L9.327,25.587V15.815Z" transform="translate(12.692 111.958)"/><path class="d" d="M0,12.814,9.327,9.773V0l5.758,7.907,9.286-3.041-5.718,7.948,5.758,7.907L15.085,17.68,9.327,25.628V15.815Z" transform="translate(52.334 62.913)"/><path class="d" d="M0,12.814,9.286,9.773V0l5.758,7.907L24.33,4.866l-5.718,7.948,5.758,7.907-9.327-3L9.286,25.628V15.855Z" transform="translate(92.062 13.904)"/></g></g></svg>