<svg xmlns="http://www.w3.org/2000/svg" xmlns:xlink="http://www.w3.org/1999/xlink" x="0px" y="0px" viewBox="0 0 1417.3 708.7" style="enable-background:new 0 0 1417.3 708.7;" xml:space="preserve"> <style type="text/css"> .st0{fill:#000;} .st1{fill:#F2776B;} .st2{fill:#79C8CC;} </style> 
	<polygon class="st0" points="591.5,451 591.5,416.9 649.5,416.9 649.5,387 591.5,387 591.5,354 654,354 654,324 550,324 550,480.9 658,480.9 658,451 "></polygon> 
	<polygon class="st0" points="728,451 728,416.9 786,416.9 786,387 728,387 728,354 790.5,354 790.5,324 686.5,324 686.5,480.9 794.5,480.9 794.5,451 "></polygon> 
	<path class="st0" d="M969,354c-7.7-11.2-21.9-19-30.4-22.3c-7.1-2.7-22.1-7.7-48.6-7.7c-23.6,0-67,0-67,0v156.9c0,0,43.4,0,67,0 c23.6,0,38.3-5.7,46.8-9.9c6.8-3.4,17.6-9.5,29.2-22.9c10.6-12.2,15.9-31,15.9-47.9V400C981.9,383.1,976.7,365.1,969,354z M938.6,404.4c0,10.5-4.7,20.1-9.3,27c-4.6,7-13.1,12.9-17.4,14.8s-15.4,4.8-30,4.8c-14.6,0-17.4,0-17.4,0v-97c0,0,2.9,0,17.4,0 c14.6,0,25.7,2.9,30,4.8s13.6,7.1,18.2,14s8.6,17.7,8.6,28.1l0,1.3L938.6,404.4z"></path> 
	<polygon class="st1" points="459.9,108.5 618.6,87.9 396,621.9 321.8,442.1 "></polygon> 
	<polygon class="st2" points="396,621.9 247,621.9 49,142 198,142 "></polygon> 
	<path class="st0" d="M1088,320.9c-55.2,0-87.5,35.4-87.5,81.5c0,49.5,34.6,81.5,87.5,81.5s87.5-32,87.5-81.5 C1175.5,356.4,1143.2,320.9,1088,320.9z M1088,451.9c-26.6,0-44-19.4-44-49.5c0-28,16.3-49.5,44-49.5s44,21.5,44,49.5 C1132,432.5,1114.6,451.9,1088,451.9z"></path> 
	<path class="st0" d="M1281.5,320.9c-55.2,0-87.5,35.4-87.5,81.5c0,49.5,34.6,81.5,87.5,81.5s87.5-32,87.5-81.5 C1369,356.4,1336.7,320.9,1281.5,320.9z M1281.5,451.9c-26.6,0-44-19.4-44-49.5c0-28,16.3-49.5,44-49.5s44,21.5,44,49.5 C1325.5,432.5,1308.1,451.9,1281.5,451.9z"></path> 
</svg> 