<svg xmlns="http://www.w3.org/2000/svg" xmlns:xlink="http://www.w3.org/1999/xlink" width="45" height="45" viewBox="0 0 45 45"><defs><style>.a{fill:#fff;}.a,.c{stroke:#fff;stroke-width:1.5px;}.b{clip-path:url(#a);}.c{fill:none;stroke-miterlimit:10;}</style><clipPath id="a"><rect class="a" width="45" height="45" transform="translate(1258 20311)"/></clipPath></defs><g class="b" transform="translate(-1258 -20311)"><g transform="translate(1261.073 20305.363)"><path class="c" d="M36.751,35.844" transform="translate(-1 8)"/><line class="c" transform="translate(36.205 43.844)"/><path class="c" d="M12.205,34.982H4.083A1.627,1.627,0,0,1,2.45,33.349V19.918a1.627,1.627,0,0,1,1.633-1.633h8.122a1.627,1.627,0,0,1,1.633,1.633v13.43A1.656,1.656,0,0,1,12.205,34.982Z" transform="translate(-1 8)"/><path class="c" d="M35.526,16.924H27.5l-.181-.181-.181.181h-.091a11.808,11.808,0,0,0,.363-1.543,18.084,18.084,0,0,0,.136-6.488c-.408-2.042-2.314-2.5-3.04-2.949s-1.815.817-1.815.817-.045.454.091,3.675-6.715,9.71-6.715,9.71H15.88s-.227,11.525,0,12.3c.272.771,2.4,1.225,2.4,1.225H33.122a5,5,0,0,0,2.269-1.5,2.339,2.339,0,0,0,.318-2.223,3.855,3.855,0,0,0,1.27-1.407,5.4,5.4,0,0,0,0-2.632,3.01,3.01,0,0,0,1.044-1.452,4.616,4.616,0,0,0-.363-2.269,4.178,4.178,0,0,0,.726-2.269C38.612,18.149,35.526,16.924,35.526,16.924Z" transform="translate(-1 8)"/></g></g></svg>