<svg xmlns="http://www.w3.org/2000/svg" xmlns:xlink="http://www.w3.org/1999/xlink" width="45" height="45" viewBox="0 0 45 45"><defs><style>.a{fill:#fff;}.b{clip-path:url(#a);}</style><clipPath id="a"><rect class="a" width="45" height="45" transform="translate(1276 18494.986)"/></clipPath></defs><g class="b" transform="translate(-1276 -18494.986)"><g transform="translate(1281.938 18492.717)"><path class="a" d="M29.624,2.046a5.558,5.558,0,0,0-3.946,1.636l-6.536,6.532a5.59,5.59,0,0,0,0,7.9l.407.407L18.5,19.569l-.405-.358a5.583,5.583,0,0,0-7.623.252L3.935,26a5.582,5.582,0,0,0,0,7.9l2.178,2.178a5.582,5.582,0,0,0,7.9,0l6.536-6.534a5.59,5.59,0,0,0,0-7.9l-.7-.7,1.074-1.062.405.405a5.587,5.587,0,0,0,7.9,0l6.534-6.536a5.582,5.582,0,0,0,0-7.9L33.573,3.681a5.557,5.557,0,0,0-3.949-1.636Zm0,1.927a3.654,3.654,0,0,1,2.586,1.071l2.178,2.178a3.657,3.657,0,0,1,0,5.171l-.169.169h0l-6.366,6.366a3.653,3.653,0,0,1-5.169,0l-.407-.407,5.252-5.252L26.167,11.9l-5.252,5.252-.407-.407a3.656,3.656,0,0,1,0-5.171l6.534-6.534a3.651,3.651,0,0,1,2.586-1.071ZM14.413,19.759a3.648,3.648,0,0,1,2.221.754l.522.4-4.808,4.808,1.366,1.363,4.768-4.768.7.693a3.656,3.656,0,0,1,0,5.171l-6.534,6.534a3.659,3.659,0,0,1-5.173,0L5.3,32.534a3.656,3.656,0,0,1,0-5.171l6.534-6.534a3.646,3.646,0,0,1,2.583-1.071Z" transform="translate(-2 4.667)"/></g></g></svg>