<svg xmlns="http://www.w3.org/2000/svg" xmlns:xlink="http://www.w3.org/1999/xlink" width="45" height="45" viewBox="0 0 45 45"><defs><style>.a{fill:#fff;}.b{clip-path:url(#a);}</style><clipPath id="a"><rect class="a" width="45" height="45" transform="translate(1271 18490.986)"/></clipPath></defs><g class="b" transform="translate(-1271 -18490.986)"><g transform="translate(1280.849 18491.719)"><g transform="translate(0 0)"><path class="a" d="M38.206,15.244a.651.651,0,0,0-.689.689v1.309H35.382V10.285h0a9.367,9.367,0,1,0-18.733,0h0v6.956H14.513V15.933a.689.689,0,0,0-1.377,0v2h0v4.614a12.9,12.9,0,0,0,10.4,12.6V41H20.919a.6.6,0,0,0-.62.413l-1.1,2.617a.647.647,0,0,0,.069.62.626.626,0,0,0,.551.275h12.4a.85.85,0,0,0,.551-.275.669.669,0,0,0,.069-.62l-1.1-2.617a.662.662,0,0,0-.62-.413H28.495V35.148a12.9,12.9,0,0,0,10.4-12.6V15.933A.741.741,0,0,0,38.206,15.244ZM26.015,2.3a8,8,0,0,1,7.92,7.3H30.354a.689.689,0,1,0,0,1.377H34v1.653h-3.65a.689.689,0,1,0,0,1.377H34v1.722h-3.65a.689.689,0,1,0,0,1.377H34v1.722h-3.65a.689.689,0,0,0,0,1.377H34v1.722h-3.65a.689.689,0,1,0,0,1.377h3.581a7.953,7.953,0,0,1-15.841-.138h3.581a.689.689,0,1,0,0-1.377h-3.65V20.065h3.65a.689.689,0,1,0,0-1.377h-3.65V16.966h3.65a.689.689,0,1,0,0-1.377h-3.65V14h3.65a.689.689,0,1,0,0-1.377h-3.65V10.905h3.65a.689.689,0,1,0,0-1.377H18.095A8,8,0,0,1,26.015,2.3Zm5.1,41.323H20.919l.482-1.24H30.63ZM24.913,41V35.355a11.057,11.057,0,0,0,2.135,0V41Zm1.309-6.956a11.525,11.525,0,0,1-11.708-11.5V18.619h2.135v3.926a9.367,9.367,0,1,0,18.733,0V18.619h2.135v3.926A11.569,11.569,0,0,1,26.222,34.046Z" transform="translate(-13.136 -0.919)"/></g></g></g></svg>