<svg xmlns="http://www.w3.org/2000/svg" xmlns:xlink="http://www.w3.org/1999/xlink" width="45" height="45" viewBox="0 0 45 45"><defs><style>.a{fill:#fff;}.b{clip-path:url(#a);}</style><clipPath id="a"><rect class="a" width="45" height="45" transform="translate(1260 20613)"/></clipPath></defs><g class="b" transform="translate(-1260 -20613)"><g transform="translate(1260.609 20613.955)"><path class="a" d="M26.564,25.58a5.029,5.029,0,0,0-3.893,1.8L15.4,23.612a5.041,5.041,0,0,0,.513-2.267,5.68,5.68,0,0,0-.513-2.267l7.272-3.764a5.1,5.1,0,0,0,3.893,1.8,5.176,5.176,0,1,0,0-10.352,5.268,5.268,0,0,0-5.176,5.261A5.445,5.445,0,0,0,21.73,13.9l-7.4,3.807a5.107,5.107,0,0,0-3.636-1.5,5.176,5.176,0,0,0,.043,10.352,5.107,5.107,0,0,0,3.636-1.5l7.4,3.807a5.445,5.445,0,0,0-.342,1.882,5.176,5.176,0,1,0,5.133-5.176Zm0-16.982A3.465,3.465,0,1,1,23.1,12.02,3.441,3.441,0,0,1,26.564,8.6ZM10.737,24.853A3.465,3.465,0,1,1,14.2,21.388,3.478,3.478,0,0,1,10.737,24.853Zm15.827,9.325a3.465,3.465,0,1,1,3.465-3.465A3.478,3.478,0,0,1,26.564,34.178Z"/></g></g></svg>