<svg xmlns="http://www.w3.org/2000/svg">

    <symbol xmlns="http://www.w3.org/2000/svg" id="boss"  viewBox="0 0 512 512">
        <g>
            <g>
                <path d="M348.975,258.831l-48.343-21.486c-3.078-1.368-5.067-4.428-5.067-7.797v-18.086c12.887-8.573,22.841-21.203,28.045-36.053    c12.932-15.686,20.052-35.39,20.052-55.684c0-31.09-16.27-58.448-40.741-74.016c0.441-2.092,0.661-4.13,0.661-6.145    C303.581,17.749,282.236,0,256,0c-26.236,0-47.581,17.749-47.581,39.564c0,2.016,0.22,4.054,0.661,6.146    c-24.471,15.568-40.741,42.926-40.741,74.016c0,20.294,7.121,39.998,20.052,55.684c5.203,14.85,15.158,27.479,28.044,36.052    v18.086c0,3.368-1.989,6.429-5.067,7.797l-48.343,21.486c-11.381,5.058-18.735,16.374-18.735,28.829v40.485    c0.001,4.142,3.358,7.5,7.501,7.5c4.142,0,7.5-3.358,7.5-7.5V287.66c0-6.533,3.857-12.469,9.827-15.122l48.343-21.486    c1.759-0.782,3.38-1.773,4.859-2.922l24.371,18.278c2.741,2.056,6.025,3.083,9.31,3.083c3.285,0,6.569-1.028,9.309-3.083    l24.371-18.278c1.479,1.149,3.1,2.14,4.859,2.922l48.343,21.486c5.97,2.653,9.827,8.589,9.827,15.122v40.485    c0,4.142,3.357,7.5,7.5,7.5s7.5-3.358,7.5-7.5V287.66C367.71,275.205,360.356,263.889,348.975,258.831z M256,15    c17.416,0,31.684,10.356,32.539,23.33c-10.066-4.039-21.047-6.266-32.539-6.266s-22.473,2.227-32.539,6.265    C224.317,25.356,238.584,15,256,15z M256.308,254.409c-0.18,0.137-0.435,0.137-0.619,0l-25.065-18.799    c0.522-1.951,0.81-3.982,0.81-6.061v-10.47c7.667,2.807,15.941,4.34,24.566,4.34s16.899-1.533,24.564-4.34v10.47    c0,2.079,0.289,4.11,0.81,6.061L256.308,254.409z M255.999,208.418c-31.224,0.001-56.628-25.402-56.628-56.628    c0-2.295,1.075-4.378,2.95-5.714c6.242-4.448,14.833-12.049,20.306-22.996c1.853-3.705,0.351-8.21-3.354-10.062    c-3.704-1.853-8.21-0.35-10.062,3.354c-4.093,8.186-10.74,14.029-15.596,17.489c-2.914,2.077-5.235,4.808-6.824,7.913    c-2.269-7.083-3.453-14.517-3.453-22.048c0-40.066,32.596-72.661,72.661-72.661s72.661,32.596,72.661,72.661    c0,5.848-0.72,11.635-2.102,17.246c-1.595-5.98-4.927-11.446-9.667-15.652c-29.299-25.99-81.79-32.808-84.01-33.085    c-4.102-0.513-7.854,2.4-8.37,6.509c-0.516,4.108,2.398,7.858,6.506,8.375c0.499,0.063,50.127,6.542,75.92,29.422    c3.617,3.209,5.691,7.782,5.691,12.548v6.7C312.628,183.014,287.225,208.418,255.999,208.418z"/>
            </g>
        </g>
        <g>
            <g>
                <path d="M256,280.564c-4.142,0-7.5,3.358-7.5,7.5v40.081c0,4.142,3.358,7.5,7.5,7.5c4.143,0,7.5-3.358,7.5-7.5v-40.081    C263.5,283.922,260.143,280.564,256,280.564z"/>
            </g>
        </g>
        <g>
            <g>
                <path d="M191.871,296.597c-4.142,0-7.5,3.358-7.5,7.5v24.049c0,4.142,3.358,7.5,7.5,7.5c4.142,0,7.5-3.358,7.5-7.5v-24.049    C199.371,299.955,196.013,296.597,191.871,296.597z"/>
            </g>
        </g>
        <g>
            <g>
                <path d="M320.129,296.597c-4.143,0-7.5,3.358-7.5,7.5v24.049c0,4.142,3.357,7.5,7.5,7.5s7.5-3.358,7.5-7.5v-24.049    C327.629,299.955,324.272,296.597,320.129,296.597z"/>
            </g>
        </g>
        <g>
            <g>
                <path d="M256,464.936c-12.976,0-23.532,10.557-23.532,23.532C232.468,501.443,243.024,512,256,512s23.532-10.557,23.532-23.532    C279.532,475.493,268.976,464.936,256,464.936z M256,497c-4.705,0-8.532-3.828-8.532-8.532c0-4.704,3.828-8.532,8.532-8.532    c4.705,0,8.532,3.828,8.532,8.532C264.532,493.172,260.705,497,256,497z"/>
            </g>
        </g>
        <g>
            <g>
                <path d="M103.693,464.936c-12.976,0-23.532,10.557-23.532,23.532c0,12.975,10.557,23.532,23.532,23.532    c12.975,0,23.532-10.557,23.532-23.532C127.225,475.493,116.669,464.936,103.693,464.936z M103.693,497    c-4.705,0-8.532-3.828-8.532-8.532c0-4.704,3.828-8.532,8.532-8.532s8.532,3.828,8.532,8.532    C112.225,493.172,108.398,497,103.693,497z"/>
            </g>
        </g>
        <g>
            <g>
                <path d="M408.307,464.936c-12.976,0-23.532,10.557-23.532,23.532c0,12.975,10.556,23.532,23.532,23.532    s23.532-10.557,23.532-23.532C431.839,475.493,421.282,464.936,408.307,464.936z M408.307,497c-4.705,0-8.532-3.828-8.532-8.532    c0-4.704,3.827-8.532,8.532-8.532s8.532,3.828,8.532,8.532C416.839,493.172,413.012,497,408.307,497z"/>
            </g>
        </g>
        <g>
            <g>
                <path d="M385.78,444.028l-44.339-62.075c-5.909-8.272-15.506-13.211-25.672-13.211H263.5v-8.532c0-4.142-3.357-7.5-7.5-7.5    c-4.142,0-7.5,3.358-7.5,7.5v8.532h-52.27c-10.166,0-19.763,4.939-25.672,13.211l-44.339,62.075    c-2.408,3.371-1.627,8.055,1.744,10.462c3.371,2.408,8.055,1.627,10.462-1.744l44.339-62.075c3.1-4.339,8.133-6.93,13.466-6.93    h52.27v56.629c0,4.142,3.358,7.5,7.5,7.5c4.143,0,7.5-3.358,7.5-7.5v-56.629h52.27c5.332,0,10.366,2.591,13.467,6.93    l44.338,62.075c1.464,2.05,3.77,3.141,6.11,3.141c1.508,0,3.031-0.454,4.353-1.397    C387.407,452.083,388.188,447.399,385.78,444.028z"/>
            </g>
        </g>
    </symbol>
    <symbol xmlns="http://www.w3.org/2000/svg" id="calendar" viewBox="0 0 100 100">
        <path d="M95.1,21.1v63.1c0,1.1-1.1,2.2-2.2,2.2H7.1c-1.1,0-2.2-1.1-2.2-2.2V21.1c0-1.1,1.1-2.2,2.2-2.2h11.4c1.1,0,2.2,1.1,2.2,2.2  c0,1.4-1.1,2.2-2.2,2.2H9.5v58.5h81.2V23.3h-8.3c-1.1,0-2.2-1.1-2.2-2.2c0-1.1,1.1-2.2,2.2-2.2h10.8C94.4,18.9,95.1,20.1,95.1,21.1z  "/>
        <path d="M68.8,21.1L68.8,21.1c0,1.2-1,2.2-2.2,2.2H34.3c-1.2,0-2.2-1-2.2-2.2l0,0c0-1.2,1-2.2,2.2-2.2h32.3  C67.8,18.9,68.8,19.9,68.8,21.1z"/>
        <path d="M26,13.6L26,13.6c1.2,0,2.2,1,2.2,2.2v10.7c0,1.2-1,2.2-2.2,2.2l0,0c-1.2,0-2.2-1-2.2-2.2V15.8C23.8,14.6,24.8,13.6,26,13.6  z"/>
        <path d="M74.5,13.6L74.5,13.6c1.2,0,2.2,1,2.2,2.2v10.7c0,1.2-1,2.2-2.2,2.2l0,0c-1.2,0-2.2-1-2.2-2.2V15.8  C72.4,14.6,73.3,13.6,74.5,13.6z"/>
        <path d="M75.7,42.1h-2.4c-0.6,0-1-0.4-1-1v-2.4c0-0.6,0.4-1,1-1h2.4c0.6,0,1,0.4,1,1v2.4C76.7,41.6,76.3,42.1,75.7,42.1z"/>
        <path d="M63.3,42.1h-2.4c-0.6,0-1-0.4-1-1v-2.4c0-0.6,0.4-1,1-1h2.4c0.6,0,1,0.4,1,1v2.4C64.3,41.6,63.8,42.1,63.3,42.1z"/>
        <path d="M51.6,42.1h-2.4c-0.6,0-1-0.4-1-1v-2.4c0-0.6,0.4-1,1-1h2.4c0.6,0,1,0.4,1,1v2.4C52.6,41.6,52.2,42.1,51.6,42.1z"/>
        <path d="M39.4,42.1H37c-0.6,0-1-0.4-1-1v-2.4c0-0.6,0.4-1,1-1h2.4c0.6,0,1,0.4,1,1v2.4C40.4,41.6,40,42.1,39.4,42.1z"/>
        <path d="M27.2,42.1h-2.4c-0.6,0-1-0.4-1-1v-2.4c0-0.6,0.4-1,1-1h2.4c0.6,0,1,0.4,1,1v2.4C28.2,41.6,27.7,42.1,27.2,42.1z"/>
        <path d="M75.7,54.9h-2.4c-0.6,0-1-0.4-1-1v-2.4c0-0.6,0.4-1,1-1h2.4c0.6,0,1,0.4,1,1v2.4C76.7,54.4,76.3,54.9,75.7,54.9z"/>
        <path d="M63.3,54.9h-2.4c-0.6,0-1-0.4-1-1v-2.4c0-0.6,0.4-1,1-1h2.4c0.6,0,1,0.4,1,1v2.4C64.3,54.4,63.8,54.9,63.3,54.9z"/>
        <path d="M51.6,54.9h-2.4c-0.6,0-1-0.4-1-1v-2.4c0-0.6,0.4-1,1-1h2.4c0.6,0,1,0.4,1,1v2.4C52.6,54.4,52.2,54.9,51.6,54.9z"/>
        <path d="M39.4,54.9H37c-0.6,0-1-0.4-1-1v-2.4c0-0.6,0.4-1,1-1h2.4c0.6,0,1,0.4,1,1v2.4C40.4,54.4,40,54.9,39.4,54.9z"/>
        <path d="M27.2,54.9h-2.4c-0.6,0-1-0.4-1-1v-2.4c0-0.6,0.4-1,1-1h2.4c0.6,0,1,0.4,1,1v2.4C28.2,54.4,27.7,54.9,27.2,54.9z"/>
        <path d="M75.7,67.3h-2.4c-0.6,0-1-0.4-1-1V64c0-0.6,0.4-1,1-1h2.4c0.6,0,1,0.4,1,1v2.4C76.7,66.9,76.3,67.3,75.7,67.3z"/>
        <path d="M63.3,67.3h-2.4c-0.6,0-1-0.4-1-1V64c0-0.6,0.4-1,1-1h2.4c0.6,0,1,0.4,1,1v2.4C64.3,66.9,63.8,67.3,63.3,67.3z"/>
        <path d="M51.6,67.3h-2.4c-0.6,0-1-0.4-1-1V64c0-0.6,0.4-1,1-1h2.4c0.6,0,1,0.4,1,1v2.4C52.6,66.9,52.2,67.3,51.6,67.3z"/>
        <path d="M39.4,67.3H37c-0.6,0-1-0.4-1-1V64c0-0.6,0.4-1,1-1h2.4c0.6,0,1,0.4,1,1v2.4C40.4,66.9,40,67.3,39.4,67.3z"/>
        <path d="M27.2,67.3h-2.4c-0.6,0-1-0.4-1-1V64c0-0.6,0.4-1,1-1h2.4c0.6,0,1,0.4,1,1v2.4C28.2,66.9,27.7,67.3,27.2,67.3z"/>
    </symbol>
    <symbol xmlns="http://www.w3.org/2000/svg" id="checked" viewBox="0 0 26 26">
        <path d="m.3,14c-0.2-0.2-0.3-0.5-0.3-0.7s0.1-0.5 0.3-0.7l1.4-1.4c0.4-0.4 1-0.4 1.4,0l.1,.1 5.5,5.9c0.2,0.2 0.5,0.2 0.7,0l13.4-13.9h0.1v-8.88178e-16c0.4-0.4 1-0.4 1.4,0l1.4,1.4c0.4,0.4 0.4,1 0,1.4l0,0-16,16.6c-0.2,0.2-0.4,0.3-0.7,0.3-0.3,0-0.5-0.1-0.7-0.3l-7.8-8.4-.2-.3z"/>
    </symbol>
    <symbol xmlns="http://www.w3.org/2000/svg" id="clock" viewBox="0 0 382.163 382.163">
        <g>
            <path d="M344.89,215.855c0-50.602-24.567-95.57-62.396-123.618l2.982-5.326l46.258,25.92c1.16,0.65,2.418,0.958,3.659,0.958   c2.626,0,5.175-1.381,6.55-3.835c8.883-15.853,11.061-34.216,6.132-51.706c-4.243-15.059-13.327-27.91-25.887-36.864l5.722-10.22   c2.023-3.614,0.733-8.185-2.881-10.208c-3.614-2.023-8.184-0.734-10.208,2.88l-5.72,10.216   c-31.487-13.349-68.758-1.123-85.857,29.391c-0.972,1.735-1.215,3.786-0.676,5.7s1.817,3.536,3.553,4.509l46.268,25.925   l-2.406,4.297c-23.084-13.853-50.078-21.83-78.903-21.83c-28.825,0-55.818,7.977-78.902,21.829l-2.408-4.296l46.269-25.926   c3.614-2.025,4.902-6.595,2.877-10.209c-8.883-15.853-23.407-27.297-40.897-32.226c-15.061-4.244-30.765-3.205-44.96,2.833   L67.342,3.838c-2.023-3.615-6.593-4.904-10.208-2.881c-3.614,2.023-4.904,6.594-2.881,10.208l5.721,10.22   c-12.559,8.954-21.643,21.804-25.886,36.864c-4.929,17.49-2.751,35.854,6.132,51.706c1.375,2.454,3.924,3.835,6.55,3.835   c1.241,0,2.5-0.309,3.659-0.958l46.257-25.919l2.984,5.324c-37.83,28.047-62.397,73.016-62.397,123.619   c0,45.21,19.61,85.924,50.767,114.091l-9.427,43.114c-0.885,4.047,1.678,8.044,5.725,8.929c0.54,0.118,1.078,0.175,1.609,0.175   c3.448,0,6.553-2.393,7.32-5.899l7.818-35.757c25.321,18.332,56.416,29.157,89.996,29.157c33.58,0,64.676-10.825,89.997-29.158   l7.818,35.758c0.767,3.507,3.871,5.899,7.319,5.899c0.531,0,1.07-0.057,1.609-0.175c4.046-0.885,6.61-4.882,5.725-8.929   l-9.427-43.115C325.281,301.778,344.89,261.065,344.89,215.855z M308.517,30.436c12.357,6.924,21.279,18.246,25.121,31.88   c3.155,11.198,2.574,22.853-1.57,33.507l-91.609-51.331C256.211,23.856,285.228,17.387,308.517,30.436z M50.096,95.824   c-4.145-10.654-4.726-22.31-1.57-33.507c3.842-13.634,12.763-24.956,25.121-31.88c8.179-4.583,17.064-6.758,25.833-6.758   c16.201,0,32.005,7.425,42.225,20.814L50.096,95.824z M52.273,215.855c0-76.54,62.269-138.809,138.809-138.809   S329.89,139.315,329.89,215.855s-62.27,138.809-138.809,138.809S52.273,292.394,52.273,215.855z"/>
            <path d="M191.081,107.685c-59.645,0-108.17,48.525-108.17,108.17c0,59.645,48.525,108.17,108.17,108.17   c59.646,0,108.17-48.525,108.17-108.17C299.252,156.21,250.727,107.685,191.081,107.685z M191.081,309.025   c-51.374,0-93.17-41.796-93.17-93.17c0-51.374,41.796-93.17,93.17-93.17c51.375,0,93.17,41.796,93.17,93.17   C284.252,267.229,242.456,309.025,191.081,309.025z"/>
            <path d="M198.585,190.081v-36.262c0-4.142-3.358-7.5-7.5-7.5s-7.5,3.358-7.5,7.5v36.26c-8.784,2.559-15.718,9.492-18.279,18.276   h-16.941c-4.142,0-7.5,3.358-7.5,7.5s3.358,7.5,7.5,7.5h16.941c3.254,11.165,13.574,19.349,25.775,19.349   c14.805,0,26.849-12.044,26.849-26.849C217.93,203.655,209.748,193.337,198.585,190.081z M191.081,227.704   c-6.533,0-11.849-5.315-11.849-11.849s5.315-11.849,11.849-11.849c6.534,0,11.849,5.315,11.849,11.849   S197.615,227.704,191.081,227.704z"/>
        </g>
    </symbol>
    <symbol xmlns="http://www.w3.org/2000/svg" id="close" viewBox="0 0 512 512">
        <g>
            <g>
                <path d="M505.943,6.058c-8.077-8.077-21.172-8.077-29.249,0L6.058,476.693c-8.077,8.077-8.077,21.172,0,29.249    C10.096,509.982,15.39,512,20.683,512c5.293,0,10.586-2.019,14.625-6.059L505.943,35.306    C514.019,27.23,514.019,14.135,505.943,6.058z"/>
            </g>
        </g>
        <g>
            <g>
                <path d="M505.942,476.694L35.306,6.059c-8.076-8.077-21.172-8.077-29.248,0c-8.077,8.076-8.077,21.171,0,29.248l470.636,470.636    c4.038,4.039,9.332,6.058,14.625,6.058c5.293,0,10.587-2.019,14.624-6.057C514.018,497.866,514.018,484.771,505.942,476.694z"/>
            </g>
        </g>
    </symbol>
    <symbol xmlns="http://www.w3.org/2000/svg" id="coctail" viewBox="0 0 480 480">
        <g>
            <path d="M364.001,48c-32.223,0.054-59.392,24.033-63.448,56h-20.096l25.552-88h25.992V0h-32c-3.558,0.001-6.687,2.352-7.68,5.768    L263.801,104h-203.8c-4.418-0.001-8.001,3.58-8.002,7.998c0,1.804,0.609,3.555,1.73,4.97l150.272,189.816V464h-64v16h144v-16h-64    V306.784l110.976-140.176c9.918,6.147,21.356,9.4,33.024,9.392c35.346,0,64-28.654,64-64C428.001,76.654,399.347,48,364.001,48z     M76.537,120h182.616l-16.256,56H120.873L76.537,120z M212.001,291.112L133.537,192h104.72l-17.936,61.768l15.36,4.464    L254.913,192h35.552L212.001,291.112z M303.129,176h-43.576l16.264-56h71.648L303.129,176z M364.001,160    c-8.083,0.042-16.04-1.999-23.104-5.928l29.376-37.104c2.744-3.463,2.161-8.495-1.302-11.239c-1.414-1.12-3.165-1.73-4.97-1.729    h-47.336c4.418-26.139,29.19-43.747,55.329-39.329c26.139,4.418,43.747,29.19,39.329,55.329    C407.419,143.092,387.421,159.996,364.001,160z"/>
        </g>
    </symbol>
    <symbol xmlns="http://www.w3.org/2000/svg" id="collaboration" viewBox="0 0 480 480">
        <g>
            <g>
                <path d="M240,0c-26.51,0-48,21.49-48,48s21.49,48,48,48c26.499-0.026,47.974-21.501,48-48C288,21.49,266.51,0,240,0z M240,80    c-17.673,0-32-14.327-32-32s14.327-32,32-32c17.673,0,32,14.327,32,32S257.673,80,240,80z"/>
            </g>
        </g>
        <g>
            <g>
                <path d="M272,104h-1.888l-1.688,0.84c-17.901,8.913-38.947,8.913-56.848,0l-1.688-0.84H208c-22.08,0.026-39.974,17.92-40,40v48    c0,13.255,10.745,24,24,24h96c13.255,0,24-10.745,24-24v-48C311.974,121.92,294.08,104.026,272,104z M296,192c0,4.418-3.582,8-8,8    h-96c-4.418,0-8-3.582-8-8v-48c0.002-12.592,9.735-23.042,22.296-23.936c21.375,9.92,46.034,9.92,67.408,0    c12.56,0.894,22.294,11.344,22.296,23.936V192z"/>
            </g>
        </g>
        <g>
            <g>
                <path d="M408,264c-26.51,0-48,21.49-48,48c0,26.51,21.49,48,48,48c26.51,0,48-21.49,48-48    C455.974,285.501,434.499,264.026,408,264z M408,344c-17.673,0-32-14.327-32-32c0-17.673,14.327-32,32-32    c17.673,0,32,14.327,32,32C440,329.673,425.673,344,408,344z"/>
            </g>
        </g>
        <g>
            <g>
                <path d="M440,368h-1.888l-1.688,0.8c-17.901,8.912-38.947,8.912-56.848,0l-1.688-0.8H376c-22.08,0.026-39.974,17.92-40,40v48    c0,13.255,10.745,24,24,24h96c13.255,0,24-10.745,24-24v-48C479.974,385.92,462.08,368.026,440,368z M464,456c0,4.418-3.582,8-8,8    h-96c-4.418,0-8-3.582-8-8v-48c0.002-12.592,9.735-23.042,22.296-23.936c21.375,9.92,46.033,9.92,67.408,0    C454.265,384.958,463.998,395.408,464,408V456z"/>
            </g>
        </g>
        <g>
            <g>
                <path d="M72,264c-26.51,0-48,21.49-48,48c0,26.51,21.49,48,48,48s48-21.49,48-48C119.974,285.501,98.499,264.026,72,264z M72,344    c-17.673,0-32-14.327-32-32c0-17.673,14.327-32,32-32s32,14.327,32,32C104,329.673,89.673,344,72,344z"/>
            </g>
        </g>
        <g>
            <g>
                <path d="M104,368h-1.888l-1.688,0.8c-17.901,8.912-38.947,8.912-56.848,0l-1.688-0.8H40c-22.08,0.026-39.974,17.92-40,40v48    c0,13.255,10.745,24,24,24h96c13.255,0,24-10.745,24-24v-48C143.974,385.92,126.08,368.026,104,368z M128,456c0,4.418-3.582,8-8,8    H24c-4.418,0-8-3.582-8-8v-48c0.002-12.592,9.735-23.042,22.296-23.936c21.375,9.92,46.033,9.92,67.408,0    C118.265,384.958,127.998,395.408,128,408V456z"/>
            </g>
        </g>
        <g>
            <g>
                <path d="M319.372,406.276c-0.004-0.009-0.008-0.018-0.012-0.028c-1.732-4.065-6.431-5.956-10.495-4.224c0,0,0,0,0,0    c-36.125,15.14-76.245,17.902-114.104,7.856l7.488-2.2c4.242-1.242,6.674-5.686,5.432-9.928s-5.686-6.674-9.928-5.432l-32,9.384    c-0.12,0-0.208,0.136-0.32,0.176c-0.741,0.276-1.437,0.662-2.064,1.144c-0.278,0.15-0.545,0.318-0.8,0.504    c-0.844,0.753-1.513,1.681-1.96,2.72c-0.434,1.046-0.641,2.172-0.608,3.304c0.195,1.083,0.462,2.152,0.8,3.2    c0.048,0.112,0,0.24,0.088,0.352l16,30.616c2.046,3.919,6.881,5.438,10.8,3.392s5.438-6.881,3.392-10.8l-6.512-12.448    c43.014,12.93,89.195,10.417,130.552-7.104C319.189,415.039,321.093,410.345,319.372,406.276z"/>
            </g>
        </g>
        <g>
            <g>
                <path d="M453.656,210.344c-3.124-3.123-8.188-3.123-11.312,0l-11.32,11.32c-6.624-70.07-51.111-130.876-115.888-158.4    c-4.065-1.732-8.764,0.159-10.496,4.224c-1.732,4.065,0.159,8.764,4.224,10.496c58.11,24.697,98.504,78.669,105.816,141.384    l-9.024-9.024c-3.178-3.07-8.242-2.982-11.312,0.196c-2.994,3.1-2.994,8.015,0,11.116l24,24c3.12,3.128,8.186,3.135,11.314,0.014    c0.005-0.005,0.01-0.01,0.014-0.014l24-24C456.791,218.528,456.784,213.464,453.656,210.344z"/>
            </g>
        </g>
        <g>
            <g>
                <path d="M175.768,69.272c-0.026-0.467-0.095-0.93-0.208-1.384c0-0.072-0.088-0.12-0.12-0.2c-0.032-0.08,0-0.136,0-0.2    c-0.218-0.389-0.47-0.759-0.752-1.104c-0.259-0.469-0.565-0.911-0.912-1.32c-0.473-0.419-0.997-0.776-1.56-1.064    c-0.281-0.239-0.581-0.456-0.896-0.648l-32-14.616c-4.087-1.678-8.761,0.275-10.439,4.362c-1.587,3.865,0.068,8.301,3.799,10.182    l16.568,7.576C86.875,104.237,47.955,169.256,48,240c0,4.418,3.582,8,8,8s8-3.582,8-8c-0.04-62.293,32.901-119.952,86.584-151.552    l-5.784,12.088c-1.907,3.977-0.236,8.747,3.736,10.664c1.079,0.527,2.263,0.801,3.464,0.8c3.072-0.004,5.87-1.767,7.2-4.536    l16-33.384c0-0.08,0-0.168,0.064-0.248c0.208-0.547,0.353-1.116,0.432-1.696c0.137-0.431,0.239-0.872,0.304-1.32    C175.973,70.295,175.896,69.778,175.768,69.272z"/>
            </g>
        </g>
    </symbol>
    <symbol id="corruption" viewBox="0 0 512 512">
        <path d="m336 36c-4.425781 0-8-3.574219-8-8 0-15.441406 12.558594-28 28-28 13.222656 0 24.769531 9.40625 27.433594 22.359375.886718 4.328125-1.898438 8.550781-6.226563 9.449219-4.328125.878906-8.550781-1.886719-9.445312-6.222656-1.144531-5.554688-6.089844-9.585938-11.761719-9.585938-6.617188 0-12 5.382812-12 12 0 4.425781-3.574219 8-8 8zm0 0"/><path d="m415.992188 192c-3.578126 0-6.832032-2.414062-7.753907-6.039062l-40.40625-160.03125c-1.078125-4.289063 1.511719-8.632813 5.800781-9.722657 4.277344-1.0625 8.640626 1.511719 9.71875 5.800781l40.410157 160.03125c1.078125 4.289063-1.515625 8.632813-5.800781 9.722657-.65625.160156-1.320313.238281-1.96875.238281zm0 0"/><path d="m424 200c-8.824219 0-16-7.175781-16-16 0-4.425781 3.574219-8 8-8s8 3.574219 8 8v.015625c4.425781 0 8 3.570313 8 7.992187 0 4.417969-3.574219 7.992188-8 7.992188zm0 0"/><path d="m336 240c-4.425781 0-8-3.574219-8-8v-204c0-4.425781 3.574219-8 8-8s8 3.574219 8 8v204c0 4.425781-3.574219 8-8 8zm0 0"/><path d="m384 288c-30.871094 0-56-25.128906-56-56 0-4.425781 3.574219-8 8-8s8 3.574219 8 8c0 22.054688 17.945312 40 40 40 4.425781 0 8 3.574219 8 8s-3.574219 8-8 8zm0 0"/><path d="m440 288h-56c-4.425781 0-8-3.574219-8-8s3.574219-8 8-8h56c4.425781 0 8 3.574219 8 8s-3.574219 8-8 8zm0 0"/><path d="m376 156c-4.425781 0-8-3.574219-8-8 0-6.617188-5.382812-12-12-12s-12 5.382812-12 12c0 4.425781-3.574219 8-8 8s-8-3.574219-8-8c0-15.441406 12.558594-28 28-28s28 12.558594 28 28c0 4.425781-3.574219 8-8 8zm0 0"/><path d="m228.007812 135.984375c-4.421874 0-8-3.578125-8-8 0-4.425781 3.578126-8 8-8 6.609376 0 11.992188-5.382813 11.992188-11.992187 0-6.609376-5.382812-11.992188-11.992188-11.992188-4.421874 0-8-3.574219-8-8s3.578126-8 8-8c15.441407 0 27.992188 12.550781 27.992188 27.992188 0 15.441406-12.550781 27.992187-27.992188 27.992187zm0 0"/><path d="m228.007812 175.984375c-4.421874 0-8-3.578125-8-8 0-4.425781 3.578126-8 8-8 6.609376 0 11.992188-5.382813 11.992188-11.992187 0-6.609376-5.382812-11.992188-11.992188-11.992188-4.421874 0-8-3.574219-8-8s3.578126-8 8-8c15.441407 0 27.992188 12.550781 27.992188 27.992188 0 15.441406-12.550781 27.992187-27.992188 27.992187zm0 0"/><path d="m228.007812 215.984375c-4.421874 0-8-3.578125-8-8 0-4.425781 3.578126-8 8-8 6.609376 0 11.992188-5.382813 11.992188-11.992187 0-6.609376-5.382812-11.992188-11.992188-11.992188-4.421874 0-8-3.574219-8-8s3.578126-8 8-8c15.441407 0 27.992188 12.550781 27.992188 27.992188 0 15.441406-12.550781 27.992187-27.992188 27.992187zm0 0"/><path d="m228.007812 255.984375c-4.421874 0-8-3.578125-8-8 0-4.425781 3.578126-8 8-8 6.609376 0 11.992188-5.382813 11.992188-11.992187 0-6.609376-5.382812-11.992188-11.992188-11.992188-4.421874 0-8-3.574219-8-8s3.578126-8 8-8c15.441407 0 27.992188 12.550781 27.992188 27.992188 0 15.441406-12.550781 27.992187-27.992188 27.992187zm0 0"/><path d="m376 208c-4.425781 0-8-3.574219-8-8v-52c0-4.425781 3.574219-8 8-8s8 3.574219 8 8v52c0 4.425781-3.574219 8-8 8zm0 0"/><path d="m440 200h-16c-4.425781 0-8-3.574219-8-8s3.574219-8 8-8h16c4.425781 0 8 3.574219 8 8s-3.574219 8-8 8zm0 0"/><path d="m440 296c-4.425781 0-8-3.574219-8-8v-104c0-4.425781 3.574219-8 8-8s8 3.574219 8 8v104c0 4.425781-3.574219 8-8 8zm0 0"/><path d="m464 296h-24c-4.425781 0-8-3.574219-8-8s3.574219-8 8-8h24c4.425781 0 8 3.574219 8 8s-3.574219 8-8 8zm0 0"/><path d="m464 192h-24c-4.425781 0-8-3.574219-8-8s3.574219-8 8-8h24c4.425781 0 8 3.574219 8 8s-3.574219 8-8 8zm0 0"/><path d="m464 312c-4.425781 0-8-3.574219-8-8v-136c0-4.425781 3.574219-8 8-8s8 3.574219 8 8v136c0 4.425781-3.574219 8-8 8zm0 0"/><path d="m504 312h-40c-4.425781 0-8-3.574219-8-8s3.574219-8 8-8h40c4.425781 0 8 3.574219 8 8s-3.574219 8-8 8zm0 0"/><path d="m504 176h-40c-4.425781 0-8-3.574219-8-8s3.574219-8 8-8h40c4.425781 0 8 3.574219 8 8s-3.574219 8-8 8zm0 0"/><path d="m72 240c-4.425781 0-8-3.574219-8-8v-104c0-4.425781 3.574219-8 8-8s8 3.574219 8 8v104c0 4.425781-3.574219 8-8 8zm0 0"/><path d="m72 240h-24c-4.425781 0-8-3.574219-8-8s3.574219-8 8-8h24c4.425781 0 8 3.574219 8 8s-3.574219 8-8 8zm0 0"/><path d="m72 136h-24c-4.425781 0-8-3.574219-8-8s3.574219-8 8-8h24c4.425781 0 8 3.574219 8 8s-3.574219 8-8 8zm0 0"/><path d="m48 256c-4.425781 0-8-3.574219-8-8v-136c0-4.425781 3.574219-8 8-8s8 3.574219 8 8v136c0 4.425781-3.574219 8-8 8zm0 0"/><path d="m48 256h-40c-4.425781 0-8-3.574219-8-8s3.574219-8 8-8h40c4.425781 0 8 3.574219 8 8s-3.574219 8-8 8zm0 0"/><path d="m48 120h-40c-4.425781 0-8-3.574219-8-8s3.574219-8 8-8h40c4.425781 0 8 3.574219 8 8s-3.574219 8-8 8zm0 0"/><path d="m88 144h-16c-4.425781 0-8-3.574219-8-8s3.574219-8 8-8h16c4.425781 0 8 3.574219 8 8s-3.574219 8-8 8zm0 0"/><path d="m88 232h-16c-4.425781 0-8-3.574219-8-8s3.574219-8 8-8h16c4.425781 0 8 3.574219 8 8s-3.574219 8-8 8zm0 0"/><path d="m88 144c-2.046875 0-4.097656-.785156-5.65625-2.34375-3.128906-3.128906-3.128906-8.183594 0-11.3125l48-48c3.128906-3.128906 8.183594-3.128906 11.3125 0s3.128906 8.183594 0 11.3125l-48 48c-1.558594 1.558594-3.609375 2.34375-5.65625 2.34375zm0 0"/><path d="m228.007812 96h-92.007812c-4.425781 0-8-3.574219-8-8s3.574219-8 8-8h92.007812c4.425782 0 8 3.574219 8 8s-3.574218 8-8 8zm0 0"/><path d="m228.007812 256h-100.007812c-4.425781 0-8-3.574219-8-8s3.574219-8 8-8h100.007812c4.425782 0 8 3.574219 8 8s-3.574218 8-8 8zm0 0"/><path d="m127.992188 256c-1.398438 0-2.824219-.367188-4.113282-1.144531l-40-24c-3.789062-2.269531-5.015625-7.183594-2.742187-10.976563 2.269531-3.78125 7.175781-5.015625 10.976562-2.742187l40 24c3.789063 2.269531 5.015625 7.183593 2.742188 10.976562-1.496094 2.503907-4.144531 3.886719-6.863281 3.886719zm0 0"/><path d="m160 96c-3.167969 0-6.175781-1.894531-7.433594-5.03125l-16-40c-1.636718-4.105469.363282-8.761719 4.464844-10.402344 4.074219-1.644531 8.761719.355469 10.402344 4.464844l16 40c1.636718 4.105469-.363282 8.761719-4.464844 10.402344-.96875.390625-1.976562.566406-2.96875.566406zm0 0"/><path d="m208 96c-.992188 0-2-.175781-2.96875-.566406-4.101562-1.640625-6.101562-6.296875-4.464844-10.402344l16-40c1.640625-4.121094 6.335938-6.109375 10.402344-4.464844 4.101562 1.640625 6.101562 6.296875 4.464844 10.402344l-16 40c-1.257813 3.136719-4.265625 5.03125-7.433594 5.03125zm0 0"/><path d="m201.511719 59.519531c-7.015625 0-14.511719-1.078125-21.097657-4.367187-10.695312-5.351563-28.09375-1.503906-33.886718.433594-4.230469 1.40625-8.71875-.867188-10.121094-5.058594-1.398438-4.191406.867188-8.726563 5.058594-10.121094 1.101562-.367188 27.351562-8.941406 46.109375.433594 10.699219 5.351562 28.097656 1.503906 33.890625-.433594 4.222656-1.40625 8.71875.867188 10.121094 5.058594 1.398437 4.191406-.867188 8.726562-5.058594 10.121094-.710938.246093-12.023438 3.933593-25.015625 3.933593zm0 0"/><path d="m184 512c-74.992188 0-136-61.007812-136-136 0-50.007812 27.65625-96.503906 79.976562-134.480469 3.566407-2.597656 8.566407-1.808593 11.167969 1.785157 2.589844 3.566406 1.800781 8.574218-1.785156 11.167968-48.671875 35.335938-73.359375 76.222656-73.359375 121.527344 0 66.167969 53.832031 120 120 120s120-53.832031 120-120c0-57.511719-39.894531-98.550781-73.367188-122.839844-3.570312-2.601562-4.367187-7.601562-1.777343-11.175781 2.59375-3.570313 7.585937-4.382813 11.175781-1.777344 52.320312 37.96875 79.96875 84.9375 79.96875 135.792969 0 74.992188-61.007812 136-136 136zm0 0"/><path d="m184 440c-35.289062 0-64-28.710938-64-64s28.710938-64 64-64 64 28.710938 64 64-28.710938 64-64 64zm0-112c-26.472656 0-48 21.527344-48 48s21.527344 48 48 48 48-21.527344 48-48-21.527344-48-48-48zm0 0"/><path d="m184 400c-4.425781 0-8-3.574219-8-8v-32c0-4.425781 3.574219-8 8-8s8 3.574219 8 8v32c0 4.425781-3.574219 8-8 8zm0 0"/>
    </symbol>
    <symbol xmlns="http://www.w3.org/2000/svg" id="education" viewBox="0 0 349.2 349.2">
        <g>
            <path d="M337.6,114.25l-139.2-68c-12-6-32.4-6-44.4,0l-142.4,68c-10,4.8-11.6,11.6-11.6,15.2c0,3.6,1.6,10,11.6,15.2l11.6,5.6v64    c-7.2,2.8-12.4,10-12.4,18s5.2,15.2,12,18l-18,57.2h50.4l-18-57.2c7.2-2.8,12-10,12-18c0-8.4-5.2-15.2-12.4-18v-57.2l21.2,10.4    v83.2c0,1.2,0.4,2.4,1.2,3.6c2,2.4,39.2,53.2,115.2,53.2s113.2-51.2,114.8-53.2c0.8-1.2,1.2-2.4,1.2-3.6v-82.8l47.2-23.2    c10-4.8,11.6-11.6,11.6-15.2C348.8,125.85,347.6,119.05,337.6,114.25z M277.6,248.65c-6.4,8-40.8,46.4-103.2,46.4    c-62.4,0-96.8-38.4-103.2-46.4v-75.6l82.8,39.6c6,2.8,14,4.4,22,4.4c8.4,0,16.4-1.6,22.4-4.8l79.2-38.8V248.65z M332,133.45    l-48,23.6c-2,0-3.6,0.8-4.4,2.4l-86.8,42c-8.4,4.4-24.8,4.4-33.6,0l-106.8-51.2l122.8-14.4c3.6-0.4,6-3.6,5.6-6.8    c-0.4-3.6-3.6-6-6.8-5.6l-142.4,16.8l-14.4-6.8c-3.6-1.6-4.4-3.6-4.4-3.6c0-0.4,0.8-2,4.4-3.6l142.4-68.4c4.4-2,10.4-3.2,16.4-3.2    c6.4,0,12.8,1.2,16.8,3.2l139.2,68c3.6,1.6,4.4,3.2,4.4,4C336.4,129.85,335.2,131.85,332,133.45z"/>
        </g>
    </symbol>
    <symbol xmlns="http://www.w3.org/2000/svg" id="facebook" viewBox="0 0 430.113 430.114">
        <g>
            <path d="M158.081,83.3c0,10.839,0,59.218,0,59.218h-43.385v72.412h43.385v215.183h89.122V214.936h59.805   c0,0,5.601-34.721,8.316-72.685c-7.784,0-67.784,0-67.784,0s0-42.127,0-49.511c0-7.4,9.717-17.354,19.321-17.354   c9.586,0,29.818,0,48.557,0c0-9.859,0-43.924,0-75.385c-25.016,0-53.476,0-66.021,0C155.878-0.004,158.081,72.48,158.081,83.3z"/>
        </g>
    </symbol>
    <symbol xmlns="http://www.w3.org/2000/svg" id="file" viewBox="0 0 60 60">
        <g>
            <path d="M45,25H20c-0.552,0-1,0.447-1,1s0.448,1,1,1h25c0.552,0,1-0.447,1-1S45.552,25,45,25z"/>
            <path d="M20,19h10c0.552,0,1-0.447,1-1s-0.448-1-1-1H20c-0.552,0-1,0.447-1,1S19.448,19,20,19z"/>
            <path d="M45,33H20c-0.552,0-1,0.447-1,1s0.448,1,1,1h25c0.552,0,1-0.447,1-1S45.552,33,45,33z"/>
            <path d="M45,41H20c-0.552,0-1,0.447-1,1s0.448,1,1,1h25c0.552,0,1-0.447,1-1S45.552,41,45,41z"/>
            <path d="M45,49H20c-0.552,0-1,0.447-1,1s0.448,1,1,1h25c0.552,0,1-0.447,1-1S45.552,49,45,49z"/>
            <path d="M49,14.586V0H6v55h5v5h43V19.586L49,14.586z M40,8.414l9,9L50.586,19H40V8.414z M8,53V2h39v10.586L39.414,5H11v48H8z    M13,58v-3V7h25v14h14v37H13z"/>
        </g>
    </symbol>
    <symbol xmlns="http://www.w3.org/2000/svg" id="fire" viewBox="0 0 24 24">
        <path fill="none" d="M0 0h24v24H0V0z"/><path d="M11.57 13.16c-1.36.28-2.17 1.16-2.17 2.41 0 1.34 1.11 2.42 2.49 2.42 2.05 0 3.71-1.66 3.71-3.71 0-1.07-.15-2.12-.46-3.12-.79 1.07-2.2 1.72-3.57 2zM13.5.67s.74 2.65.74 4.8c0 2.06-1.35 3.73-3.41 3.73-2.07 0-3.63-1.67-3.63-3.73l.03-.36C5.21 7.51 4 10.62 4 14c0 4.42 3.58 8 8 8s8-3.58 8-8C20 8.61 17.41 3.8 13.5.67zM12 20c-3.31 0-6-2.69-6-6 0-1.53.3-3.04.86-4.43 1.01 1.01 2.41 1.63 3.97 1.63 2.66 0 4.75-1.83 5.28-4.43C17.34 8.97 18 11.44 18 14c0 3.31-2.69 6-6 6z"/>
    </symbol>
    <symbol xmlns="http://www.w3.org/2000/svg" id="google" viewBox="0 0 30 30">
        <path d="M 14.804688 2.960938 C 8.265625 2.960938 2.960938 8.261719 2.960938 14.800781 C 2.960938 21.34375 8.265625 26.644531 14.804688 26.644531 C 24.6875 26.644531 26.910156 17.472656 25.980469 12.828125 L 14.800781 12.828125 L 14.800781 16.777344 L 22.4375 16.777344 C 21.558594 20.179688 18.480469 22.699219 14.800781 22.699219 C 10.441406 22.699219 6.90625 19.164063 6.90625 14.800781 C 6.90625 10.441406 10.441406 6.90625 14.800781 6.90625 C 16.785156 6.90625 18.59375 7.644531 19.980469 8.851563 L 22.78125 6.046875 C 20.675781 4.128906 17.878906 2.960938 14.804688 2.960938 Z "/>
    </symbol>
    <symbol xmlns="http://www.w3.org/2000/svg" id="hair-dryer" viewBox="0 0 442.451 442.451">
        <g>
            <g>
                <path d="M341.755,135.35c-29.932-12.822-64.591,1.048-77.413,30.98h0.04c-6.19,14.348-6.406,30.572-0.6,45.08     c5.804,14.537,17.151,26.169,31.54,32.333c29.932,12.822,64.591-1.048,77.413-30.98     C385.557,182.831,371.686,148.172,341.755,135.35z M335.947,233.134c-24.037,9.622-51.323-2.063-60.945-26.099     c-9.622-24.037,2.063-51.323,26.099-60.945c11.581-4.66,24.547-4.487,36,0.48c11.373,4.909,20.341,14.119,24.945,25.619     C371.669,196.226,359.984,223.512,335.947,233.134z"/>
                <path d="M39.581,100.37l-34.24,4c-3.314,0.387-5.687,3.386-5.3,6.7s3.386,5.687,6.7,5.3l34.24-4c3.314-0.387,5.687-3.386,5.3-6.7     C45.895,102.356,42.895,99.983,39.581,100.37z"/>
                <path d="M47.581,66.61l-31.68-13.6c-3.071-1.314-6.626,0.109-7.94,3.18c-1.314,3.071,0.109,6.626,3.18,7.94l31.68,13.6     c3.071,1.314,6.626-0.109,7.94-3.18C52.076,71.479,50.652,67.924,47.581,66.61z"/>
                <path d="M71.581,41.37l-20.8-27.6c-1.999-2.673-5.787-3.219-8.46-1.22c-2.673,1.999-3.219,5.787-1.22,8.46l20.8,27.6     c1.999,2.673,5.787,3.219,8.46,1.22S73.581,44.043,71.581,41.37z"/>
                <path d="M406.941,220.93c16.482-46.433-5.804-97.699-51-117.32l-0.56-0.24l-0.16,0.04c-44.72-19.12-106.48-32.48-162.84-44.88     c-21.8-4.72-42.8-9.24-60.92-13.68h-0.24c-6.675-1.757-13.731-1.408-20.2,1c-6.152,2.363-11.077,7.129-13.64,13.2l-25.68,60     c-2.579,6.057-2.579,12.903,0,18.96c2.711,6.359,7.321,11.724,13.2,15.36c16,10.4,33.68,22.4,52,34.88     c33.12,22.6,68.52,46.76,102.16,65.8l-32.52,75.72c-10.394,24.179,0.781,52.206,24.96,62.6     c24.179,10.394,52.206-0.781,62.6-24.96l36.48-84.92c30.675-3.997,57.412-22.849,71.48-50.4c29.44,13.88,31.68,30.88,24,49.36     c-6.03,12.639-13.221,24.691-21.48,36c-25.68,38.12-52.64,78.08-1.36,112.88c2.568,1.444,5.803,0.825,7.656-1.465     c2.098-2.593,1.697-6.396-0.896-8.495c-41.32-28-17.8-62.76,4.64-96c8.735-12.026,16.302-24.857,22.6-38.32     C447.581,261.17,444.981,238.57,406.941,220.93z M91.301,143.41c-3.762-2.263-6.736-5.629-8.52-9.64     c-1.318-3.106-1.318-6.614,0-9.72l25.68-60c1.306-3.105,3.818-5.546,6.96-6.76c4.142-1.477,8.639-1.645,12.88-0.48h0.24l6.64,1.6     l-38.08,88.64L91.301,143.41z M283.381,363.01c-7.868,17.373-28.041,25.446-45.723,18.297     c-18.207-7.362-26.999-28.09-19.637-46.297l32-74.6c9.52,5.2,18.92,9.96,28,13.96h0.28l0.56,0.24h0.28h0.28l1.92,0.84l0.52,0.24     c1.493,0.613,2.987,1.2,4.48,1.76l1.12,0.72h0.4h0.36c9.298,3.209,19.045,4.924,28.88,5.08L283.381,363.01z M393.141,222.05     c-11.778,27.409-37.58,46.2-67.28,49h-0.76l0.32-0.16c-13.415,1.123-26.898-1.104-39.24-6.48h-0.28     c-43.64-18.84-95.32-54.16-142.36-86.16c-12.28-8.44-24.44-16.76-36-24.44l39.8-92.56c13.72,3.16,28,6.24,42.64,9.4     c55.8,12,117.08,25.24,160.76,44c0.078,0.034,0.156,0.067,0.234,0.101C392.248,132.737,411.127,180.776,393.141,222.05z"/>
            </g>
        </g>
    </symbol>
    <symbol xmlns:xlink="http://www.w3.org/1999/xlink" id="info" viewBox="0 0 111.577 111.577">
        <g>
            <path d="M78.962,99.536l-1.559,6.373c-4.677,1.846-8.413,3.251-11.195,4.217c-2.785,0.969-6.021,1.451-9.708,1.451   c-5.662,0-10.066-1.387-13.207-4.142c-3.141-2.766-4.712-6.271-4.712-10.523c0-1.646,0.114-3.339,0.351-5.064   c0.239-1.727,0.619-3.672,1.139-5.846l5.845-20.688c0.52-1.981,0.962-3.858,1.316-5.633c0.359-1.764,0.532-3.387,0.532-4.848   c0-2.642-0.547-4.49-1.636-5.529c-1.089-1.036-3.167-1.562-6.252-1.562c-1.511,0-3.064,0.242-4.647,0.71   c-1.59,0.47-2.949,0.924-4.09,1.346l1.563-6.378c3.829-1.559,7.489-2.894,10.99-4.002c3.501-1.111,6.809-1.667,9.938-1.667   c5.623,0,9.962,1.359,13.009,4.077c3.047,2.72,4.57,6.246,4.57,10.591c0,0.899-0.1,2.483-0.315,4.747   c-0.21,2.269-0.601,4.348-1.171,6.239l-5.82,20.605c-0.477,1.655-0.906,3.547-1.279,5.676c-0.385,2.115-0.569,3.731-0.569,4.815   c0,2.736,0.61,4.604,1.833,5.597c1.232,0.993,3.354,1.487,6.368,1.487c1.415,0,3.025-0.251,4.814-0.744   C76.854,100.348,78.155,99.915,78.962,99.536z M80.438,13.03c0,3.59-1.353,6.656-4.072,9.177c-2.712,2.53-5.98,3.796-9.803,3.796   c-3.835,0-7.111-1.266-9.854-3.796c-2.738-2.522-4.11-5.587-4.11-9.177c0-3.583,1.372-6.654,4.11-9.207   C59.447,1.274,62.729,0,66.563,0c3.822,0,7.091,1.277,9.803,3.823C79.087,6.376,80.438,9.448,80.438,13.03z"/>
        </g>
    </symbol>
    <symbol xmlns="http://www.w3.org/2000/svg" id="left" viewBox="0 0 477.175 477.175" >
        <path d="M145.188,238.575l215.5-215.5c5.3-5.3,5.3-13.8,0-19.1s-13.8-5.3-19.1,0l-225.1,225.1c-5.3,5.3-5.3,13.8,0,19.1l225.1,225   c2.6,2.6,6.1,4,9.5,4s6.9-1.3,9.5-4c5.3-5.3,5.3-13.8,0-19.1L145.188,238.575z"/>
    </symbol>
    <symbol xmlns="http://www.w3.org/2000/svg" id="linkedin" viewBox="0 0 310 310">
        <g>
            <path d="M72.16,99.73H9.927c-2.762,0-5,2.239-5,5v199.928c0,2.762,2.238,5,5,5H72.16c2.762,0,5-2.238,5-5V104.73   C77.16,101.969,74.922,99.73,72.16,99.73z"/>
            <path d="M41.066,0.341C18.422,0.341,0,18.743,0,41.362C0,63.991,18.422,82.4,41.066,82.4   c22.626,0,41.033-18.41,41.033-41.038C82.1,18.743,63.692,0.341,41.066,0.341z"/>
            <path d="M230.454,94.761c-24.995,0-43.472,10.745-54.679,22.954V104.73c0-2.761-2.238-5-5-5h-59.599   c-2.762,0-5,2.239-5,5v199.928c0,2.762,2.238,5,5,5h62.097c2.762,0,5-2.238,5-5v-98.918c0-33.333,9.054-46.319,32.29-46.319   c25.306,0,27.317,20.818,27.317,48.034v97.204c0,2.762,2.238,5,5,5H305c2.762,0,5-2.238,5-5V194.995   C310,145.43,300.549,94.761,230.454,94.761z"/>
        </g>
    </symbol>
    <symbol xmlns="http://www.w3.org/2000/svg" id="location" viewBox="0 0 512 512">
        <g>
            <g>
                <path d="M256,0C156.748,0,76,80.748,76,180c0,33.534,9.289,66.26,26.869,94.652l142.885,230.257    c2.737,4.411,7.559,7.091,12.745,7.091c0.04,0,0.079,0,0.119,0c5.231-0.041,10.063-2.804,12.75-7.292L410.611,272.22    C427.221,244.428,436,212.539,436,180C436,80.748,355.252,0,256,0z M384.866,256.818L258.272,468.186l-129.905-209.34    C113.734,235.214,105.8,207.95,105.8,180c0-82.71,67.49-150.2,150.2-150.2S406.1,97.29,406.1,180    C406.1,207.121,398.689,233.688,384.866,256.818z"/>
            </g>
        </g>
        <g>
            <g>
                <path d="M256,90c-49.626,0-90,40.374-90,90c0,49.309,39.717,90,90,90c50.903,0,90-41.233,90-90C346,130.374,305.626,90,256,90z     M256,240.2c-33.257,0-60.2-27.033-60.2-60.2c0-33.084,27.116-60.2,60.2-60.2s60.1,27.116,60.1,60.2    C316.1,212.683,289.784,240.2,256,240.2z"/>
            </g>
        </g>
    </symbol>
    <symbol xmlns="http://www.w3.org/2000/svg" id="logout" viewBox="0 0 384.971 384.971">
        <g>
            <path d="M180.455,360.91H24.061V24.061h156.394c6.641,0,12.03-5.39,12.03-12.03s-5.39-12.03-12.03-12.03H12.03    C5.39,0.001,0,5.39,0,12.031V372.94c0,6.641,5.39,12.03,12.03,12.03h168.424c6.641,0,12.03-5.39,12.03-12.03    C192.485,366.299,187.095,360.91,180.455,360.91z"/>
            <path d="M381.481,184.088l-83.009-84.2c-4.704-4.752-12.319-4.74-17.011,0c-4.704,4.74-4.704,12.439,0,17.179l62.558,63.46H96.279    c-6.641,0-12.03,5.438-12.03,12.151c0,6.713,5.39,12.151,12.03,12.151h247.74l-62.558,63.46c-4.704,4.752-4.704,12.439,0,17.179    c4.704,4.752,12.319,4.752,17.011,0l82.997-84.2C386.113,196.588,386.161,188.756,381.481,184.088z"/>
        </g>
    </symbol>
    <symbol xmlns="http://www.w3.org/2000/svg" id="mode-circular" viewBox="0 0 99.004 99.004">
        <g>
            <g>
                <path d="M49.502,0.002C22.207,0.002,0,22.209,0,49.504c0,27.293,22.207,49.498,49.502,49.498s49.502-22.203,49.502-49.498    C99.004,22.207,76.797,0.002,49.502,0.002z M49.502,95.648c-25.444,0-46.145-20.701-46.145-46.146    c0-25.444,20.701-46.145,46.145-46.145c25.443,0,46.146,20.701,46.146,46.145C95.646,74.947,74.945,95.648,49.502,95.648z"/>
                <circle cx="31.471" cy="49.207" r="3.715"/>
                <path d="M50.309,45.778c-2.047,0-3.716,1.67-3.716,3.718c0,2.045,1.668,3.713,3.716,3.713c2.051,0,3.715-1.663,3.715-3.713    C54.023,47.446,52.355,45.778,50.309,45.778z"/>
                <circle cx="69.146" cy="49.493" r="3.716"/>
            </g>
        </g>
    </symbol>
    <symbol xmlns="http://www.w3.org/2000/svg" id="newspaper" viewBox="0 0 60 60">
        <g>
            <path d="M31,16H17v14h14V16z M29,28H19V18h10V28z"/>
            <path d="M52,16H36c-0.553,0-1,0.447-1,1s0.447,1,1,1h16c0.553,0,1-0.447,1-1S52.553,16,52,16z"/>
            <path d="M52,22H36c-0.553,0-1,0.447-1,1s0.447,1,1,1h16c0.553,0,1-0.447,1-1S52.553,22,52,22z"/>
            <path d="M52,28H36c-0.553,0-1,0.447-1,1s0.447,1,1,1h16c0.553,0,1-0.447,1-1S52.553,28,52,28z"/>
            <path d="M52,34H19c-0.553,0-1,0.447-1,1s0.447,1,1,1h33c0.553,0,1-0.447,1-1S52.553,34,52,34z"/>
            <path d="M34,40H19c-0.553,0-1,0.447-1,1s0.447,1,1,1h15c0.553,0,1-0.447,1-1S34.553,40,34,40z"/>
            <path d="M34,46H19c-0.553,0-1,0.447-1,1s0.447,1,1,1h15c0.553,0,1-0.447,1-1S34.553,46,34,46z"/>
            <path d="M34,52H19c-0.553,0-1,0.447-1,1s0.447,1,1,1h15c0.553,0,1-0.447,1-1S34.553,52,34,52z"/>
            <path d="M39,54h14V40H39V54z M41,42h10v10H41V42z"/>
            <path d="M59,13c0-0.017-0.009-0.031-0.01-0.048V0H11v30H1v24c0,3.309,2.691,6,6,6h46c3.303,0,5.99-2.688,5.99-5.99V13.048   C58.991,13.031,59,13.017,59,13z M56.99,2v10H13V2H56.99z M3,54V32h8v22c0,2.206-1.794,4-4,4S3,56.206,3,54z M53,58H11.469   c0.016-0.018,0.027-0.039,0.042-0.057c0.204-0.233,0.39-0.482,0.556-0.745c0.027-0.042,0.052-0.084,0.078-0.128   c0.162-0.27,0.305-0.552,0.423-0.848c0.016-0.041,0.03-0.082,0.045-0.123c0.115-0.306,0.209-0.622,0.273-0.949   c0.006-0.03,0.008-0.061,0.014-0.09C12.962,54.716,13,54.362,13,54V30V14h43.99v40.01C56.99,56.21,55.2,58,53,58z"/>
            <path d="M47,4H23v6h24V4z M45,8H25V6h20V8z"/>
        </g>
    </symbol>
    <symbol xmlns="http://www.w3.org/2000/svg" id="paper-plane" viewBox="0 0 490.282 490.282">
        <g>
            <path d="M0.043,245.197c0.6,10.1,7.3,18.6,17,21.5l179.6,54.3l6.6,123.8c0.3,4.9,3.6,9.2,8.3,10.8c1.3,0.5,2.7,0.7,4,0.7   c3.5,0,6.8-1.4,9.2-4.1l63.5-70.3l90,62.3c4,2.8,8.7,4.3,13.6,4.3c11.3,0,21.1-8,23.5-19.2l74.7-380.7c0.9-4.4-0.8-9-4.2-11.8   c-3.5-2.9-8.2-3.6-12.4-1.9l-459,186.8C5.143,225.897-0.557,235.097,0.043,245.197z M226.043,414.097l-4.1-78.1l46,31.8   L226.043,414.097z M391.443,423.597l-163.8-113.4l229.7-222.2L391.443,423.597z M432.143,78.197l-227.1,219.7l-179.4-54.2   L432.143,78.197z"/>
        </g>
    </symbol>
    <symbol xmlns="http://www.w3.org/2000/svg" id="piggy-bank" viewBox="0 0 512 512">
        <g>
            <g>
                <path d="M422.503,270.613c-4.115,0-7.451,3.336-7.451,7.451c0,5.217-4.244,9.461-9.461,9.461c-5.216,0-9.461-4.244-9.461-9.461    c0-4.116-3.336-7.451-7.451-7.451s-7.451,3.336-7.451,7.451c0,13.434,10.93,24.363,24.363,24.363    c13.433,0,24.363-10.93,24.363-24.363C429.954,273.947,426.618,270.613,422.503,270.613z"/>
            </g>
        </g>
        <g>
            <g>
                <path d="M492.444,271.83l-20.972-6.718c-2.686-0.861-4.803-3.005-5.662-5.736c-4.42-14.053-11.09-27.246-19.825-39.214    c-3.981-5.455-8.408-10.664-13.244-15.623c3.094-13.573,4.776-28.934,4.558-42.205c-0.312-18.985-4.106-30.12-11.598-34.044    c-4.035-2.116-16.315-8.544-82.782,21.882c-1.574,0.72-3.044,1.607-4.405,2.623c-4.481-1.204-9.061-2.318-13.669-3.318    c-0.555-0.121-1.127-0.228-1.686-0.346c5.386-11.766,8.531-24.545,9.122-37.737c0.184-4.112-2.999-7.594-7.111-7.777    c-4.101-0.204-7.594,2.998-7.777,7.11c-0.971,21.691-9.969,42.1-25.335,57.467c-9.181,9.181-19.931,15.85-31.388,20.05    c-19.869-2.788-40.107-2.788-59.976,0c-11.458-4.2-22.207-10.869-31.388-20.05c-16.394-16.394-25.423-38.191-25.423-61.376    c0-23.186,9.029-44.982,25.423-61.376c16.394-16.395,38.192-25.424,61.376-25.424c23.184,0,44.982,9.029,61.376,25.424    c6.588,6.588,12.032,14.106,16.181,22.343c1.851,3.676,6.332,5.156,10.007,3.304c3.676-1.85,5.155-6.331,3.304-10.006    c-4.863-9.659-11.24-18.466-18.953-26.18c-19.209-19.209-44.749-29.788-71.914-29.788c-27.165,0-52.705,10.579-71.914,29.788    c-19.209,19.21-29.788,44.749-29.788,71.914s10.579,52.705,29.788,71.914c5.541,5.541,11.569,10.306,17.945,14.298    c0.002,0,0.004-0.001,0.006-0.001c-4.633,1.204-9.231,2.556-13.778,4.076c-3.903,1.305-6.009,5.526-4.704,9.43    c1.304,3.903,5.527,6.009,9.429,4.705c40.636-13.585,85.396-13.585,126.032,0c0.784,0.262,1.58,0.386,2.363,0.386    c3.117,0,6.023-1.972,7.066-5.091c1.305-3.903-0.801-8.125-4.704-9.43c-4.547-1.52-9.145-2.873-13.778-4.076    c0.002,0,0.004,0.001,0.006,0.001c6.377-3.992,12.404-8.757,17.945-14.298c4.902-4.902,9.229-10.255,12.986-15.944    c2.054,0.399,4.093,0.817,6.102,1.253c2.676,0.581,5.34,1.205,7.98,1.86c-0.083,0.324-0.168,0.647-0.237,0.976    c-3.634,17.245-3.398,32.497,0.701,45.33c3.684,11.535,10.333,20.88,19.76,27.777c11.111,8.128,24.525,11.639,36.676,11.639    c9.145,0,17.576-1.99,23.768-5.497c7.004-3.967,12.872-12.326,17.517-24.876c2.147,2.506,4.182,5.073,6.1,7.701    c7.777,10.654,13.714,22.396,17.646,34.898c2.309,7.343,8.041,13.121,15.332,15.458l20.972,6.718    c5.503,1.763,9.2,6.828,9.2,12.606v34.775c0,5.778-3.697,10.843-9.2,12.606l-33.789,10.823    c-5.406,1.733-9.981,5.448-12.882,10.462c-13.275,22.942-34.146,41.927-62.037,56.428c-3.222,1.677-5.454,4.676-6.126,8.23    l-10.822,57.303c-0.299,1.579-1.682,2.724-3.289,2.724h-35.187c-1.607,0-2.99-1.146-3.289-2.724l-5.994-31.669    c-1.18-6.231-7.024-10.37-13.314-9.417c-15.157,2.292-30.775,3.453-46.418,3.453c-11.638,0-23.127-0.649-34.15-1.93    c-6.095-0.701-11.773,3.454-12.912,9.472l-5.696,30.091c-0.299,1.579-1.682,2.724-3.289,2.724h-35.187    c-1.607,0-2.99-1.146-3.293-2.748l-10.42-54.122c-0.671-3.487-2.861-6.452-6.012-8.135C96.25,401.595,71.12,359.191,71.12,304.351    c0-27.708,6.062-52.209,18.017-72.825c11.156-19.239,27.45-35.146,48.429-47.281c3.562-2.061,4.779-6.619,2.719-10.182    c-2.06-3.562-6.618-4.777-10.181-2.719C89.425,194.876,64.89,231.18,58.135,277.29v-0.001c-0.717-0.065-1.435-0.127-2.15-0.201    c0.13-4.975-0.77-9.995-2.73-14.867c-4.323-10.746-13.203-18.502-22.624-19.759c-7.424-0.994-14.489,2.158-19.392,8.636    c-7.109,9.394-5.95,16.828-3.727,21.41c3.753,7.733,13.4,13.203,29.409,16.642c-0.44,0.659-0.924,1.321-1.454,1.986    c-9.459,11.863-20.603,14.486-27.839,14.733C3.392,306.012,0,309.413,0,313.652v0.036c0,4.181,3.299,7.591,7.476,7.782    c0.535,0.025,1.094,0.038,1.676,0.038c9.156,0,23.851-3.377,37.969-21.08c2.229-2.794,4.045-5.742,5.441-8.788    c1.406,0.159,2.757,0.295,4.051,0.415c0-0.003,0-0.005,0.001-0.008c-0.254,4.038-0.395,8.135-0.395,12.304    c0,31.028,7.397,58.693,21.984,82.23c13.45,21.7,32.707,39.468,57.255,52.83l10.13,52.616c1.629,8.608,9.17,14.856,17.931,14.856    h35.187c8.761,0,16.302-6.248,17.931-14.856l5.15-27.208c10.696,1.133,21.77,1.707,32.965,1.707c15.36,0,30.702-1.07,45.654-3.182    l5.429,28.685c1.63,8.608,9.171,14.855,17.931,14.855h35.187c8.761,0,16.302-6.248,17.932-14.859l10.537-55.791    c29.768-15.741,52.206-36.419,66.704-61.475c1.045-1.806,2.654-3.131,4.53-3.732l33.788-10.823    C504.141,356.455,512,345.686,512,333.403v-34.775C512,286.346,504.141,275.577,492.444,271.83z M421.278,183.273    c-2.868,24.526-10.561,45.506-18.291,49.884c-8.786,4.977-29.071,5.938-44.301-5.203c-15.248-11.154-20.323-31.212-14.678-58.006    c0-0.001,0-0.001,0-0.001c0.567-2.691,2.479-5.019,5.114-6.225c37.304-17.076,58.811-22.661,66.801-22.661    c1.206,0,2.104,0.127,2.702,0.361C421.025,143.98,424.173,158.521,421.278,183.273z M20.921,266.001    c-0.771-1.59,1.049-4.385,2.203-5.911c1.829-2.416,3.514-2.91,4.787-2.91c0.269,0,0.52,0.022,0.75,0.053    c3.426,0.457,8.226,4.227,10.769,10.548c0.599,1.488,1.377,3.953,1.559,7.027C30.674,272.671,22.66,269.59,20.921,266.001z"/>
            </g>
        </g>
        <g>
            <g>
                <path d="M237.918,98.277V71.613c9.195,0.657,12.611,4.86,15.763,4.86c3.941,0,5.78-4.991,5.78-7.487    c0-6.437-12.611-9.195-21.543-9.458V55.98c0-1.576-1.971-3.021-3.941-3.021c-2.234,0-3.81,1.445-3.81,3.021v3.809    c-12.479,1.314-24.958,7.882-24.958,24.433c0,16.814,13.136,21.543,24.958,25.746v30.869    c-13.399-1.051-16.945-10.246-21.28-10.246c-3.284,0-6.042,4.335-6.042,7.488c0,6.436,11.034,15.237,27.322,15.5h0v4.072    c0,1.576,1.577,3.021,3.81,3.021c1.971,0,3.941-1.445,3.941-3.021v-4.466c14.187-1.971,23.907-10.903,23.907-27.06    C261.825,108.261,249.346,102.48,237.918,98.277z M230.955,95.782c-6.962-2.627-12.61-5.385-12.61-12.872    c0-6.831,5.254-10.115,12.61-11.034V95.782z M237.129,140.574v-27.716c6.436,2.758,11.559,6.436,11.559,14.711    C248.688,135.058,244.222,139.261,237.129,140.574z"/>
            </g>
        </g>
    </symbol>
    <symbol xmlns="http://www.w3.org/2000/svg" id="person-lined" viewBox="0 0 563.43 563.43">
        <path d="M280.79,314.559c83.266,0,150.803-67.538,150.803-150.803S364.055,13.415,280.79,13.415S129.987,80.953,129.987,163.756  S197.524,314.559,280.79,314.559z M280.79,52.735c61.061,0,111.021,49.959,111.021,111.021S341.851,274.776,280.79,274.776  s-111.021-49.959-111.021-111.021S219.728,52.735,280.79,52.735z"/>
        <path d="M19.891,550.015h523.648c11.102,0,19.891-8.789,19.891-19.891c0-104.082-84.653-189.198-189.198-189.198H189.198  C85.116,340.926,0,425.579,0,530.124C0,541.226,8.789,550.015,19.891,550.015z M189.198,380.708h185.034  c75.864,0,138.313,56.436,148.028,129.524H41.17C50.884,437.607,113.334,380.708,189.198,380.708z"/>
    </symbol>
    <symbol xmlns="http://www.w3.org/2000/svg" id="pdf" viewBox="0 0 58 58">
        <g>
            <path d="M50.95,12.187l-0.771-0.771L40.084,1.321L39.313,0.55C38.964,0.201,38.48,0,37.985,0H8.963C7.777,0,6.5,0.916,6.5,2.926V39   v16.537V56c0,0.837,0.842,1.653,1.838,1.91c0.05,0.013,0.098,0.032,0.15,0.042C8.644,57.983,8.803,58,8.963,58h40.074   c0.16,0,0.319-0.017,0.475-0.048c0.052-0.01,0.1-0.029,0.15-0.042C50.658,57.653,51.5,56.837,51.5,56v-0.463V39V13.978   C51.5,13.211,51.408,12.645,50.95,12.187z M47.935,12H39.5V3.565L47.935,12z M8.963,56c-0.071,0-0.135-0.026-0.198-0.049   C8.609,55.877,8.5,55.721,8.5,55.537V41h41v14.537c0,0.184-0.109,0.339-0.265,0.414C49.172,55.974,49.108,56,49.037,56H8.963z    M8.5,39V2.926C8.5,2.709,8.533,2,8.963,2h28.595C37.525,2.126,37.5,2.256,37.5,2.391V14h11.609c0.135,0,0.264-0.025,0.39-0.058   c0,0.015,0.001,0.021,0.001,0.036V39H8.5z"/>
            <path d="M22.042,44.744c-0.333-0.273-0.709-0.479-1.128-0.615c-0.419-0.137-0.843-0.205-1.271-0.205h-2.898V54h1.641v-3.637h1.217   c0.528,0,1.012-0.077,1.449-0.232s0.811-0.374,1.121-0.656c0.31-0.282,0.551-0.631,0.725-1.046c0.173-0.415,0.26-0.877,0.26-1.388   c0-0.483-0.103-0.918-0.308-1.306S22.375,45.018,22.042,44.744z M21.42,48.073c-0.101,0.278-0.232,0.494-0.396,0.649   c-0.164,0.155-0.344,0.267-0.54,0.335c-0.196,0.068-0.395,0.103-0.595,0.103h-1.504v-3.992h1.23c0.419,0,0.756,0.066,1.012,0.198   c0.255,0.132,0.453,0.296,0.595,0.492c0.141,0.196,0.234,0.401,0.28,0.615c0.045,0.214,0.068,0.403,0.068,0.567   C21.57,47.451,21.52,47.795,21.42,48.073z"/>
            <path d="M31.954,45.4c-0.424-0.446-0.957-0.805-1.6-1.073s-1.388-0.403-2.235-0.403h-3.035V54h3.814   c0.127,0,0.323-0.016,0.588-0.048c0.264-0.032,0.556-0.104,0.875-0.219c0.319-0.114,0.649-0.285,0.991-0.513   s0.649-0.54,0.923-0.937s0.499-0.889,0.677-1.477s0.267-1.297,0.267-2.126c0-0.602-0.105-1.188-0.314-1.757   C32.694,46.355,32.378,45.847,31.954,45.4z M30.758,51.73c-0.492,0.711-1.294,1.066-2.406,1.066h-1.627v-7.629h0.957   c0.784,0,1.422,0.103,1.914,0.308s0.882,0.474,1.169,0.807s0.48,0.704,0.581,1.114c0.1,0.41,0.15,0.825,0.15,1.244   C31.496,49.989,31.25,51.02,30.758,51.73z"/>
            <polygon points="35.598,54 37.266,54 37.266,49.461 41.477,49.461 41.477,48.34 37.266,48.34 37.266,45.168 41.9,45.168    41.9,43.924 35.598,43.924  "/>
            <path d="M38.428,22.961c-0.919,0-2.047,0.12-3.358,0.358c-1.83-1.942-3.74-4.778-5.088-7.562c1.337-5.629,0.668-6.426,0.373-6.802   c-0.314-0.4-0.757-1.049-1.261-1.049c-0.211,0-0.787,0.096-1.016,0.172c-0.576,0.192-0.886,0.636-1.134,1.215   c-0.707,1.653,0.263,4.471,1.261,6.643c-0.853,3.393-2.284,7.454-3.788,10.75c-3.79,1.736-5.803,3.441-5.985,5.068   c-0.066,0.592,0.074,1.461,1.115,2.242c0.285,0.213,0.619,0.326,0.967,0.326h0c0.875,0,1.759-0.67,2.782-2.107   c0.746-1.048,1.547-2.477,2.383-4.251c2.678-1.171,5.991-2.229,8.828-2.822c1.58,1.517,2.995,2.285,4.211,2.285   c0.896,0,1.664-0.412,2.22-1.191c0.579-0.811,0.711-1.537,0.39-2.16C40.943,23.327,39.994,22.961,38.428,22.961z M20.536,32.634   c-0.468-0.359-0.441-0.601-0.431-0.692c0.062-0.556,0.933-1.543,3.07-2.744C21.555,32.19,20.685,32.587,20.536,32.634z    M28.736,9.712c0.043-0.014,1.045,1.101,0.096,3.216C27.406,11.469,28.638,9.745,28.736,9.712z M26.669,25.738   c1.015-2.419,1.959-5.09,2.674-7.564c1.123,2.018,2.472,3.976,3.822,5.544C31.031,24.219,28.759,24.926,26.669,25.738z    M39.57,25.259C39.262,25.69,38.594,25.7,38.36,25.7c-0.533,0-0.732-0.317-1.547-0.944c0.672-0.086,1.306-0.108,1.811-0.108   c0.889,0,1.052,0.131,1.175,0.197C39.777,24.916,39.719,25.05,39.57,25.259z"/>
        </g>
    </symbol>
    <symbol xmlns="http://www.w3.org/2000/svg" id="pdf-filled" viewBox="0 0 426.667 426.667">
		<g>
			<path d="M42.667,85.333H0V384c0,23.573,19.093,42.667,42.667,42.667h298.667V384H42.667V85.333z"/>
			<rect x="149.333" y="138.667" width="21.333" height="21.333"/>
			<path d="M384,0H128c-23.573,0-42.667,19.093-42.667,42.667v256c0,23.573,19.093,42.667,42.667,42.667h256     c23.573,0,42.667-19.093,42.667-42.667v-256C426.667,19.093,407.573,0,384,0z M202.667,160c0,17.707-14.293,32-32,32h-21.333     v42.667h-32v-128h53.333c17.707,0,32,14.293,32,32V160z M309.333,202.667c0,17.707-14.293,32-32,32H224v-128h53.333     c17.707,0,32,14.293,32,32V202.667z M394.667,138.667h-32V160h32v32h-32v42.667h-32v-128h64V138.667z"/>
			<rect x="256" y="138.667" width="21.333" height="64"/>
		</g>
    </symbol>
    <symbol xmlns="http://www.w3.org/2000/svg" id="play" viewBox="0 0 41.999 41.999">
        <path d="M36.068,20.176l-29-20C6.761-0.035,6.363-0.057,6.035,0.114C5.706,0.287,5.5,0.627,5.5,0.999v40  c0,0.372,0.206,0.713,0.535,0.886c0.146,0.076,0.306,0.114,0.465,0.114c0.199,0,0.397-0.06,0.568-0.177l29-20  c0.271-0.187,0.432-0.494,0.432-0.823S36.338,20.363,36.068,20.176z M7.5,39.095V2.904l26.239,18.096L7.5,39.095z"/>
    </symbol>
    <symbol xmlns="http://www.w3.org/2000/svg" id="presentation" viewBox="0 0 496 496">
        <path d="m496 96v-48h-122.230469l-16-48h-123.539062l-16 48h-122.230469v48h16v56c-30.878906 0-56 25.128906-56 56v24c0 18.976562 9.511719 35.761719 24 45.886719v12.160156l-51.496094 15.449219c-17.046875 5.113281-28.503906 20.511718-28.503906 38.503906v88c0 8.824219 7.175781 16 16 16h8v48h176v-80h88v33.472656c-9.289062 3.3125-16 12.113282-16 22.527344 0 13.230469 10.769531 24 24 24s24-10.769531 24-24c0-10.414062-6.710938-19.214844-16-22.527344v-33.472656h192v-48h-16v-272zm-200 384c-4.40625 0-8-3.585938-8-8s3.59375-8 8-8 8 3.585938 8 8-3.59375 8-8 8zm-184-416h117.769531l16-48h100.46875l16 48h117.761719v16h-368zm-40 168v-24c0-22.054688 17.945312-40 40-40s40 17.945312 40 40v24c0 22.054688-17.945312 40-40 40s-40-17.945312-40-40zm40 56c5.558594 0 10.929688-.839844 16-2.359375v8.175781c-2.03125 3.113282-7.585938 10.183594-16 10.183594-8.519531 0-14.039062-7.167969-16-10.199219v-8.160156c5.070312 1.519531 10.441406 2.359375 16 2.359375zm-96 128h88c4.40625 0 8 3.585938 8 8s-3.59375 8-8 8h-88zm136 64h-80v-32h32c13.230469 0 24-10.769531 24-24s-10.769531-24-24-24h-32v-32h80zm-112-32h16v32h-16zm144 32h-16v-128h-112v48h-40v-56.183594c0-10.679687 6.871094-19.921875 17.105469-22.992187l51.511719-15.457031c4.65625 6.046874 13.664062 14.632812 27.382812 14.632812 14.800781 0 24.121094-9.984375 28.398438-16h83.601562v32h-40zm296-80h-280v-16h280zm-16-32h-264v-16h40v-8h72c13.230469 0 24-10.769531 24-24s-10.769531-24-24-24h-72v-8h-96v-10.113281c14.488281-10.132813 24-26.910157 24-45.886719v-24c0-2.71875-.265625-5.375-.640625-8h104.640625v-16h-16v-64h-16v64h-16v-48h-16v48h-16v-24h-16v24h-13.480469c-6.757812-14.167969-19.261719-25.078125-34.519531-29.640625v-58.359375h336zm-224-56h72c4.40625 0 8 3.585938 8 8s-3.59375 8-8 8h-72zm0 0"/><path d="m256 32h80v16h-80zm0 0"/><path d="m368 272c44.113281 0 80-35.886719 80-80s-35.886719-80-80-80-80 35.886719-80 80 35.886719 80 80 80zm-63.449219-72h32.585938c2.910156 11.191406 11.671875 19.953125 22.863281 22.863281v32.585938c-28.894531-3.632813-51.816406-26.554688-55.449219-55.449219zm63.449219-24c8.824219 0 16 7.175781 16 16s-7.175781 16-16 16-16-7.175781-16-16 7.175781-16 16-16zm8 79.449219v-32.585938c11.191406-2.910156 19.953125-11.671875 22.863281-22.863281h32.585938c-3.632813 28.894531-26.554688 51.816406-55.449219 55.449219zm55.449219-71.449219h-32.585938c-2.910156-11.191406-11.671875-19.953125-22.863281-22.863281v-32.585938c28.894531 3.632813 51.816406 26.554688 55.449219 55.449219zm-71.449219-55.449219v32.585938c-11.191406 2.910156-19.953125 11.671875-22.863281 22.863281h-32.585938c3.632813-28.894531 26.554688-51.816406 55.449219-55.449219zm0 0"/><path d="m184 256h16v16h-16zm0 0"/><path d="m216 256h16v16h-16zm0 0"/><path d="m248 256h16v16h-16zm0 0"/><path d="m184 224h80v16h-80zm0 0"/><path d="m360 336h16v16h-16zm0 0"/><path d="m392 336h16v16h-16zm0 0"/><path d="m424 336h16v16h-16zm0 0"/><path d="m352 304h96v16h-96zm0 0"/>
    </symbol>
    <symbol xmlns="http://www.w3.org/2000/svg" id="profile" viewBox="0 0 563.43 563.43">
        <path d="M280.79,314.559c83.266,0,150.803-67.538,150.803-150.803S364.055,13.415,280.79,13.415S129.987,80.953,129.987,163.756  S197.524,314.559,280.79,314.559z M280.79,52.735c61.061,0,111.021,49.959,111.021,111.021S341.851,274.776,280.79,274.776  s-111.021-49.959-111.021-111.021S219.728,52.735,280.79,52.735z"/>
        <path d="M19.891,550.015h523.648c11.102,0,19.891-8.789,19.891-19.891c0-104.082-84.653-189.198-189.198-189.198H189.198  C85.116,340.926,0,425.579,0,530.124C0,541.226,8.789,550.015,19.891,550.015z M189.198,380.708h185.034  c75.864,0,138.313,56.436,148.028,129.524H41.17C50.884,437.607,113.334,380.708,189.198,380.708z"/>
    </symbol> 
    <symbol xmlns="http://www.w3.org/2000/svg" id="reception-bell" viewBox="0 0 417.73 417.73" >
        <path d="M203.671,171.058c0,4.418-3.582,8-8,8c-54.371,0-98.605,44.233-98.605,98.604c0,4.418-3.582,8-8,8  s-8-3.582-8-8c0-63.193,51.412-114.604,114.605-114.604C200.09,163.058,203.671,166.639,203.671,171.058z M416.893,160.405  c-23.444-47.181-63.301-83.857-112.225-103.274c-4.105-1.63-8.757,0.377-10.387,4.484s0.378,8.757,4.484,10.387  c45.25,17.958,82.113,51.882,103.799,95.522c1.397,2.813,4.229,4.442,7.17,4.442c1.196,0,2.411-0.27,3.554-0.838  C417.246,169.164,418.859,164.362,416.893,160.405z M358.749,168.646c1.534,2.351,4.095,3.628,6.707,3.628  c1.499,0,3.016-0.421,4.365-1.302c3.7-2.416,4.741-7.373,2.326-11.072c-16.665-25.529-39.789-46.317-66.872-60.118  c-3.936-2.006-8.754-0.44-10.76,3.496c-2.006,3.937-0.44,8.754,3.496,10.76C322.607,126.572,343.61,145.455,358.749,168.646z   M404.833,379.226c0,15.808-12.86,28.668-28.667,28.668h-347.5C12.859,407.894,0,395.034,0,379.227  c0-15.808,12.859-28.668,28.666-28.668h87.961v-17.124H37.073c-4.418,0-8-3.582-8-8v-41.336c0-46.119,18.081-89.599,50.913-122.43  c30.926-30.926,71.302-48.764,114.43-50.73V67.171h-2.333c-15.807,0-28.667-12.86-28.667-28.667  c0-15.808,12.86-28.668,28.667-28.668h20.668c15.807,0,28.667,12.86,28.667,28.667c0,15.808-12.86,28.668-28.667,28.668h-2.335  v43.767c43.127,1.966,83.504,19.805,114.43,50.73c32.832,32.832,50.913,76.312,50.913,122.43v41.336c0,4.418-3.582,8-8,8h-79.554  v17.124h87.961C391.972,350.559,404.833,363.419,404.833,379.226z M202.415,51.171h10.335c6.984,0,12.667-5.682,12.667-12.667  c0-6.985-5.683-12.668-12.667-12.668h-20.668c-6.984,0-12.667,5.683-12.667,12.667c0,6.985,5.683,12.668,12.667,12.668H202.415z   M280.205,317.435h79.554v-33.336c0-86.759-70.584-157.343-157.343-157.343c-86.759,0-157.342,70.584-157.342,157.343v33.336  H280.205z M132.627,333.435v17.124h139.577v-17.124H132.627z M388.833,379.227c0-6.985-5.683-12.668-12.667-12.668h-347.5  c-6.984,0-12.666,5.683-12.666,12.667c0,6.985,5.682,12.668,12.666,12.668h347.5C383.15,391.894,388.833,386.211,388.833,379.227z"/>
    </symbol>
    <symbol xmlns="http://www.w3.org/2000/svg" id="resume" viewBox="0 0 512 512">
        <g>
            <g>
                <path d="M414.007,148.75c5.522,0,10-4.477,10-10V30c0-16.542-13.458-30-30-30h-364c-16.542,0-30,13.458-30,30v452    c0,16.542,13.458,30,30,30h364c16.542,0,30-13.458,30-30v-73.672c0-5.523-4.478-10-10-10c-5.522,0-10,4.477-10,10V482    c0,5.514-4.486,10-10,10h-364c-5.514,0-10-4.486-10-10V30c0-5.514,4.486-10,10-10h364c5.514,0,10,4.486,10,10v108.75    C404.007,144.273,408.485,148.75,414.007,148.75z"/>
            </g>
        </g>
        <g>
            <g>
                <path d="M212.007,54c-50.729,0-92,41.271-92,92c0,26.317,11.11,50.085,28.882,66.869c0.333,0.356,0.687,0.693,1.074,1    c16.371,14.979,38.158,24.13,62.043,24.13c23.885,0,45.672-9.152,62.043-24.13c0.387-0.307,0.741-0.645,1.074-1    c17.774-16.784,28.884-40.552,28.884-66.869C304.007,95.271,262.736,54,212.007,54z M212.007,218    c-16.329,0-31.399-5.472-43.491-14.668c8.789-15.585,25.19-25.332,43.491-25.332c18.301,0,34.702,9.747,43.491,25.332    C243.405,212.528,228.336,218,212.007,218z M196.007,142v-6.5c0-8.822,7.178-16,16-16s16,7.178,16,16v6.5c0,8.822-7.178,16-16,16    S196.007,150.822,196.007,142z M269.947,188.683c-7.375-10.938-17.596-19.445-29.463-24.697c4.71-6.087,7.523-13.712,7.523-21.986    v-6.5c0-19.851-16.149-36-36-36s-36,16.149-36,36v6.5c0,8.274,2.813,15.899,7.523,21.986    c-11.867,5.252-22.088,13.759-29.463,24.697c-8.829-11.953-14.06-26.716-14.06-42.683c0-39.701,32.299-72,72-72s72,32.299,72,72    C284.007,161.967,278.776,176.73,269.947,188.683z"/>
            </g>
        </g>
        <g>
            <g>
                <path d="M266.007,438h-54c-5.522,0-10,4.477-10,10s4.478,10,10,10h54c5.522,0,10-4.477,10-10S271.529,438,266.007,438z"/>
            </g>
        </g>
        <g>
            <g>
                <path d="M266.007,382h-142c-5.522,0-10,4.477-10,10s4.478,10,10,10h142c5.522,0,10-4.477,10-10S271.529,382,266.007,382z"/>
            </g>
        </g>
        <g>
            <g>
                <path d="M266.007,326h-142c-5.522,0-10,4.477-10,10s4.478,10,10,10h142c5.522,0,10-4.477,10-10S271.529,326,266.007,326z"/>
            </g>
        </g>
        <g>
            <g>
                <path d="M88.366,272.93c-1.859-1.86-4.439-2.93-7.079-2.93c-2.631,0-5.211,1.07-7.07,2.93c-1.86,1.86-2.93,4.44-2.93,7.07    s1.069,5.21,2.93,7.07c1.87,1.86,4.439,2.93,7.07,2.93c2.64,0,5.21-1.07,7.079-2.93c1.86-1.86,2.931-4.44,2.931-7.07    S90.227,274.79,88.366,272.93z"/>
            </g>
        </g>
        <g>
            <g>
                <path d="M88.366,328.93c-1.869-1.86-4.439-2.93-7.079-2.93c-2.631,0-5.2,1.07-7.07,2.93c-1.86,1.86-2.93,4.44-2.93,7.07    s1.069,5.21,2.93,7.07c1.87,1.86,4.439,2.93,7.07,2.93c2.64,0,5.21-1.07,7.079-2.93c1.86-1.86,2.931-4.44,2.931-7.07    S90.227,330.79,88.366,328.93z"/>
            </g>
        </g>
        <g>
            <g>
                <path d="M88.366,384.93c-1.869-1.86-4.439-2.93-7.079-2.93c-2.631,0-5.2,1.07-7.07,2.93c-1.86,1.86-2.93,4.44-2.93,7.07    s1.069,5.21,2.93,7.07c1.859,1.86,4.439,2.93,7.07,2.93c2.64,0,5.22-1.07,7.079-2.93c1.86-1.86,2.931-4.44,2.931-7.07    S90.227,386.79,88.366,384.93z"/>
            </g>
        </g>
        <g>
            <g>
                <path d="M266.007,270h-142c-5.522,0-10,4.477-10,10s4.478,10,10,10h142c5.522,0,10-4.477,10-10S271.529,270,266.007,270z"/>
            </g>
        </g>
        <g>
            <g>
                <path d="M491.002,130.32c-9.715-5.609-21.033-7.099-31.871-4.196c-10.836,2.904-19.894,9.854-25.502,19.569L307.787,363.656    c-0.689,1.195-1.125,2.52-1.278,3.891l-8.858,79.344c-0.44,3.948,1.498,7.783,4.938,9.77c1.553,0.896,3.278,1.34,4.999,1.34    c2.092,0,4.176-0.655,5.931-1.948l64.284-47.344c1.111-0.818,2.041-1.857,2.73-3.052l125.841-217.963    C517.954,167.638,511.058,141.9,491.002,130.32z M320.063,426.394l4.626-41.432l28.942,16.71L320.063,426.394z M368.213,386.996    l-38.105-22l100.985-174.91l38.105,22L368.213,386.996z M489.054,177.693l-9.857,17.073l-38.105-22l9.857-17.073    c2.938-5.089,7.682-8.729,13.358-10.25c5.678-1.522,11.606-0.74,16.694,2.198c5.089,2.938,8.729,7.682,10.25,13.358    C492.772,166.675,491.992,172.604,489.054,177.693z"/>
            </g>
        </g>
    </symbol>
    <symbol xmlns="http://www.w3.org/2000/svg" id="right"  viewBox="0 0 477.175 477.175">
	    <path d="M360.731,229.075l-225.1-225.1c-5.3-5.3-13.8-5.3-19.1,0s-5.3,13.8,0,19.1l215.5,215.5l-215.5,215.5   c-5.3,5.3-5.3,13.8,0,19.1c2.6,2.6,6.1,4,9.5,4c3.4,0,6.9-1.3,9.5-4l225.1-225.1C365.931,242.875,365.931,234.275,360.731,229.075z   "/>
    </symbol>
    <symbol xmlns="http://www.w3.org/2000/svg" id="right-arrow" viewBox="0 0 31.49 31.49">
        <path d="M21.205,5.007c-0.429-0.444-1.143-0.444-1.587,0c-0.429,0.429-0.429,1.143,0,1.571l8.047,8.047H1.111  C0.492,14.626,0,15.118,0,15.737c0,0.619,0.492,1.127,1.111,1.127h26.554l-8.047,8.032c-0.429,0.444-0.429,1.159,0,1.587  c0.444,0.444,1.159,0.444,1.587,0l9.952-9.952c0.444-0.429,0.444-1.143,0-1.571L21.205,5.007z"/>
    </symbol>
    <symbol xmlns="http://www.w3.org/2000/svg" id="search" viewBox="0 0 56.966 56.966">
        <path d="M55.146,51.887L41.588,37.786c3.486-4.144,5.396-9.358,5.396-14.786c0-12.682-10.318-23-23-23s-23,10.318-23,23  s10.318,23,23,23c4.761,0,9.298-1.436,13.177-4.162l13.661,14.208c0.571,0.593,1.339,0.92,2.162,0.92  c0.779,0,1.518-0.297,2.079-0.837C56.255,54.982,56.293,53.08,55.146,51.887z M23.984,6c9.374,0,17,7.626,17,17s-7.626,17-17,17  s-17-7.626-17-17S14.61,6,23.984,6z"/>
    </symbol>
    <symbol xmlns="http://www.w3.org/2000/svg" id="settings" viewBox="0 0 478.703 478.703">
        <g>
            <path d="M454.2,189.101l-33.6-5.7c-3.5-11.3-8-22.2-13.5-32.6l19.8-27.7c8.4-11.8,7.1-27.9-3.2-38.1l-29.8-29.8    c-5.6-5.6-13-8.7-20.9-8.7c-6.2,0-12.1,1.9-17.1,5.5l-27.8,19.8c-10.8-5.7-22.1-10.4-33.8-13.9l-5.6-33.2    c-2.4-14.3-14.7-24.7-29.2-24.7h-42.1c-14.5,0-26.8,10.4-29.2,24.7l-5.8,34c-11.2,3.5-22.1,8.1-32.5,13.7l-27.5-19.8    c-5-3.6-11-5.5-17.2-5.5c-7.9,0-15.4,3.1-20.9,8.7l-29.9,29.8c-10.2,10.2-11.6,26.3-3.2,38.1l20,28.1    c-5.5,10.5-9.9,21.4-13.3,32.7l-33.2,5.6c-14.3,2.4-24.7,14.7-24.7,29.2v42.1c0,14.5,10.4,26.8,24.7,29.2l34,5.8    c3.5,11.2,8.1,22.1,13.7,32.5l-19.7,27.4c-8.4,11.8-7.1,27.9,3.2,38.1l29.8,29.8c5.6,5.6,13,8.7,20.9,8.7c6.2,0,12.1-1.9,17.1-5.5    l28.1-20c10.1,5.3,20.7,9.6,31.6,13l5.6,33.6c2.4,14.3,14.7,24.7,29.2,24.7h42.2c14.5,0,26.8-10.4,29.2-24.7l5.7-33.6    c11.3-3.5,22.2-8,32.6-13.5l27.7,19.8c5,3.6,11,5.5,17.2,5.5l0,0c7.9,0,15.3-3.1,20.9-8.7l29.8-29.8c10.2-10.2,11.6-26.3,3.2-38.1    l-19.8-27.8c5.5-10.5,10.1-21.4,13.5-32.6l33.6-5.6c14.3-2.4,24.7-14.7,24.7-29.2v-42.1    C478.9,203.801,468.5,191.501,454.2,189.101z M451.9,260.401c0,1.3-0.9,2.4-2.2,2.6l-42,7c-5.3,0.9-9.5,4.8-10.8,9.9    c-3.8,14.7-9.6,28.8-17.4,41.9c-2.7,4.6-2.5,10.3,0.6,14.7l24.7,34.8c0.7,1,0.6,2.5-0.3,3.4l-29.8,29.8c-0.7,0.7-1.4,0.8-1.9,0.8    c-0.6,0-1.1-0.2-1.5-0.5l-34.7-24.7c-4.3-3.1-10.1-3.3-14.7-0.6c-13.1,7.8-27.2,13.6-41.9,17.4c-5.2,1.3-9.1,5.6-9.9,10.8l-7.1,42    c-0.2,1.3-1.3,2.2-2.6,2.2h-42.1c-1.3,0-2.4-0.9-2.6-2.2l-7-42c-0.9-5.3-4.8-9.5-9.9-10.8c-14.3-3.7-28.1-9.4-41-16.8    c-2.1-1.2-4.5-1.8-6.8-1.8c-2.7,0-5.5,0.8-7.8,2.5l-35,24.9c-0.5,0.3-1,0.5-1.5,0.5c-0.4,0-1.2-0.1-1.9-0.8l-29.8-29.8    c-0.9-0.9-1-2.3-0.3-3.4l24.6-34.5c3.1-4.4,3.3-10.2,0.6-14.8c-7.8-13-13.8-27.1-17.6-41.8c-1.4-5.1-5.6-9-10.8-9.9l-42.3-7.2    c-1.3-0.2-2.2-1.3-2.2-2.6v-42.1c0-1.3,0.9-2.4,2.2-2.6l41.7-7c5.3-0.9,9.6-4.8,10.9-10c3.7-14.7,9.4-28.9,17.1-42    c2.7-4.6,2.4-10.3-0.7-14.6l-24.9-35c-0.7-1-0.6-2.5,0.3-3.4l29.8-29.8c0.7-0.7,1.4-0.8,1.9-0.8c0.6,0,1.1,0.2,1.5,0.5l34.5,24.6    c4.4,3.1,10.2,3.3,14.8,0.6c13-7.8,27.1-13.8,41.8-17.6c5.1-1.4,9-5.6,9.9-10.8l7.2-42.3c0.2-1.3,1.3-2.2,2.6-2.2h42.1    c1.3,0,2.4,0.9,2.6,2.2l7,41.7c0.9,5.3,4.8,9.6,10,10.9c15.1,3.8,29.5,9.7,42.9,17.6c4.6,2.7,10.3,2.5,14.7-0.6l34.5-24.8    c0.5-0.3,1-0.5,1.5-0.5c0.4,0,1.2,0.1,1.9,0.8l29.8,29.8c0.9,0.9,1,2.3,0.3,3.4l-24.7,34.7c-3.1,4.3-3.3,10.1-0.6,14.7    c7.8,13.1,13.6,27.2,17.4,41.9c1.3,5.2,5.6,9.1,10.8,9.9l42,7.1c1.3,0.2,2.2,1.3,2.2,2.6v42.1H451.9z"/>
            <path d="M239.4,136.001c-57,0-103.3,46.3-103.3,103.3s46.3,103.3,103.3,103.3s103.3-46.3,103.3-103.3S296.4,136.001,239.4,136.001    z M239.4,315.601c-42.1,0-76.3-34.2-76.3-76.3s34.2-76.3,76.3-76.3s76.3,34.2,76.3,76.3S281.5,315.601,239.4,315.601z"/>
        </g>
    </symbol>
    <symbol xmlns="http://www.w3.org/2000/svg" id="team" viewBox="-20 -24 647.99967 647">
        <path d="m443.535156 279.71875c-27.566406 0-49.917968-22.347656-49.917968-49.917969 0-27.566406 22.351562-49.917969 49.917968-49.917969 27.570313 0 49.917969 22.351563 49.917969 49.917969-.03125 27.558594-22.359375 49.886719-49.917969 49.917969zm0-79.867188c-16.539062 0-29.949218 13.410157-29.949218 29.949219 0 16.546875 13.410156 29.949219 29.949218 29.949219 16.546875 0 29.949219-13.402344 29.949219-29.949219 0-16.539062-13.402344-29.949219-29.949219-29.949219zm0 0"/><path d="m164 279.71875c-27.566406 0-49.917969-22.347656-49.917969-49.917969 0-27.566406 22.351563-49.917969 49.917969-49.917969 27.570312 0 49.917969 22.351563 49.917969 49.917969-.03125 27.558594-22.359375 49.886719-49.917969 49.917969zm0-79.867188c-16.539062 0-29.949219 13.410157-29.949219 29.949219 0 16.546875 13.410157 29.949219 29.949219 29.949219 16.546875 0 29.949219-13.402344 29.949219-29.949219 0-16.539062-13.402344-29.949219-29.949219-29.949219zm0 0"/><path d="m503.4375 344.035156 95.171875-86.515625c11.132813-10.363281 11.914063-27.742187 1.75-39.058593-10.164063-11.316407-27.523437-12.40625-39.015625-2.445313l-71.683594 63.703125h-100.769531l-75.140625 91.847656v-251.582031h99.835938v39.933594h164.496093l-23.957031-59.902344 23.957031-59.898437h-114.578125v-39.933594h-169.71875v371.382812l-75.132812-91.847656h-100.769532l-71.683593-63.714844c-11.5-9.980468-28.878907-8.898437-39.050781 2.425782-10.179688 11.328124-9.394532 28.71875 1.765624 39.089843l95.1875 86.515625v235.183594h-99.835937v19.96875h599.003906v-19.96875h-99.832031zm-39.933594-283.953125h85.085938l-15.96875 39.933594 15.96875 39.933594h-115.039063v-19.964844h29.953125zm-149.753906-39.933593h129.785156v79.867187h-129.785156zm-109.816406 559.070312h-29.949219v-139.765625h-19.96875v139.765625h-29.949219v-244.011719l-101.710937-92.425781c-2.863281-2.664062-3.371094-7.011719-1.207031-10.273438 1.265624-1.898437 3.289062-3.15625 5.550781-3.449218 2.261719-.296875 4.542969.402344 6.25 1.914062l77.34375 68.710938h98.894531l74.234375 90.734375c2.878906 3.4375 2.425781 8.554687-1.007813 11.4375-3.441406 2.875-8.5625 2.421875-11.4375-1.015625l-67.042968-78.191406zm179.703125 0h-159.734375v-202.660156l31.949218 37.238281c9.261719 10.789063 25.117188 12.957031 36.933594 5.050781.371094-.25.691406-.566406 1.054688-.839844v81.34375h19.964844v-81.324218c.375.285156.707031.621094 1.105468.882812 11.808594 7.851563 27.617188 5.675782 36.859375-5.082031l31.867188-37.269531zm99.832031 0h-29.949219v-139.765625h-19.96875v139.765625h-29.949219v-256.570312l-67.035156 78.222656c-2.683594 3.109375-7.269531 3.722656-10.671875 1.425781-1.90625-1.253906-3.1875-3.265625-3.515625-5.523437-.34375-2.261719.285156-4.5625 1.738282-6.328126l74.234374-90.761718h98.898438l77.328125-68.742188c1.695313-1.535156 3.988281-2.242187 6.25-1.925781 2.296875.289063 4.34375 1.574219 5.601563 3.515625 2.148437 3.246094 1.621093 7.574219-1.25 10.210938l-101.710938 92.464843zm0 0"/>
    </symbol>
    <symbol xmlns="http://www.w3.org/2000/svg" id="teamwork" viewBox="0 0 512 512">
        <g>
            <g>
                <path d="M180.291,433.482c-39.601-16.915-72.83-47.065-93.567-84.898c-1.99-3.631-6.545-4.963-10.183-2.972    c-3.632,1.991-4.962,6.549-2.972,10.182c22.346,40.765,58.154,73.254,100.829,91.482c0.961,0.41,1.96,0.605,2.942,0.605    c2.913,0,5.685-1.708,6.901-4.556C185.869,439.516,184.1,435.109,180.291,433.482z"/>
            </g>
        </g>
        <g>
            <g>
                <path d="M435.454,345.621c-3.634-1.992-8.191-0.661-10.182,2.971c-20.735,37.823-53.958,67.968-93.548,84.883    c-3.81,1.627-5.578,6.035-3.95,9.844c1.217,2.848,3.987,4.555,6.9,4.555c0.982,0,1.982-0.195,2.942-0.605    c42.665-18.229,78.466-50.712,100.808-91.466C440.415,352.171,439.085,347.612,435.454,345.621z"/>
            </g>
        </g>
        <g>
            <g>
                <path d="M433.616,147.887c-25.464-41.748-64.908-73.323-111.066-88.908c-3.926-1.324-8.181,0.782-9.505,4.707    c-1.325,3.925,0.781,8.18,4.706,9.505c42.826,14.46,79.427,43.762,103.059,82.507c1.413,2.317,3.882,3.595,6.41,3.595    c1.331,0,2.679-0.354,3.898-1.098C434.654,156.038,435.772,151.423,433.616,147.887z"/>
            </g>
        </g>
        <g>
            <g>
                <path d="M198.98,63.676c-1.325-3.924-5.58-6.031-9.504-4.707c-46.17,15.583-85.622,47.161-111.092,88.916    c-2.156,3.536-1.038,8.151,2.498,10.308c1.22,0.744,2.567,1.098,3.898,1.098c2.528,0,4.997-1.279,6.41-3.595    c23.637-38.752,60.245-68.057,103.082-82.515C198.197,71.856,200.304,67.601,198.98,63.676z"/>
            </g>
        </g>
        <g>
            <g>
                <path d="M298.588,100.57l-18.771-9.385c-0.177-0.088-0.286-0.265-0.286-0.462v-11.36c9.72-7.216,16.032-18.775,16.032-31.783    V31.548C295.564,14.153,281.411,0,264.017,0h-16.032c-17.396,0-31.549,14.153-31.549,31.548V47.58    c0,13.008,6.312,24.567,16.032,31.783v11.36c0,0.197-0.109,0.374-0.286,0.462l-18.77,9.385    c-8.024,4.011-13.009,12.077-13.009,21.048v22.156c0,4.142,3.357,7.5,7.5,7.5s7.5-3.358,7.5-7.5v-22.156    c0-3.253,1.807-6.177,4.717-7.631l13.023-6.511l11.885,11.885c2.931,2.931,6.827,4.545,10.972,4.545    c4.145,0,8.041-1.614,10.972-4.544l11.886-11.886l13.023,6.512c2.909,1.454,4.716,4.379,4.716,7.631v22.156    c0,4.142,3.357,7.5,7.5,7.5s7.5-3.358,7.5-7.5v-22.156C311.596,112.647,306.611,104.582,298.588,100.57z M256.363,108.754    c-0.037,0.038-0.15,0.151-0.364,0.151c-0.214,0-0.327-0.113-0.364-0.151l-10.252-10.252c1.339-2.313,2.084-4.977,2.084-7.779    v-4.515c2.75,0.607,5.603,0.937,8.532,0.937c2.929,0,5.782-0.33,8.532-0.937v4.515c0,2.802,0.745,5.466,2.084,7.779    L256.363,108.754z M256.001,72.145c-13.544,0-24.564-11.02-24.564-24.565V31.548h-0.001c0-9.125,7.424-16.548,16.549-16.548    h16.032c9.124,0,16.548,7.424,16.548,16.548V47.58C280.564,61.125,269.545,72.145,256.001,72.145z"/>
            </g>
        </g>
        <g>
            <g>
                <path d="M298.588,461.296l-18.771-9.385c-0.177-0.088-0.286-0.265-0.286-0.462v-11.36c9.72-7.216,16.032-18.775,16.032-31.783    v-16.032c0-17.396-14.152-31.548-31.548-31.548h-16.032c-17.396,0-31.549,14.153-31.549,31.548v16.032    c0,13.008,6.312,24.567,16.032,31.783v11.36c0,0.197-0.109,0.374-0.286,0.462l-18.77,9.385    c-8.024,4.011-13.009,12.076-13.009,21.048V504.5c0,4.142,3.357,7.5,7.5,7.5s7.5-3.358,7.5-7.5v-22.156    c0-3.253,1.807-6.177,4.717-7.631l13.023-6.511l11.885,11.885c2.931,2.931,6.827,4.545,10.972,4.545    c4.145,0,8.041-1.614,10.972-4.545l11.886-11.885l13.023,6.511c2.909,1.454,4.716,4.378,4.716,7.631V504.5    c0,4.142,3.357,7.5,7.5,7.5s7.5-3.358,7.5-7.5v-22.156C311.596,473.373,306.611,465.308,298.588,461.296z M256.363,469.48    c-0.037,0.038-0.15,0.151-0.364,0.151c-0.214,0-0.327-0.113-0.364-0.151l-10.252-10.252c1.339-2.313,2.084-4.977,2.084-7.779    v-4.515c2.75,0.607,5.603,0.937,8.532,0.937c2.929,0,5.782-0.33,8.532-0.937v4.515c0,2.802,0.745,5.466,2.084,7.779    L256.363,469.48z M256.001,432.87c-13.544,0-24.564-11.02-24.564-24.564v-16.032h-0.001c0-9.125,7.424-16.548,16.549-16.548    h16.032c9.124,0,16.548,7.424,16.548,16.548v16.032C280.564,421.851,269.545,432.87,256.001,432.87z"/>
            </g>
        </g>
        <g>
            <g>
                <path d="M106.201,276.925l-18.771-9.385c-0.176-0.088-0.285-0.265-0.285-0.461v-11.36c9.72-7.216,16.032-18.775,16.032-31.783    v-16.032c0-17.396-14.152-31.549-31.549-31.549H55.596c-17.396,0-31.548,14.153-31.548,31.549v16.032    c0,13.008,6.312,24.567,16.032,31.783v11.36c0,0.197-0.109,0.373-0.286,0.461l-18.771,9.385    c-8.024,4.012-13.008,12.077-13.008,21.048v22.156c0,4.142,3.357,7.5,7.5,7.5s7.5-3.358,7.5-7.5v-22.156    c0-3.252,1.808-6.177,4.718-7.631l13.022-6.511l11.886,11.885c3.024,3.025,6.998,4.537,10.971,4.537    c3.974,0,7.947-1.512,10.973-4.537L86.47,283.83l13.023,6.511c2.909,1.455,4.717,4.379,4.717,7.632v22.156    c0,4.142,3.357,7.5,7.5,7.5s7.5-3.358,7.5-7.5v-22.156C119.209,289.003,114.225,280.938,106.201,276.925z M63.978,285.108    c-0.202,0.202-0.528,0.203-0.73,0.001l-10.251-10.251c1.339-2.314,2.084-4.977,2.084-7.78v-4.515    c2.75,0.607,5.603,0.937,8.532,0.937c2.929,0,5.782-0.33,8.532-0.937v4.515c0,2.802,0.745,5.466,2.084,7.779L63.978,285.108z     M63.613,248.499c-13.544,0-24.564-11.02-24.564-24.564v-16.032h-0.001c0-9.125,7.424-16.549,16.548-16.549h16.032    c9.125,0,16.549,7.424,16.549,16.549v16.032C88.177,237.48,77.157,248.499,63.613,248.499z"/>
            </g>
        </g>
        <g>
            <g>
                <path d="M490.975,276.925l-18.771-9.385c-0.177-0.088-0.286-0.265-0.286-0.461v-11.36c9.72-7.216,16.032-18.775,16.032-31.783    v-16.032c0-17.396-14.152-31.549-31.548-31.549h-16.032c-17.396,0-31.549,14.153-31.549,31.549v16.032    c0,13.008,6.312,24.567,16.032,31.783v11.36c0,0.197-0.109,0.374-0.285,0.461l-18.771,9.386    c-8.023,4.012-13.008,12.077-13.008,21.048v22.156c0,4.142,3.357,7.5,7.5,7.5s7.5-3.358,7.5-7.5v-22.156    c0-3.252,1.808-6.177,4.717-7.631l13.023-6.511l11.886,11.885c3.024,3.025,6.998,4.537,10.971,4.537    c3.974,0,7.947-1.512,10.973-4.537l11.885-11.885l13.022,6.511c2.91,1.455,4.718,4.379,4.718,7.631v22.156    c0,4.142,3.357,7.5,7.5,7.5s7.5-3.358,7.5-7.5v-22.156C503.983,289.002,498.999,280.937,490.975,276.925z M448.752,285.109    c-0.201,0.201-0.527,0.202-0.73,0l-10.252-10.252c1.339-2.313,2.084-4.977,2.084-7.779v-4.515c2.75,0.607,5.603,0.937,8.532,0.937    s5.782-0.33,8.532-0.937v4.515c0,2.802,0.746,5.466,2.084,7.78L448.752,285.109z M448.387,248.499    c-13.544,0-24.564-11.02-24.564-24.564v-16.032h-0.001c0-9.125,7.424-16.549,16.549-16.549h16.032    c9.124,0,16.548,7.424,16.548,16.549v16.032C472.951,237.48,461.931,248.499,448.387,248.499z"/>
            </g>
        </g>
    </symbol>
    <symbol xmlns="http://www.w3.org/2000/svg" id="ticket" viewBox="0 0 64.828 64.828">
        <g>
            <path d="M57.414,17l-0.707,0.707c-1.324,1.324-2.287,1.707-4.293,1.707c-4.056,0-7-2.944-7-7c0-2.006,0.383-2.969,1.707-4.293   l0.707-0.707L40.414,0L0,40.414l7.414,7.414l0.707-0.707c1.324-1.324,2.287-1.707,4.293-1.707c4.056,0,7,2.944,7,7   c0,2.006-0.383,2.969-1.707,4.293L17,57.414l7.414,7.414l40.414-40.414L57.414,17z M19.8,57.385   c1.192-1.421,1.614-2.79,1.614-4.971c0-5.131-3.869-9-9-9c-2.181,0-3.55,0.422-4.972,1.614l-4.614-4.614l23.586-23.586l3.293,3.293   l1.414-1.414l-3.293-3.293L40.414,2.828l4.614,4.615c-1.192,1.421-1.614,2.79-1.614,4.971c0,5.131,3.869,9,9,9   c2.181,0,3.55-0.422,4.972-1.614L62,24.414L49.414,37l-3.293-3.293l-1.414,1.414L48,38.414L24.414,62L19.8,57.385z"/>
            <path d="M35.707,26.122l-4-4l1.414-1.414l4,4L35.707,26.122z"/>
            <path d="M42.707,33.122l-4-4l1.414-1.414l4,4L42.707,33.122z"/>
        </g>
    </symbol>
    <symbol xmlns="http://www.w3.org/2000/svg" id="time" viewBox="0 0 612 612">
        <g>
            <path d="M587.572,186.881c-32.266-75.225-87.096-129.934-162.949-162.285C386.711,8.427,346.992,0.168,305.497,0.168    c-41.488,0-80.914,8.181-118.784,24.428C111.488,56.861,56.415,111.535,24.092,186.881C7.895,224.629,0,264.176,0,305.664    c0,41.496,7.895,81.371,24.092,119.127c32.323,75.346,87.403,130.348,162.621,162.621c37.877,16.247,77.295,24.42,118.784,24.42    c41.489,0,81.214-8.259,119.12-24.42c75.853-32.352,130.683-87.403,162.956-162.621C603.819,386.914,612,347.16,612,305.664    C612,264.176,603.826,224.757,587.572,186.881z M538.724,440.853c-24.021,41.195-56.929,73.876-98.375,98.039    c-41.195,24.021-86.332,36.135-134.845,36.135c-36.47,0-71.27-7.024-104.4-21.415c-33.129-14.384-61.733-33.294-85.661-57.215    c-23.928-23.928-42.973-52.811-57.214-85.997c-14.199-33.065-21.08-68.258-21.08-104.735c0-48.52,11.921-93.428,35.807-134.509    c23.971-41.231,56.886-73.947,98.039-98.04c41.146-24.092,85.99-36.142,134.502-36.142c48.52,0,93.649,12.121,134.845,36.142    c41.446,24.164,74.283,56.879,98.375,98.039c24.092,41.153,36.135,85.99,36.135,134.509    C574.852,354.185,562.888,399.399,538.724,440.853z"/>
            <path d="M324.906,302.988V129.659c0-10.372-9.037-18.738-19.41-18.738c-9.701,0-18.403,8.366-18.403,18.738v176.005    c0,0.336,0.671,1.678,0.671,2.678c-0.671,6.024,1.007,11.043,5.019,15.062l100.053,100.046c6.695,6.695,19.073,6.695,25.763,0    c7.694-7.695,7.188-18.86,0-26.099L324.906,302.988z"/>
        </g>
    </symbol>
    <symbol  id="tractor" viewBox="0 0 91.28463 78.6161375">
        <g><g ><path d="M83.47154,49.51636l-.33363-.19238V43.22412A1.36615,1.36615,0,0,0,82.63183,42.16L78.34226,38.678v-4.2679a8.1671,8.1671,0,0,0-8.158-8.158H61.424v-9.087a5.4636,5.4636,0,0,0-5.45772-5.45772,1.37093,1.37093,0,0,0,0,2.74186,2.719,2.719,0,0,1,2.71586,2.71586v9.087H47.71127L41.497,2.74186h1.68116a1.37093,1.37093,0,1,0,0-2.74186h-22.739a8.1671,8.1671,0,0,0-8.158,8.158V21.22773L7.47425,24.441A1.36974,1.36974,0,0,0,6.865,25.58056V33.528l-.3449.18978A28.40763,28.40763,0,0,0,.82585,37.8392a1.37093,1.37093,0,1,0,1.87181,2.00353,25.465,25.465,0,0,1,42.855,18.61586,1.37209,1.37209,0,0,0,1.37093,1.37006h13.5793l-.11872.76692a15.79623,15.79623,0,0,0-.18458,2.39523,15.54254,15.54254,0,1,0,23.272-13.47445ZM25.71315,2.74186H38.66071L44.875,26.25216H36.31055L31.8572,21.06742a1.36993,1.36993,0,0,0-1.0399-.47749H25.71315ZM15.023,8.158a5.42255,5.42255,0,0,1,5.41612-5.41612h2.533V20.58993H15.023ZM61.3625,57.08766H48.25982l-.04333-.61874a28.19108,28.19108,0,0,0-.56328-3.97847l-.17418-.80592h6.41616a1.37093,1.37093,0,0,0,0-2.74186H46.64191l-.16205-.42982A28.20058,28.20058,0,0,0,10.49774,31.91873l-.89171.32237V26.31282l4.462-2.981H30.18817l4.45335,5.18475a1.36993,1.36993,0,0,0,1.0399.47749H70.18428a5.42273,5.42273,0,0,1,5.417,5.41612v4.92044a1.36615,1.36615,0,0,0,.50608,1.06416l4.28957,3.48192V48.1359l-.82932-.21058A15.54339,15.54339,0,0,0,61.53841,56.6925Zm14.38,18.70425A12.80111,12.80111,0,1,1,88.54277,62.9908,12.81614,12.81614,0,0,1,75.74252,75.79192Z"/><path d="M75.74252,55.59368a7.39756,7.39756,0,1,0,7.39712,7.39712A7.406,7.406,0,0,0,75.74252,55.59368Zm0,12.05326a4.65613,4.65613,0,1,1,4.65613-4.65613A4.66179,4.66179,0,0,1,75.74252,67.64693Z"/><path d="M20.07518,38.38341A20.07475,20.07475,0,1,0,40.1495,58.45859,20.09767,20.09767,0,0,0,20.07518,38.38341Zm0,37.40851A17.33332,17.33332,0,1,1,37.40851,58.45859,17.3533,17.3533,0,0,1,20.07518,75.79192Z"/><path d="M20.07518,48.7217a9.73645,9.73645,0,1,0,9.736,9.73689A9.74742,9.74742,0,0,0,20.07518,48.7217Zm0,16.73192a6.995,6.995,0,1,1,6.995-6.995A7.0036,7.0036,0,0,1,20.07518,65.45362Z"/><path d="M51.90812,35.13547a1.37135,1.37135,0,0,0-1.37006,1.37006v4.86411a1.3705,1.3705,0,1,0,2.741,0V36.50553A1.37209,1.37209,0,0,0,51.90812,35.13547Z"/><path d="M60.0531,35.13547a1.37209,1.37209,0,0,0-1.37093,1.37006v4.86411a1.37093,1.37093,0,0,0,2.74186,0V36.50553A1.37209,1.37209,0,0,0,60.0531,35.13547Z"/><path d="M68.19808,42.74057a1.37209,1.37209,0,0,0,1.37006-1.37093V36.50553a1.3705,1.3705,0,0,0-2.741,0v4.86411A1.37284,1.37284,0,0,0,68.19808,42.74057Z"/></g></g>
    </symbol>
    <symbol xmlns="http://www.w3.org/2000/svg" id="traffic-cone" viewBox="-13 0 426 426">
        <path d="m391.53125 348h-14.210938l-126.464843-342.472656c-1.128907-3.207032-4.101563-5.398438-7.5-5.527344h-86.707031c-3.398438.128906-6.371094 2.320312-7.5 5.527344l-126.46875 342.472656h-14.210938c-4.417969 0-8.46875 3.378906-8.46875 7.800781v61.808594c.1875 4.582031 3.882812 8.242187 8.46875 8.390625h383.0625c4.585938-.148438 8.28125-3.808594 8.46875-8.394531v-61.804688c0-4.421875-4.050781-7.800781-8.46875-7.800781zm-70-105h-243.0625l37.332031-101h168.398438zm-159.3125-227h75.5625l40.507812 110h-156.578124zm-89.664062 243h254.890624l32.816407 89h-320.523438zm311.445312 151h-368v-46h368zm0 0"/>
    </symbol>
    <symbol xmlns="http://www.w3.org/2000/svg" id="twitter" viewBox="0 0 512.002 512.002">
        <g>
            <path d="M512.002,97.211c-18.84,8.354-39.082,14.001-60.33,16.54c21.686-13,38.342-33.585,46.186-58.115   c-20.299,12.039-42.777,20.78-66.705,25.49c-19.16-20.415-46.461-33.17-76.674-33.17c-58.011,0-105.042,47.029-105.042,105.039   c0,8.233,0.929,16.25,2.72,23.939c-87.3-4.382-164.701-46.2-216.509-109.753c-9.042,15.514-14.223,33.558-14.223,52.809   c0,36.444,18.544,68.596,46.73,87.433c-17.219-0.546-33.416-5.271-47.577-13.139c-0.01,0.438-0.01,0.878-0.01,1.321   c0,50.894,36.209,93.348,84.261,103c-8.813,2.399-18.094,3.687-27.674,3.687c-6.769,0-13.349-0.66-19.764-1.888   c13.368,41.73,52.16,72.104,98.126,72.949c-35.95,28.176-81.243,44.967-130.458,44.967c-8.479,0-16.84-0.496-25.058-1.471   c46.486,29.807,101.701,47.197,161.021,47.197c193.211,0,298.868-160.062,298.868-298.872c0-4.554-0.104-9.084-0.305-13.59   C480.111,136.775,497.92,118.275,512.002,97.211z"/>
        </g>
    </symbol>
    <symbol xmlns="http://www.w3.org/2000/svg" id="uncle-sam" viewBox="0 0 512 512">
        <path d="m342.631 268.398c4.142 0 7.5-3.358 7.5-7.5v-16.844c0-4.142-3.358-7.5-7.5-7.5s-7.5 3.358-7.5 7.5v16.844c0 4.142 3.358 7.5 7.5 7.5z"/><path d="m354.102 278.157h-22.942c-4.142 0-7.5 3.357-7.5 7.5 0 4.142 3.358 7.5 7.5 7.5h22.942c4.142 0 7.5-3.358 7.5-7.5 0-4.143-3.358-7.5-7.5-7.5z"/><path d="m169.37 268.398c4.142 0 7.5-3.358 7.5-7.5v-16.844c0-4.142-3.358-7.5-7.5-7.5s-7.5 3.358-7.5 7.5v16.844c0 4.142 3.358 7.5 7.5 7.5z"/><path d="m180.84 278.157h-22.942c-4.142 0-7.5 3.357-7.5 7.5 0 4.142 3.358 7.5 7.5 7.5h22.942c4.142 0 7.5-3.358 7.5-7.5 0-4.143-3.358-7.5-7.5-7.5z"/><path d="m276.431 272.203c-3.119-2.726-7.856-2.408-10.583.711-2.384 2.727-5.973 4.292-9.848 4.292s-7.464-1.564-9.848-4.292c-2.726-3.119-7.464-3.437-10.583-.711s-3.437 7.464-.711 10.583c5.233 5.986 12.938 9.419 21.142 9.419s15.909-3.434 21.142-9.419c2.726-3.119 2.408-7.857-.711-10.583z"/><path d="m229.275 74.029-1.571 9.159c-.896 5.228 1.212 10.412 5.503 13.53 2.425 1.761 5.261 2.656 8.117 2.656 2.199 0 4.408-.53 6.45-1.604l8.226-4.324 8.226 4.325c4.696 2.468 10.278 2.064 14.568-1.053 4.291-3.118 6.399-8.302 5.502-13.529l-1.571-9.16 6.655-6.487c3.798-3.702 5.139-9.136 3.5-14.18s-5.918-8.651-11.167-9.414l-9.197-1.336-4.113-8.334c-2.348-4.756-7.101-7.71-12.405-7.71s-10.057 2.955-12.404 7.711l-4.113 8.333-9.197 1.336c-5.249.763-9.528 4.37-11.167 9.415-1.639 5.044-.298 10.478 3.5 14.18zm12.972-16.662c4.506-.654 8.399-3.483 10.416-7.567l3.337-6.763 3.338 6.763c2.015 4.084 5.909 6.913 10.415 7.567l7.464 1.084-5.4 5.264c-3.261 3.179-4.749 7.756-3.979 12.244l1.274 7.433-6.675-3.51c-4.031-2.119-8.844-2.119-12.874 0l-6.676 3.509 1.275-7.434c.77-4.488-.718-9.065-3.979-12.243l-5.4-5.264z"/><path d="m459.118 165.183h-43.685s16.54-126.788 16.555-126.898c2.608-19.994-13.479-38.285-33.612-38.285 0 0-284.524 0-284.753 0-20.168 0-36.216 18.309-33.611 38.285l16.555 126.898h-43.684c-10.027 0-18.185 8.158-18.185 18.185v20.15c0 10.027 8.158 18.185 18.185 18.185h26.506c-.202 1.041-.394 2.083-.578 3.127-20.132 2.357-35.808 19.51-35.808 40.264 0 22.146 17.849 40.192 39.916 40.535 11.818 41.62 38.419 77.995 76.004 102.12 7.131 4.578 13.774 8.955 20.05 13.212-15.521 11.67-44.061 39.161-44.061 83.54 0 4.142 3.358 7.5 7.5 7.5h227.175c4.142 0 7.5-3.358 7.5-7.5 0-44.404-28.579-71.902-44.097-83.561 6.407-4.38 12.693-8.52 18.895-12.432 14.003-8.834 26.749-19.584 37.882-31.952 2.771-3.079 2.522-7.821-.556-10.592s-7.82-2.522-10.592.556c-18.057 20.052-41.901 33.289-63.695 48.716-16.961 12.003-33.32 24.819-49.806 37.458-5.323 4.086-12.936 4.069-18.258-.016-26.09-20.026-52.147-39.753-79.834-57.552-57.166-36.694-86.496-106.948-72.347-173.423h17.827c-2.668 11.18-4.033 22.653-4.033 34.239 0 34.924 12.479 68.825 35.137 95.459 17.513 20.585 44.62 29.369 70.743 22.925 19.638-4.844 33.118-12.517 40.968-18.1.399-.284.958-.285 1.358 0 7.849 5.583 21.327 13.255 40.965 18.1 25.614 6.318 53.036-2.352 70.258-22.354 23.381-27.203 36.029-61.923 35.615-97.764-.127-10.981-1.49-21.874-4.041-32.506h17.874c.79 3.74 1.442 7.513 1.973 11.306.005.038.004.075.01.113 2.965 20.758 1.819 42.413-3.21 62.774-4.219 17.069-11.162 33.407-20.671 48.424-2.216 3.499-1.176 8.133 2.324 10.349s8.133 1.175 10.349-2.324c9.234-14.583 16.253-30.305 20.932-46.714 22.078-.329 39.94-18.38 39.94-40.535 0-20.748-15.666-37.896-35.788-40.262-.183-1.045-.368-2.089-.569-3.13h26.478c10.027 0 18.185-8.157 18.185-18.185v-20.15c-.001-10.027-8.158-18.185-18.185-18.185zm-401.115 99.911c0-11.733 7.951-21.645 18.747-24.631-.104 1.189-.193 2.38-.274 3.572-1.04 15.44-.112 31.048 2.793 46.25-12.055-2.045-21.266-12.562-21.266-25.191zm246.865 176.067c.646-.485 14.819-10.894 15.078-11.079 10.423 7.086 38.428 29.439 41.806 66.918h-20.769v-20.917c0-4.142-3.358-7.5-7.5-7.5s-7.5 3.358-7.5 7.5v20.917h-21.115zm-82.746 11.438 15.625 11.994c5.127 3.936 11.224 5.971 17.366 6.151 6.751.198 13.766-2.028 19.138-6.151l15.616-11.986v44.393h-67.746v-44.401zm-15.033-11.527c.011.008.022.017.033.025v55.903h-21.104v-20.917c0-4.142-3.358-7.5-7.5-7.5s-7.5 3.358-7.5 7.5v20.917h-20.767c3.396-37.34 31.438-59.812 41.835-66.925 5.291 3.76 10.246 7.391 15.003 10.997zm227.085-159.621c.005-.033.01-.066.014-.1 1.887-13.505 2.254-27.3 1.068-40.886 10.794 2.987 18.741 12.897 18.741 24.629 0 12.637-9.223 23.161-21.29 25.195.562-2.93 1.05-5.877 1.467-8.838zm-339.288-245.106c-1.456-11.16 7.511-21.345 18.738-21.345h284.752c11.244 0 20.19 10.212 18.738 21.345l-10.228 78.397h-220.735c-4.142 0-7.5 3.358-7.5 7.5 0 4.007 3.494 7.5 7.5 7.5h218.778l-4.623 35.441h-288.612l-4.623-35.441h49.08c4.027 0 7.5-3.48 7.5-7.5 0-4.142-3.358-7.5-7.5-7.5h-51.037s-10.214-78.289-10.228-78.397zm261.64 305.85c-13.65 15.882-34.837 22.613-55.289 17.568-18.259-4.504-30.307-11.807-35.863-15.76-2.804-1.994-6.088-2.991-9.374-2.991-3.284 0-6.57.997-9.373 2.991-5.557 3.953-17.606 11.256-35.866 15.76-20.569 5.074-41.92-1.854-55.726-18.082-20.353-23.924-31.562-54.374-31.562-85.74 0-11.617 1.508-23.108 4.488-34.239h256.048c2.866 10.645 4.381 21.612 4.509 32.679.372 32.192-10.99 63.378-31.992 87.814zm105.776-138.677c0 1.756-1.429 3.185-3.185 3.185h-406.234c-1.756 0-3.185-1.429-3.185-3.185v-20.15c0-1.756 1.429-3.185 3.185-3.185h406.235c1.756 0 3.185 1.429 3.185 3.185v20.15z"/>
    </symbol>
    <symbol xmlns="http://www.w3.org/2000/svg" id="unlink" viewBox="0 0 54.971 54.971">
        <g>
            <path d="M51.173,3.801c-5.068-5.068-13.315-5.066-18.384,0l-9.192,9.192c-0.781,0.781-0.781,2.047,0,2.828   c0.781,0.781,2.047,0.781,2.828,0l9.192-9.192c1.691-1.69,3.951-2.622,6.363-2.622c2.413,0,4.673,0.932,6.364,2.623   s2.623,3.951,2.623,6.364c0,2.412-0.932,4.672-2.623,6.363L36.325,31.379c-3.51,3.508-9.219,3.508-12.729,0   c-0.781-0.781-2.047-0.781-2.828,0s-0.781,2.048,0,2.828c2.534,2.534,5.863,3.801,9.192,3.801s6.658-1.267,9.192-3.801   l12.021-12.021c2.447-2.446,3.795-5.711,3.795-9.192C54.968,9.512,53.62,6.248,51.173,3.801z"/>
            <path d="M27.132,40.57l-7.778,7.778c-1.691,1.691-3.951,2.623-6.364,2.623c-2.412,0-4.673-0.932-6.364-2.623   c-3.509-3.509-3.509-9.219,0-12.728L17.94,24.306c1.691-1.69,3.951-2.622,6.364-2.622c2.412,0,4.672,0.932,6.363,2.622   c0.781,0.781,2.047,0.781,2.828,0s0.781-2.047,0-2.828c-5.067-5.067-13.314-5.068-18.384,0L3.797,32.793   c-2.446,2.446-3.794,5.711-3.794,9.192c0,3.48,1.348,6.745,3.795,9.191c2.446,2.447,5.711,3.795,9.191,3.795   c3.481,0,6.746-1.348,9.192-3.795l7.778-7.778c0.781-0.781,0.781-2.047,0-2.828S27.913,39.789,27.132,40.57z"/>
        </g>
    </symbol>
    <symbol xmlns="http://www.w3.org/2000/svg" id="upload" viewBox="0 0 486.3 486.3">
        <g>
            <path d="M395.5,135.8c-5.2-30.9-20.5-59.1-43.9-80.5c-26-23.8-59.8-36.9-95-36.9c-27.2,0-53.7,7.8-76.4,22.5    c-18.9,12.2-34.6,28.7-45.7,48.1c-4.8-0.9-9.8-1.4-14.8-1.4c-42.5,0-77.1,34.6-77.1,77.1c0,5.5,0.6,10.8,1.6,16    C16.7,200.7,0,232.9,0,267.2c0,27.7,10.3,54.6,29.1,75.9c19.3,21.8,44.8,34.7,72,36.2c0.3,0,0.5,0,0.8,0h86    c7.5,0,13.5-6,13.5-13.5s-6-13.5-13.5-13.5h-85.6C61.4,349.8,27,310.9,27,267.1c0-28.3,15.2-54.7,39.7-69    c5.7-3.3,8.1-10.2,5.9-16.4c-2-5.4-3-11.1-3-17.2c0-27.6,22.5-50.1,50.1-50.1c5.9,0,11.7,1,17.1,3c6.6,2.4,13.9-0.6,16.9-6.9    c18.7-39.7,59.1-65.3,103-65.3c59,0,107.7,44.2,113.3,102.8c0.6,6.1,5.2,11,11.2,12c44.5,7.6,78.1,48.7,78.1,95.6    c0,49.7-39.1,92.9-87.3,96.6h-73.7c-7.5,0-13.5,6-13.5,13.5s6,13.5,13.5,13.5h74.2c0.3,0,0.6,0,1,0c30.5-2.2,59-16.2,80.2-39.6    c21.1-23.2,32.6-53,32.6-84C486.2,199.5,447.9,149.6,395.5,135.8z"/>
            <path d="M324.2,280c5.3-5.3,5.3-13.8,0-19.1l-71.5-71.5c-2.5-2.5-6-4-9.5-4s-7,1.4-9.5,4l-71.5,71.5c-5.3,5.3-5.3,13.8,0,19.1    c2.6,2.6,6.1,4,9.5,4s6.9-1.3,9.5-4l48.5-48.5v222.9c0,7.5,6,13.5,13.5,13.5s13.5-6,13.5-13.5V231.5l48.5,48.5    C310.4,285.3,318.9,285.3,324.2,280z"/>
        </g>
    </symbol>
    <symbol xmlns="http://www.w3.org/2000/svg" id="user" viewBox="0 0 55 55">
        <path d="M55,27.5C55,12.337,42.663,0,27.5,0S0,12.337,0,27.5c0,8.009,3.444,15.228,8.926,20.258l-0.026,0.023l0.892,0.752  c0.058,0.049,0.121,0.089,0.179,0.137c0.474,0.393,0.965,0.766,1.465,1.127c0.162,0.117,0.324,0.234,0.489,0.348  c0.534,0.368,1.082,0.717,1.642,1.048c0.122,0.072,0.245,0.142,0.368,0.212c0.613,0.349,1.239,0.678,1.88,0.98  c0.047,0.022,0.095,0.042,0.142,0.064c2.089,0.971,4.319,1.684,6.651,2.105c0.061,0.011,0.122,0.022,0.184,0.033  c0.724,0.125,1.456,0.225,2.197,0.292c0.09,0.008,0.18,0.013,0.271,0.021C25.998,54.961,26.744,55,27.5,55  c0.749,0,1.488-0.039,2.222-0.098c0.093-0.008,0.186-0.013,0.279-0.021c0.735-0.067,1.461-0.164,2.178-0.287  c0.062-0.011,0.125-0.022,0.187-0.034c2.297-0.412,4.495-1.109,6.557-2.055c0.076-0.035,0.153-0.068,0.229-0.104  c0.617-0.29,1.22-0.603,1.811-0.936c0.147-0.083,0.293-0.167,0.439-0.253c0.538-0.317,1.067-0.648,1.581-1  c0.185-0.126,0.366-0.259,0.549-0.391c0.439-0.316,0.87-0.642,1.289-0.983c0.093-0.075,0.193-0.14,0.284-0.217l0.915-0.764  l-0.027-0.023C51.523,42.802,55,35.55,55,27.5z M2,27.5C2,13.439,13.439,2,27.5,2S53,13.439,53,27.5  c0,7.577-3.325,14.389-8.589,19.063c-0.294-0.203-0.59-0.385-0.893-0.537l-8.467-4.233c-0.76-0.38-1.232-1.144-1.232-1.993v-2.957  c0.196-0.242,0.403-0.516,0.617-0.817c1.096-1.548,1.975-3.27,2.616-5.123c1.267-0.602,2.085-1.864,2.085-3.289v-3.545  c0-0.867-0.318-1.708-0.887-2.369v-4.667c0.052-0.519,0.236-3.448-1.883-5.864C34.524,9.065,31.541,8,27.5,8  s-7.024,1.065-8.867,3.168c-2.119,2.416-1.935,5.345-1.883,5.864v4.667c-0.568,0.661-0.887,1.502-0.887,2.369v3.545  c0,1.101,0.494,2.128,1.34,2.821c0.81,3.173,2.477,5.575,3.093,6.389v2.894c0,0.816-0.445,1.566-1.162,1.958l-7.907,4.313  c-0.252,0.137-0.502,0.297-0.752,0.476C5.276,41.792,2,35.022,2,27.5z M42.459,48.132c-0.35,0.254-0.706,0.5-1.067,0.735  c-0.166,0.108-0.331,0.216-0.5,0.321c-0.472,0.292-0.952,0.57-1.442,0.83c-0.108,0.057-0.217,0.111-0.326,0.167  c-1.126,0.577-2.291,1.073-3.488,1.476c-0.042,0.014-0.084,0.029-0.127,0.043c-0.627,0.208-1.262,0.393-1.904,0.552  c-0.002,0-0.004,0.001-0.006,0.001c-0.648,0.16-1.304,0.293-1.964,0.402c-0.018,0.003-0.036,0.007-0.054,0.01  c-0.621,0.101-1.247,0.174-1.875,0.229c-0.111,0.01-0.222,0.017-0.334,0.025C28.751,52.97,28.127,53,27.5,53  c-0.634,0-1.266-0.031-1.895-0.078c-0.109-0.008-0.218-0.015-0.326-0.025c-0.634-0.056-1.265-0.131-1.89-0.233  c-0.028-0.005-0.056-0.01-0.084-0.015c-1.322-0.221-2.623-0.546-3.89-0.971c-0.039-0.013-0.079-0.027-0.118-0.04  c-0.629-0.214-1.251-0.451-1.862-0.713c-0.004-0.002-0.009-0.004-0.013-0.006c-0.578-0.249-1.145-0.525-1.705-0.816  c-0.073-0.038-0.147-0.074-0.219-0.113c-0.511-0.273-1.011-0.568-1.504-0.876c-0.146-0.092-0.291-0.185-0.435-0.279  c-0.454-0.297-0.902-0.606-1.338-0.933c-0.045-0.034-0.088-0.07-0.133-0.104c0.032-0.018,0.064-0.036,0.096-0.054l7.907-4.313  c1.36-0.742,2.205-2.165,2.205-3.714l-0.001-3.602l-0.23-0.278c-0.022-0.025-2.184-2.655-3.001-6.216l-0.091-0.396l-0.341-0.221  c-0.481-0.311-0.769-0.831-0.769-1.392v-3.545c0-0.465,0.197-0.898,0.557-1.223l0.33-0.298v-5.57l-0.009-0.131  c-0.003-0.024-0.298-2.429,1.396-4.36C21.583,10.837,24.061,10,27.5,10c3.426,0,5.896,0.83,7.346,2.466  c1.692,1.911,1.415,4.361,1.413,4.381l-0.009,5.701l0.33,0.298c0.359,0.324,0.557,0.758,0.557,1.223v3.545  c0,0.713-0.485,1.36-1.181,1.575l-0.497,0.153l-0.16,0.495c-0.59,1.833-1.43,3.526-2.496,5.032c-0.262,0.37-0.517,0.698-0.736,0.949  l-0.248,0.283V39.8c0,1.612,0.896,3.062,2.338,3.782l8.467,4.233c0.054,0.027,0.107,0.055,0.16,0.083  C42.677,47.979,42.567,48.054,42.459,48.132z"/>
    </symbol>
    <symbol xmlns="http://www.w3.org/2000/svg" id="wind-mill" viewBox="0 0 463 463" >
        <g>
            <path d="M423.48,307.667L299.029,183.216c-1.406-1.407-3.314-2.197-5.303-2.197s-3.897,0.79-5.303,2.197l-16.968,16.968   c-0.001,0.001-0.002,0.002-0.003,0.002s-0.001,0.002-0.002,0.003l-11.665,11.665l-17.678-17.678l22.981-22.981L389.539,46.745   c2.929-2.929,2.929-7.678,0-10.606L355.598,2.197C354.191,0.79,352.284,0,350.294,0s-3.897,0.79-5.303,2.197L220.54,126.648   c-1.407,1.406-2.197,3.314-2.197,5.303s0.79,3.897,2.197,5.303l16.968,16.968c0.001,0.001,0.002,0.002,0.002,0.003   s0.002,0.001,0.003,0.002l11.665,11.665L231.5,183.57l-22.981-22.981L84.068,36.138c-2.929-2.93-7.678-2.929-10.606,0   L39.521,70.079c-1.407,1.406-2.197,3.314-2.197,5.303s0.79,3.897,2.197,5.303l124.451,124.451c1.406,1.407,3.314,2.197,5.303,2.197   s3.897-0.79,5.303-2.197l28.638-28.638l17.678,17.678l-22.981,22.981L73.462,341.608c-2.929,2.929-2.929,7.678,0,10.606   l33.941,33.941c1.406,1.407,3.314,2.197,5.303,2.197s3.897-0.79,5.303-2.197l44.359-44.359l-10.248,56.362   c-0.398,2.188,0.196,4.44,1.621,6.147c1.425,1.708,3.534,2.694,5.758,2.694h0.5v41h-16.5c-4.142,0-7.5,3.358-7.5,7.5   s3.358,7.5,7.5,7.5h176c4.142,0,7.5-3.358,7.5-7.5s-3.358-7.5-7.5-7.5H303v-41h0.5c2.224,0,4.333-0.987,5.758-2.694   c1.425-1.708,2.019-3.959,1.621-6.147l-25.332-139.329l93.385,93.385c1.464,1.465,3.384,2.197,5.303,2.197   c1.919,0,3.839-0.732,5.303-2.197l33.941-33.941c1.407-1.406,2.197-3.314,2.197-5.303S424.887,309.074,423.48,307.667z    M350.294,18.106l23.334,23.335L259.785,155.286l-6.364-6.364l51.265-51.265c2.929-2.929,2.929-7.678,0-10.606   c-2.929-2.929-7.678-2.929-10.606,0l-51.265,51.266l-6.364-6.364L350.294,18.106z M169.275,189.227L55.43,75.382l23.335-23.334   l113.844,113.844l-6.364,6.364l-51.265-51.265c-2.929-2.929-7.678-2.929-10.606,0c-2.929,2.929-2.929,7.678,0,10.606l51.265,51.265   L169.275,189.227z M112.706,370.247l-23.334-23.335l113.844-113.844l6.364,6.364l-51.266,51.265c-2.929,2.929-2.929,7.678,0,10.606   c1.464,1.465,3.384,2.197,5.303,2.197c1.919,0,3.839-0.732,5.303-2.197l51.266-51.265l6.364,6.364L112.706,370.247z M288,448h-49   v-24.5c0-4.142-3.358-7.5-7.5-7.5s-7.5,3.358-7.5,7.5V448h-49v-41h113V448z M294.513,392H168.487l12.516-68.837l61.458-61.458   c1.407-1.406,2.197-3.314,2.197-5.303s-0.79-3.897-2.197-5.303l-28.638-28.638l17.678-17.678l22.981,22.981l12.432,12.432   L294.513,392z M384.235,336.305L270.391,222.461l6.364-6.364l51.265,51.265c1.464,1.464,3.384,2.197,5.303,2.197   s3.839-0.732,5.303-2.197c2.929-2.929,2.929-7.678,0-10.606l-51.266-51.265l6.364-6.364L407.57,312.971L384.235,336.305z"/>
            <path d="M199.5,439c4.142,0,7.5-3.358,7.5-7.5v-8c0-4.142-3.358-7.5-7.5-7.5s-7.5,3.358-7.5,7.5v8   C192,435.643,195.358,439,199.5,439z"/>
            <path d="M263.5,439c4.142,0,7.5-3.358,7.5-7.5v-8c0-4.142-3.358-7.5-7.5-7.5s-7.5,3.358-7.5,7.5v8   C256,435.643,259.358,439,263.5,439z"/>
            <path d="M231.5,304c-4.142,0-7.5,3.358-7.5,7.5v8c0,4.142,3.358,7.5,7.5,7.5s7.5-3.358,7.5-7.5v-8   C239,307.358,235.642,304,231.5,304z"/>
        </g>
    </symbol>
    <symbol xmlns="http://www.w3.org/2000/svg" id="youtube" viewBox="0 0 310 310">
        <g>
            <path d="M297.917,64.645c-11.19-13.302-31.85-18.728-71.306-18.728H83.386c-40.359,0-61.369,5.776-72.517,19.938   C0,79.663,0,100.008,0,128.166v53.669c0,54.551,12.896,82.248,83.386,82.248h143.226c34.216,0,53.176-4.788,65.442-16.527   C304.633,235.518,310,215.863,310,181.835v-53.669C310,98.471,309.159,78.006,297.917,64.645z M199.021,162.41l-65.038,33.991   c-1.454,0.76-3.044,1.137-4.632,1.137c-1.798,0-3.592-0.484-5.181-1.446c-2.992-1.813-4.819-5.056-4.819-8.554v-67.764   c0-3.492,1.822-6.732,4.808-8.546c2.987-1.814,6.702-1.938,9.801-0.328l65.038,33.772c3.309,1.718,5.387,5.134,5.392,8.861   C204.394,157.263,202.325,160.684,199.021,162.41z"/>
        </g>
    </symbol>
    
</svg>